<svg width="710.6674560546875px" height="122.021240234375px" xmlns="http://www.w3.org/2000/svg" viewBox="-105.33372802734374 13.9893798828125 710.6674560546875 122.021240234375" style="background: rgba(0, 0, 0, 0);" preserveAspectRatio="xMidYMid"><defs><filter id="editing-offset"><feFlood flood-color="#f00" flood-opacity="0.5" result="c1"></feFlood><feFlood flood-color="#0f0" flood-opacity="0.5" result="c2"></feFlood><feFlood flood-color="#00f" flood-opacity="0.5" result="c3"></feFlood><feComposite operator="in" in="c1" in2="SourceAlpha" result="text-c1"></feComposite><feComposite operator="in" in="c2" in2="SourceAlpha" result="text-c2"></feComposite><feComposite operator="in" in="c3" in2="SourceAlpha" result="text-c3"></feComposite><feOffset in="text-c1" dx="-10" dy="0" result="text1"></feOffset><feOffset in="text-c2" dx="10" dy="0" result="text2"></feOffset><feOffset in="text-c3" dx="0" dy="0" result="text3"></feOffset><feMerge><feMergeNode in="text1"></feMergeNode><feMergeNode in="text2"></feMergeNode><feMergeNode in="text3"></feMergeNode></feMerge></filter></defs><g filter="url(#editing-offset)"><g transform="translate(-4.21000611782074, 104.51781272888184)"><path d="M34.50-13.25L34.50-13.25L34.50-13.25Q36.16-12.03 36.16-9.44L36.16-9.44L36.16-9.44Q36.16-6.85 35.04-5.02L35.04-5.02L35.04-5.02Q33.92-3.20 31.74-1.79L31.74-1.79L31.74-1.79Q27.07 1.22 18.91 1.22L18.91 1.22L18.91 1.22Q10.75 1.22 6.30-3.04L6.30-3.04L6.30-3.04Q1.86-7.30 1.86-14.85L1.86-14.85L1.86-14.85Q1.86-25.54 7.42-33.66L7.42-33.66L7.42-33.66Q11.65-39.68 19.20-42.24L19.20-42.24L19.20-42.24Q23.10-43.52 26.94-43.52L26.94-43.52L26.94-43.52Q30.78-43.52 33.15-43.01L33.15-43.01L33.15-43.01Q35.52-42.50 37.31-41.47L37.31-41.47L37.31-41.47Q41.22-39.23 41.22-35.65L41.22-35.65L41.22-35.65Q41.22-32.38 38.14-29.95L38.14-29.95L38.14-29.95Q35.33-27.78 33.02-27.78L33.02-27.78L33.02-27.78Q30.72-27.78 29.76-28.10L29.76-28.10L29.76-28.10Q30.02-30.40 30.02-31.90L30.02-31.90L30.02-31.90Q30.02-33.41 29.95-34.50L29.95-34.50L29.95-34.50Q29.89-35.58 29.57-36.61L29.57-36.61L29.57-36.61Q28.93-38.98 26.98-38.98L26.98-38.98L26.98-38.98Q25.02-38.98 23.07-37.15L23.07-37.15L23.07-37.15Q21.12-35.33 19.46-32.26L19.46-32.26L19.46-32.26Q15.68-25.28 15.68-17.02L15.68-17.02L15.68-17.02Q15.68-13.06 17.92-10.78L17.92-10.78L17.92-10.78Q20.16-8.51 24.96-8.51L24.96-8.51L24.96-8.51Q28.54-8.51 31.94-10.88L31.94-10.88L31.94-10.88Q33.41-11.90 34.50-13.25ZM55.42 1.28L55.42 1.28L55.42 1.28Q41.34 1.28 41.34-11.97L41.34-11.97L41.34-11.97Q41.34-21.38 46.53-27.46L46.53-27.46L46.53-27.46Q52.03-33.92 61.57-33.92L61.57-33.92L61.57-33.92Q68.48-33.92 72-30.72L72-30.72L72-30.72Q75.52-27.52 75.52-20.80L75.52-20.80L75.52-20.80Q75.52-10.56 70.02-4.61L70.02-4.61L70.02-4.61Q64.64 1.28 55.42 1.28ZM57.09-26.56L57.09-26.56L57.09-26.56Q56.32-24.83 55.71-22.24L55.71-22.24L55.71-22.24Q55.10-19.65 54.34-15.55L54.34-15.55L54.34-15.55Q53.57-11.46 53.57-6.40L53.57-6.40L53.57-6.40Q53.57-4.74 54.11-3.65L54.11-3.65L54.11-3.65Q54.66-2.56 56.13-2.56L56.13-2.56L56.13-2.56Q57.60-2.56 58.53-3.26L58.53-3.26L58.53-3.26Q59.46-3.97 60.16-5.63L60.16-5.63L60.16-5.63Q61.44-8.58 62.46-14.05L62.46-14.05L62.46-14.05Q63.49-19.52 63.58-21.89L63.58-21.89L63.58-21.89Q63.68-24.26 63.68-26.02L63.68-26.02L63.68-26.02Q63.68-27.78 63.17-28.93L63.17-28.93L63.17-28.93Q62.66-30.08 61.22-30.08L61.22-30.08L61.22-30.08Q59.78-30.08 58.82-29.18L58.82-29.18L58.82-29.18Q57.86-28.29 57.09-26.56ZM106.37 1.28L106.37 1.28L106.37 1.28Q98.62 1.28 98.62-4.74L98.62-4.74L98.62-4.74Q98.69-6.40 99.20-9.22L99.20-9.22L100.35-15.10L100.35-15.10Q102.08-23.42 102.08-25.28L102.08-25.28L102.08-25.28Q102.08-28.99 99.90-28.99L99.90-28.99L99.90-28.99Q96.26-28.99 94.34-19.46L94.34-19.46L90.56 0L77.70 1.28L84.35-32.70L94.85-33.92L93.82-27.65L93.82-27.65Q96.83-33.92 106.05-33.92L106.05-33.92L106.05-33.92Q110.53-33.92 112.42-32.03L112.42-32.03L112.42-32.03Q114.30-30.14 114.30-25.92L114.30-25.92L114.30-25.92Q114.30-21.95 112.26-12.67L112.26-12.67L112.26-12.67Q111.30-8.51 111.30-6.94L111.30-6.94L111.30-6.94Q111.30-5.38 112.16-4.48L112.16-4.48L112.16-4.48Q113.02-3.58 114.30-3.46L114.30-3.46L114.30-3.46Q113.66-1.28 111.46 0L111.46 0L111.46 0Q109.25 1.28 106.37 1.28ZM123.97-26.75L123.97-26.75L123.97-26.75Q126.14-29.82 129.44-31.87L129.44-31.87L129.44-31.87Q132.74-33.92 136.77-33.92L136.77-33.92L136.77-33.92Q140.80-33.92 142.72-32.64L142.72-32.64L155.26-33.92L150.91-9.34L150.91-9.34Q148.67 3.20 143.94 8.13L143.94 8.13L143.94 8.13Q139.39 12.80 130.56 12.80L130.56 12.80L130.56 12.80Q123.84 12.80 120 10.69L120 10.69L120 10.69Q116.16 8.58 116.16 5.06L116.16 5.06L116.16 5.06Q116.16 2.43 118.14 0.93L118.14 0.93L118.14 0.93Q120.13-0.58 123.20-0.58L123.20-0.58L123.20-0.58Q125.89-0.58 127.94 0.64L127.94 0.64L127.94 0.64Q129.15 1.28 129.73 2.18L129.73 2.18L129.73 2.18Q128.26 3.46 128.26 5.57L128.26 5.57L128.26 5.57Q128.26 8.32 130.82 8.32L130.82 8.32L130.82 8.32Q135.10 8.32 137.54-1.79L137.54-1.79L137.54-1.79Q138.24-4.54 138.82-7.30L138.82-7.30L138.82-7.30Q135.94-3.78 129.41-3.78L129.41-3.78L129.41-3.78Q124.86-3.78 122.24-5.95L122.24-5.95L122.24-5.95Q119.62-8.13 119.62-13.25L119.62-13.25L119.62-13.25Q119.62-16.45 120.70-20.06L120.70-20.06L120.70-20.06Q121.79-23.68 123.97-26.75ZM132.29-13.06L132.29-13.06L132.29-13.06Q132.29-8.70 134.53-8.70L134.53-8.70L134.53-8.70Q136.06-8.70 137.54-10.37L137.54-10.37L137.54-10.37Q138.69-11.71 139.14-13.70L139.14-13.70L142.40-30.14L142.40-30.14Q142.08-30.21 141.76-30.34L141.76-30.34L141.76-30.34Q141.12-30.59 140.29-30.59L140.29-30.59L140.29-30.59Q136.38-30.59 134.08-24.19L134.08-24.19L134.08-24.19Q132.29-19.20 132.29-13.06ZM177.79-17.98L177.79-17.98L177.79-17.98Q180.10-22.08 180.10-26.24L180.10-26.24L180.10-26.24Q180.10-28.99 178.11-28.99L178.11-28.99L178.11-28.99Q176.58-28.99 174.98-26.37L174.98-26.37L174.98-26.37Q173.31-23.74 172.80-20.35L172.80-20.35L169.47 0L156.22 1.28L162.75-32.64L173.31-33.92L172.16-27.46L172.16-27.46Q175.30-33.92 182.34-33.92L182.34-33.92L182.34-33.92Q186.05-33.92 188.06-32L188.06-32L188.06-32Q190.08-30.08 190.08-26.14L190.08-26.14L190.08-26.14Q190.08-22.21 187.49-19.71L187.49-19.71L187.49-19.71Q184.90-17.22 180.48-17.22L180.48-17.22L180.48-17.22Q178.56-17.22 177.79-17.98ZM193.89-1.92L193.89-1.92L193.89-1.92Q192.38-3.58 191.71-6.21L191.71-6.21L191.71-6.21Q191.04-8.83 191.04-13.12L191.04-13.12L191.04-13.12Q191.04-17.41 192.51-21.31L192.51-21.31L192.51-21.31Q193.98-25.22 196.67-28.03L196.67-28.03L196.67-28.03Q202.18-33.92 211.26-33.92L211.26-33.92L211.26-33.92Q214.53-33.92 216.90-32.83L216.90-32.83L227.84-33.92L223.10-8.96L223.10-8.96Q222.91-8.19 222.91-6.78L222.91-6.78L222.91-6.78Q222.91-5.38 223.78-4.48L223.78-4.48L223.78-4.48Q224.64-3.58 225.92-3.46L225.92-3.46L225.92-3.46Q225.28-1.28 222.94 0L222.94 0L222.94 0Q220.61 1.28 217.98 1.28L217.98 1.28L217.98 1.28Q215.36 1.28 213.60 0.29L213.60 0.29L213.60 0.29Q211.84-0.70 211.33-2.37L211.33-2.37L211.33-2.37Q210.30-0.77 208.13 0.26L208.13 0.26L208.13 0.26Q205.95 1.28 203.04 1.28L203.04 1.28L203.04 1.28Q200.13 1.28 197.76 0.51L197.76 0.51L197.76 0.51Q195.39-0.26 193.89-1.92ZM207.39-27.90L207.39-27.90L207.39-27.90Q206.66-26.75 206.02-24.80L206.02-24.80L206.02-24.80Q205.38-22.85 204.32-17.63L204.32-17.63L204.32-17.63Q203.26-12.42 203.26-8.70L203.26-8.70L203.26-8.70Q203.26-4.99 203.84-3.90L203.84-3.90L203.84-3.90Q204.42-2.82 205.44-2.82L205.44-2.82L205.44-2.82Q207.49-2.82 208.99-4.77L208.99-4.77L208.99-4.77Q210.50-6.72 211.07-10.18L211.07-10.18L214.46-28.93L214.46-28.93Q213.12-30.08 211.55-30.08L211.55-30.08L211.55-30.08Q209.98-30.08 209.06-29.57L209.06-29.57L209.06-29.57Q208.13-29.06 207.39-27.90ZM232.32-6.40L232.32-6.40L232.32-6.40Q232.32-8.13 233.22-12.48L233.22-12.48L236.61-29.76L232.83-29.76L233.09-31.68L233.09-31.68Q240.77-33.98 248.19-39.62L248.19-39.62L251.26-39.62L249.73-32.64L254.72-32.64L254.14-29.76L249.22-29.76L245.95-12.48L245.95-12.48Q245.12-8.51 245.12-7.17L245.12-7.17L245.12-7.17Q245.12-4.10 247.81-3.46L247.81-3.46L247.81-3.46Q247.17-1.28 244.86 0L244.86 0L244.86 0Q242.56 1.28 239.30 1.28L239.30 1.28L239.30 1.28Q236.03 1.28 234.18-0.77L234.18-0.77L234.18-0.77Q232.32-2.82 232.32-6.40ZM274.94-2.69L274.94-2.69L274.94-2.69Q271.87 1.28 264.26 1.28L264.26 1.28L264.26 1.28Q260.29 1.28 257.41-1.12L257.41-1.12L257.41-1.12Q254.53-3.52 254.53-6.98L254.53-6.98L254.53-6.98Q254.53-8.90 254.72-9.86L254.72-9.86L259.01-32.64L272-33.92L267.33-9.22L267.33-9.22Q267.07-7.81 267.07-6.98L267.07-6.98L267.07-6.98Q267.07-3.26 269.31-3.26L269.31-3.26L269.31-3.26Q271.81-3.26 273.60-6.66L273.60-6.66L273.60-6.66Q274.18-7.74 274.43-9.15L274.43-9.15L278.98-32.64L291.58-33.92L286.85-8.96L286.85-8.96Q286.66-8 286.66-6.98L286.66-6.98L286.66-6.98Q286.66-5.95 287.23-4.83L287.23-4.83L287.23-4.83Q287.81-3.71 289.66-3.46L289.66-3.46L289.66-3.46Q289.28-1.92 287.94-0.90L287.94-0.90L287.94-0.90Q285.12 1.28 282.08 1.28L282.08 1.28L282.08 1.28Q279.04 1.28 277.25 0.19L277.25 0.19L277.25 0.19Q275.46-0.90 274.94-2.69ZM310.34-3.52L310.34-3.52L310.34-3.52Q308.35 1.28 302.02 1.28L302.02 1.28L302.02 1.28Q298.82 1.28 296.77-0.96L296.77-0.96L296.77-0.96Q295.10-2.82 295.10-4.93L295.10-4.93L295.10-4.93Q295.10-9.73 297.34-20.22L297.34-20.22L302.02-44.80L315.01-46.08L308.80-13.70L308.80-13.70Q307.71-8.96 307.71-7.30L307.71-7.30L307.71-7.30Q307.71-3.65 310.34-3.52ZM318.56-1.92L318.56-1.92L318.56-1.92Q317.06-3.58 316.38-6.21L316.38-6.21L316.38-6.21Q315.71-8.83 315.71-13.12L315.71-13.12L315.71-13.12Q315.71-17.41 317.18-21.31L317.18-21.31L317.18-21.31Q318.66-25.22 321.34-28.03L321.34-28.03L321.34-28.03Q326.85-33.92 335.94-33.92L335.94-33.92L335.94-33.92Q339.20-33.92 341.57-32.83L341.57-32.83L352.51-33.92L347.78-8.96L347.78-8.96Q347.58-8.19 347.58-6.78L347.58-6.78L347.58-6.78Q347.58-5.38 348.45-4.48L348.45-4.48L348.45-4.48Q349.31-3.58 350.59-3.46L350.59-3.46L350.59-3.46Q349.95-1.28 347.62 0L347.62 0L347.62 0Q345.28 1.28 342.66 1.28L342.66 1.28L342.66 1.28Q340.03 1.28 338.27 0.29L338.27 0.29L338.27 0.29Q336.51-0.70 336-2.37L336-2.37L336-2.37Q334.98-0.77 332.80 0.26L332.80 0.26L332.80 0.26Q330.62 1.28 327.71 1.28L327.71 1.28L327.71 1.28Q324.80 1.28 322.43 0.51L322.43 0.51L322.43 0.51Q320.06-0.26 318.56-1.92ZM332.06-27.90L332.06-27.90L332.06-27.90Q331.33-26.75 330.69-24.80L330.69-24.80L330.69-24.80Q330.05-22.85 328.99-17.63L328.99-17.63L328.99-17.63Q327.94-12.42 327.94-8.70L327.94-8.70L327.94-8.70Q327.94-4.99 328.51-3.90L328.51-3.90L328.51-3.90Q329.09-2.82 330.11-2.82L330.11-2.82L330.11-2.82Q332.16-2.82 333.66-4.77L333.66-4.77L333.66-4.77Q335.17-6.72 335.74-10.18L335.74-10.18L339.14-28.93L339.14-28.93Q337.79-30.08 336.22-30.08L336.22-30.08L336.22-30.08Q334.66-30.08 333.73-29.57L333.73-29.57L333.73-29.57Q332.80-29.06 332.06-27.90ZM356.99-6.40L356.99-6.40L356.99-6.40Q356.99-8.13 357.89-12.48L357.89-12.48L361.28-29.76L357.50-29.76L357.76-31.68L357.76-31.68Q365.44-33.98 372.86-39.62L372.86-39.62L375.94-39.62L374.40-32.64L379.39-32.64L378.82-29.76L373.89-29.76L370.62-12.48L370.62-12.48Q369.79-8.51 369.79-7.17L369.79-7.17L369.79-7.17Q369.79-4.10 372.48-3.46L372.48-3.46L372.48-3.46Q371.84-1.28 369.54 0L369.54 0L369.54 0Q367.23 1.28 363.97 1.28L363.97 1.28L363.97 1.28Q360.70 1.28 358.85-0.77L358.85-0.77L358.85-0.77Q356.99-2.82 356.99-6.40ZM394.43-3.52L394.43-3.52L394.43-3.52Q392.45 1.28 386.11 1.28L386.11 1.28L386.11 1.28Q382.85 1.28 380.80-0.96L380.80-0.96L380.80-0.96Q379.07-2.94 379.07-4.93L379.07-4.93L379.07-4.93Q379.07-10.11 381.44-20.22L381.44-20.22L383.81-32.64L396.80-33.92L392.90-13.70L392.90-13.70Q391.81-8.96 391.81-7.30L391.81-7.30L391.81-7.30Q391.81-3.65 394.43-3.52ZM384.96-41.54L384.96-41.54L384.96-41.54Q384.96-44.03 387.04-45.38L387.04-45.38L387.04-45.38Q389.12-46.72 392.13-46.72L392.13-46.72L392.13-46.72Q395.14-46.72 396.96-45.38L396.96-45.38L396.96-45.38Q398.78-44.03 398.78-41.54L398.78-41.54L398.78-41.54Q398.78-39.04 396.77-37.76L396.77-37.76L396.77-37.76Q394.75-36.48 391.74-36.48L391.74-36.48L391.74-36.48Q388.74-36.48 386.85-37.76L386.85-37.76L386.85-37.76Q384.96-39.04 384.96-41.54ZM413.82 1.28L413.82 1.28L413.82 1.28Q399.74 1.28 399.74-11.97L399.74-11.97L399.74-11.97Q399.74-21.38 404.93-27.46L404.93-27.46L404.93-27.46Q410.43-33.92 419.97-33.92L419.97-33.92L419.97-33.92Q426.88-33.92 430.40-30.72L430.40-30.72L430.40-30.72Q433.92-27.52 433.92-20.80L433.92-20.80L433.92-20.80Q433.92-10.56 428.42-4.61L428.42-4.61L428.42-4.61Q423.04 1.28 413.82 1.28ZM415.49-26.56L415.49-26.56L415.49-26.56Q414.72-24.83 414.11-22.24L414.11-22.24L414.11-22.24Q413.50-19.65 412.74-15.55L412.74-15.55L412.74-15.55Q411.97-11.46 411.97-6.40L411.97-6.40L411.97-6.40Q411.97-4.74 412.51-3.65L412.51-3.65L412.51-3.65Q413.06-2.56 414.53-2.56L414.53-2.56L414.53-2.56Q416-2.56 416.93-3.26L416.93-3.26L416.93-3.26Q417.86-3.97 418.56-5.63L418.56-5.63L418.56-5.63Q419.84-8.58 420.86-14.05L420.86-14.05L420.86-14.05Q421.89-19.52 421.98-21.89L421.98-21.89L421.98-21.89Q422.08-24.26 422.08-26.02L422.08-26.02L422.08-26.02Q422.08-27.78 421.57-28.93L421.57-28.93L421.57-28.93Q421.06-30.08 419.62-30.08L419.62-30.08L419.62-30.08Q418.18-30.08 417.22-29.18L417.22-29.18L417.22-29.18Q416.26-28.29 415.49-26.56ZM464.77 1.28L464.77 1.28L464.77 1.28Q457.02 1.28 457.02-4.74L457.02-4.74L457.02-4.74Q457.09-6.40 457.60-9.22L457.60-9.22L458.75-15.10L458.75-15.10Q460.48-23.42 460.48-25.28L460.48-25.28L460.48-25.28Q460.48-28.99 458.30-28.99L458.30-28.99L458.30-28.99Q454.66-28.99 452.74-19.46L452.74-19.46L448.96 0L436.10 1.28L442.75-32.70L453.25-33.92L452.22-27.65L452.22-27.65Q455.23-33.92 464.45-33.92L464.45-33.92L464.45-33.92Q468.93-33.92 470.82-32.03L470.82-32.03L470.82-32.03Q472.70-30.14 472.70-25.92L472.70-25.92L472.70-25.92Q472.70-21.95 470.66-12.67L470.66-12.67L470.66-12.67Q469.70-8.51 469.70-6.94L469.70-6.94L469.70-6.94Q469.70-5.38 470.56-4.48L470.56-4.48L470.56-4.48Q471.42-3.58 472.70-3.46L472.70-3.46L472.70-3.46Q472.06-1.28 469.86 0L469.86 0L469.86 0Q467.65 1.28 464.77 1.28ZM496.96-22.46L496.96-22.46L496.96-22.46Q497.86-24.83 497.86-26.88L497.86-26.88L497.86-26.88Q497.86-30.66 494.78-30.66L494.78-30.66L494.78-30.66Q493.18-30.66 491.87-29.22L491.87-29.22L491.87-29.22Q490.56-27.78 490.56-25.98L490.56-25.98L490.56-25.98Q490.56-24.70 491.58-23.68L491.58-23.68L491.58-23.68Q493.06-22.27 496.83-19.97L496.83-19.97L496.83-19.97Q500.61-17.66 502.05-15.78L502.05-15.78L502.05-15.78Q503.49-13.89 503.49-11.30L503.49-11.30L503.49-11.30Q503.49-8.70 502.24-6.34L502.24-6.34L502.24-6.34Q500.99-3.97 498.75-2.30L498.75-2.30L498.75-2.30Q493.95 1.28 486.27 1.28L486.27 1.28L486.27 1.28Q482.11 1.28 478.91-0.90L478.91-0.90L478.91-0.90Q475.71-3.01 475.71-5.50L475.71-5.50L475.71-5.50Q475.71-8 477.54-9.47L477.54-9.47L477.54-9.47Q479.36-10.94 482.05-10.94L482.05-10.94L482.05-10.94Q484.74-10.94 486.40-9.92L486.40-9.92L486.40-9.92Q485.57-7.81 485.57-6.40L485.57-6.40L485.57-6.40Q485.57-2.18 489.15-2.18L489.15-2.18L489.15-2.18Q490.69-2.18 491.71-3.14L491.71-3.14L491.71-3.14Q492.74-4.10 492.74-5.76L492.74-5.76L492.74-5.76Q492.74-9.02 487.23-12.48L487.23-12.48L487.23-12.48Q482.75-15.42 481.73-16.58L481.73-16.58L481.73-16.58Q480-18.62 480-21.18L480-21.18L480-21.18Q480-23.74 481.22-26.18L481.22-26.18L481.22-26.18Q482.43-28.61 484.67-30.34L484.67-30.34L484.67-30.34Q489.34-33.92 497.47-33.92L497.47-33.92L497.47-33.92Q501.63-33.92 504.10-32.26L504.10-32.26L504.10-32.26Q506.56-30.59 506.56-27.78L506.56-27.78L506.56-27.78Q506.56-24.96 504.86-23.36L504.86-23.36L504.86-23.36Q503.17-21.76 500.10-21.76L500.10-21.76L500.10-21.76Q497.98-21.76 496.96-22.46Z"></path></g></g><style>text {
  font-size: 64px;
  font-family: Arial Black;
  dominant-baseline: central;
  text-anchor: middle;
}</style></svg>