<?xml version="1.0" encoding="UTF-8" standalone="no"?><!DOCTYPE svg PUBLIC "-//W3C//DTD SVG 1.1//EN" "http://www.w3.org/Graphics/SVG/1.1/DTD/svg11.dtd"><svg width="100%" height="100%" viewBox="0 0 12 12" version="1.1" xmlns="http://www.w3.org/2000/svg" xmlns:xlink="http://www.w3.org/1999/xlink" xml:space="preserve" xmlns:serif="http://www.serif.com/" style="fill-rule:evenodd;clip-rule:evenodd;stroke-linejoin:round;stroke-miterlimit:1.41421;"><rect id="Artboard1" x="0" y="0" width="12" height="12" style="fill:none;"/><g id="Artboard11" serif:id="Artboard1"><path d="M2.931,5.74c-0.049,-0.119 -0.078,-0.246 -0.084,-0.376c-0.001,-0.036 -0.003,-0.071 -0.003,-0.075c0,-0.006 -0.061,-0.038 -0.156,-0.085c-0.085,-0.042 -0.307,-0.152 -0.495,-0.245c-0.788,-0.393 -1.25,-0.621 -1.357,-0.672c-0.016,-0.007 -0.024,-0.019 -0.062,-0.087c-0.043,-0.076 -0.145,-0.288 -0.142,-0.295c0,-0.002 0.239,-0.037 0.48,-0.068c0.068,-0.009 0.064,-0.011 0.097,0.041c0.03,0.047 0.089,0.098 0.142,0.122c0.086,0.04 0.168,0.04 0.281,0l0.065,-0.023l0.027,0.047c0.075,0.134 0.182,0.205 0.317,0.212c0.028,0.002 0.066,0 0.086,-0.004c0.034,-0.007 0.114,-0.041 0.128,-0.055c0.006,-0.006 0.01,-0.001 0.028,0.037c0.028,0.057 0.06,0.102 0.101,0.138c0.076,0.069 0.168,0.084 0.267,0.045c0.025,-0.01 0.053,-0.023 0.062,-0.03c0.016,-0.01 0.026,-0.009 0.147,0.014c0.071,0.014 0.183,0.037 0.247,0.051l0.117,0.026l0.05,-0.037c0.027,-0.02 0.051,-0.036 0.053,-0.034c0.003,0.001 0.006,0.023 0.008,0.05c0.002,0.027 0.005,0.05 0.007,0.051c0.002,0 0.001,-0.025 -0.001,-0.058c-0.008,-0.126 0.004,-0.249 0.037,-0.372l0.017,-0.066l-0.049,-0.045c-0.066,-0.062 -0.498,-0.472 -0.69,-0.656c-0.343,-0.329 -0.695,-0.665 -0.8,-0.764l-0.11,-0.104l-0.018,-0.081c-0.013,-0.063 -0.056,-0.298 -0.058,-0.321c0,-0.005 0.17,0.02 0.382,0.057l0.161,0.028l0.023,0.065c0.038,0.108 0.09,0.165 0.182,0.205c0.062,0.026 0.115,0.034 0.194,0.028c0.031,-0.001 0.057,-0.003 0.058,-0.003c0.001,0 0.003,0.017 0.007,0.038c0.008,0.052 0.047,0.151 0.077,0.19c0.089,0.115 0.238,0.169 0.373,0.135l0.027,-0.006l0.003,0.03c0.011,0.084 0.046,0.17 0.09,0.22c0.061,0.069 0.169,0.097 0.275,0.07l0.028,-0.008l0.131,0.071c0.073,0.039 0.173,0.095 0.223,0.124l0.091,0.053l0.078,-0.028c0.172,-0.06 0.32,-0.081 0.489,-0.068c0.474,0.036 0.877,0.367 1.002,0.823c0.02,0.069 0.011,0.065 0.087,0.04c0.065,-0.021 0.192,-0.048 0.277,-0.06c0.408,-0.058 0.818,0.015 1.174,0.199c0.134,0.066 0.26,0.147 0.375,0.242c0.377,0.315 0.615,0.747 0.684,1.215c0.01,0.051 0.017,0.103 0.023,0.155c0.013,0.117 0.008,0.367 -0.01,0.469c-0.003,0.018 -0.003,0.018 0.025,0.022c0.108,0.015 0.248,0.056 0.338,0.098c0.16,0.077 0.308,0.194 0.412,0.327c0.24,0.309 0.309,0.718 0.18,1.075c-0.013,0.034 -0.024,0.066 -0.025,0.071c-0.002,0.005 0.042,0.058 0.112,0.137c0.063,0.071 0.228,0.256 0.367,0.413c0.582,0.66 0.925,1.046 1.005,1.133c0.012,0.012 0.015,0.027 0.025,0.104c0.01,0.087 0.026,0.322 0.021,0.326c-0.002,0.003 -0.236,-0.056 -0.471,-0.117c-0.067,-0.017 -0.064,-0.014 -0.074,-0.074c-0.011,-0.055 -0.047,-0.125 -0.086,-0.167c-0.065,-0.069 -0.141,-0.1 -0.261,-0.105l-0.069,-0.004l-0.006,-0.053c-0.02,-0.153 -0.092,-0.259 -0.215,-0.316c-0.025,-0.012 -0.062,-0.025 -0.081,-0.028c-0.035,-0.007 -0.121,-0.005 -0.139,0.002c-0.008,0.004 -0.01,-0.003 -0.013,-0.044c-0.004,-0.064 -0.017,-0.117 -0.041,-0.166c-0.045,-0.093 -0.125,-0.142 -0.231,-0.142c-0.026,0 -0.057,0.001 -0.069,0.004c-0.018,0.004 -0.027,-0.001 -0.131,-0.068c-0.06,-0.04 -0.155,-0.103 -0.209,-0.14l-0.099,-0.068l-0.06,0.015c-0.032,0.009 -0.061,0.014 -0.062,0.012c-0.002,-0.002 0.003,-0.024 0.012,-0.05c0.008,-0.026 0.013,-0.048 0.012,-0.049c-0.002,-0.001 -0.011,0.023 -0.021,0.053c-0.04,0.121 -0.097,0.23 -0.173,0.331l-0.042,0.055l0.029,0.06c0.038,0.082 0.284,0.625 0.393,0.868c0.195,0.433 0.394,0.877 0.454,1.008l0.063,0.139l-0.014,0.081c-0.011,0.063 -0.06,0.297 -0.067,0.319c-0.002,0.005 -0.15,-0.083 -0.333,-0.197l-0.138,-0.086l0.003,-0.069c0.005,-0.114 -0.021,-0.186 -0.092,-0.258c-0.047,-0.047 -0.093,-0.074 -0.168,-0.099c-0.03,-0.01 -0.055,-0.019 -0.056,-0.019c0,0 0.004,-0.017 0.008,-0.038c0.013,-0.051 0.013,-0.157 0,-0.205c-0.039,-0.14 -0.157,-0.246 -0.295,-0.265l-0.027,-0.004l0.008,-0.03c0.022,-0.082 0.022,-0.175 -0.001,-0.237c-0.03,-0.088 -0.119,-0.154 -0.228,-0.169l-0.028,-0.003l-0.095,-0.115c-0.053,-0.063 -0.125,-0.153 -0.16,-0.199l-0.065,-0.083l-0.082,-0.003c-0.179,-0.009 -0.321,-0.044 -0.47,-0.116c-0.131,0.113 -0.287,0.194 -0.457,0.235c-0.035,0.008 -0.069,0.017 -0.073,0.018c-0.006,0.001 -0.026,0.067 -0.053,0.169c-0.024,0.092 -0.089,0.332 -0.144,0.533c-0.232,0.85 -0.366,1.347 -0.395,1.463c-0.004,0.016 -0.015,0.027 -0.074,0.077c-0.067,0.057 -0.255,0.199 -0.261,0.197c-0.003,0 -0.083,-0.228 -0.161,-0.458c-0.022,-0.065 -0.023,-0.061 0.022,-0.103c0.04,-0.039 0.078,-0.107 0.092,-0.163c0.022,-0.092 0.006,-0.172 -0.055,-0.276l-0.035,-0.059l0.041,-0.035c0.117,-0.101 0.166,-0.219 0.147,-0.353c-0.005,-0.027 -0.014,-0.065 -0.022,-0.083c-0.013,-0.033 -0.062,-0.104 -0.078,-0.115c-0.007,-0.005 -0.003,-0.01 0.031,-0.035c0.05,-0.039 0.088,-0.079 0.115,-0.126c0.053,-0.088 0.05,-0.181 -0.007,-0.27c-0.015,-0.023 -0.033,-0.048 -0.042,-0.056c-0.013,-0.013 -0.014,-0.023 -0.015,-0.147c0,-0.072 0.001,-0.186 0.003,-0.252l0.002,-0.119l-0.046,-0.042c-0.025,-0.022 -0.045,-0.043 -0.044,-0.046c0,-0.002 0.022,-0.01 0.048,-0.017c0.026,-0.008 0.048,-0.015 0.048,-0.017c0,-0.002 -0.025,0.004 -0.056,0.012c-0.123,0.033 -0.245,0.045 -0.372,0.037l-0.069,-0.005l-0.034,0.057c-0.048,0.077 -0.366,0.581 -0.509,0.805c-0.256,0.4 -0.517,0.811 -0.594,0.933l-0.081,0.128l-0.076,0.033c-0.059,0.025 -0.281,0.113 -0.303,0.119c-0.006,0.002 -0.014,-0.17 -0.018,-0.386l-0.004,-0.162l0.059,-0.036c0.098,-0.058 0.144,-0.12 0.165,-0.218c0.014,-0.065 0.011,-0.119 -0.01,-0.196c-0.007,-0.03 -0.014,-0.056 -0.014,-0.056c0,-0.001 0.016,-0.007 0.036,-0.014c0.05,-0.018 0.139,-0.076 0.171,-0.113c0.096,-0.109 0.12,-0.266 0.06,-0.393l-0.011,-0.024l0.029,-0.009c0.08,-0.027 0.158,-0.078 0.198,-0.131c0.056,-0.074 0.063,-0.185 0.015,-0.283l-0.012,-0.026l0.044,-0.143c0.024,-0.079 0.059,-0.188 0.078,-0.242l0.034,-0.1l-0.042,-0.071c-0.052,-0.088 -0.091,-0.171 -0.118,-0.256c-0.076,-0.033 -0.149,-0.074 -0.217,-0.124c-0.029,-0.021 -0.057,-0.041 -0.061,-0.044c-0.004,-0.003 -0.068,0.024 -0.163,0.069c-0.086,0.041 -0.311,0.146 -0.5,0.235c-0.799,0.371 -1.265,0.59 -1.372,0.642c-0.015,0.008 -0.03,0.007 -0.107,-0.006c-0.086,-0.014 -0.316,-0.066 -0.319,-0.072c-0.001,-0.002 0.121,-0.211 0.246,-0.419c0.035,-0.058 0.032,-0.056 0.093,-0.05c0.055,0.006 0.132,-0.009 0.184,-0.034c0.085,-0.043 0.135,-0.107 0.175,-0.22l0.023,-0.066l0.053,0.009c0.152,0.024 0.274,-0.015 0.364,-0.116c0.018,-0.021 0.041,-0.052 0.049,-0.07c0.017,-0.031 0.04,-0.114 0.038,-0.134c-0.001,-0.008 0.005,-0.008 0.046,0.001c0.063,0.014 0.117,0.016 0.171,0.007c0.101,-0.016 0.171,-0.079 0.201,-0.181c0.008,-0.025 0.015,-0.055 0.016,-0.067c0.002,-0.019 0.008,-0.026 0.102,-0.107c0.055,-0.046 0.143,-0.119 0.194,-0.16l0.093,-0.076l0.003,-0.062c0.001,-0.033 0.003,-0.062 0.006,-0.063c0.002,-0.001 0.022,0.01 0.044,0.025c0.023,0.016 0.043,0.027 0.044,0.026c0.002,-0.001 -0.019,-0.016 -0.045,-0.035c-0.104,-0.072 -0.193,-0.158 -0.268,-0.26l-0.042,-0.056l-0.065,0.011c-0.09,0.013 -0.68,0.095 -0.943,0.131c-0.471,0.064 -0.953,0.129 -1.096,0.149l-0.151,0.021l-0.073,-0.036c-0.058,-0.029 -0.268,-0.142 -0.288,-0.155c-0.004,-0.003 0.122,-0.12 0.283,-0.263l0.122,-0.108l0.065,0.022c0.108,0.038 0.185,0.033 0.274,-0.015c0.058,-0.031 0.098,-0.068 0.143,-0.133c0.018,-0.026 0.033,-0.047 0.034,-0.048c0,0 0.015,0.008 0.034,0.019c0.045,0.026 0.147,0.056 0.196,0.057c0.146,0.003 0.281,-0.08 0.339,-0.207l0.011,-0.025l0.026,0.016c0.072,0.044 0.162,0.071 0.228,0.067c0.092,-0.004 0.181,-0.071 0.226,-0.171l0.011,-0.026l0.138,-0.059c0.075,-0.032 0.182,-0.076 0.235,-0.097l0.099,-0.038l0.026,-0.078c0.031,-0.089 0.067,-0.167 0.109,-0.238Zm3.179,2.224c0,0.007 0,0.016 0.001,0.026c0,0.017 0,0.027 0.005,0.032c0.004,-0.038 0.008,-0.052 -0.006,-0.058Zm0.961,-0.058c0.069,-0.02 0.137,-0.077 0.168,-0.142c0.011,-0.022 0.021,-0.05 0.024,-0.062c0.001,-0.011 0.001,-0.021 -0.001,-0.02c-0.003,0 -0.022,0.01 -0.043,0.023c-0.039,0.023 -0.117,0.061 -0.192,0.095l0.003,0.006c0.014,0.03 0.028,0.064 0.041,0.1Zm-1.693,-0.135l-0.001,0.002c0.003,-0.002 0.005,-0.004 0.006,-0.005l-0.001,-0.001l-0.002,-0.001l-0.002,0.005Zm0.89,-0.191c0.012,-0.02 0.025,-0.039 0.037,-0.057c-0.078,-0.053 -0.178,-0.064 -0.266,-0.027c-0.02,0.009 -0.038,0.019 -0.038,0.021c-0.001,0.002 0.009,0.028 0.019,0.054c0.083,0.01 0.166,0.013 0.248,0.009Zm0.735,-0.21c-0.03,-0.001 -0.06,0.001 -0.08,0.006c-0.056,0.016 -0.109,0.051 -0.145,0.094l0.005,0.004c0.074,-0.029 0.149,-0.064 0.22,-0.104Zm-1.471,0.068c-0.011,-0.029 -0.034,-0.068 -0.056,-0.096l0,0.012c-0.001,0.031 -0.003,0.047 0.002,0.059c0.018,0.009 0.036,0.017 0.054,0.025Zm2.266,-1.809c-0.034,-0.143 -0.087,-0.281 -0.159,-0.413c-0.11,-0.2 -0.276,-0.39 -0.456,-0.521c-0.049,-0.036 -0.099,-0.069 -0.151,-0.099c-0.204,-0.114 -0.428,-0.181 -0.665,-0.2c-0.227,-0.017 -0.476,0.017 -0.685,0.095c-0.032,0.012 -0.063,0.025 -0.093,0.038c-0.031,0.18 -0.089,0.326 -0.187,0.468c-0.065,0.095 -0.163,0.197 -0.25,0.261c-0.023,0.016 -0.04,0.032 -0.039,0.035c0.005,0.013 -0.01,0.179 -0.023,0.242c-0.026,0.129 -0.075,0.251 -0.142,0.362c0.014,0.034 0.027,0.069 0.038,0.105c0.033,0.11 0.052,0.25 0.048,0.359c-0.002,0.027 0,0.051 0.003,0.052c0.013,0.004 0.133,0.119 0.175,0.168c0.096,0.116 0.168,0.248 0.212,0.388l0.007,0.003c0.105,0.046 0.224,0.122 0.304,0.195c0.02,0.019 0.04,0.033 0.042,0.031c0.012,-0.007 0.178,-0.024 0.242,-0.024c0.173,0.001 0.341,0.041 0.493,0.115c0.035,-0.029 0.072,-0.057 0.111,-0.083c0.097,-0.063 0.225,-0.121 0.331,-0.148c0.026,-0.006 0.049,-0.014 0.049,-0.017c0,-0.014 0.077,-0.162 0.112,-0.216c0.156,-0.234 0.392,-0.402 0.665,-0.472c0.06,-0.235 0.067,-0.483 0.018,-0.724Zm0.146,1.398c0,0.041 -0.014,0.095 -0.034,0.134c-0.03,0.058 -0.028,0.057 -0.062,0.035c-0.017,-0.009 -0.03,-0.019 -0.03,-0.02c0,-0.001 0.014,-0.021 0.03,-0.044c0.017,-0.023 0.043,-0.063 0.059,-0.088c0.016,-0.026 0.03,-0.047 0.032,-0.047c0.003,0 0.005,0.014 0.005,0.03Zm-0.331,-0.264c-0.005,0.001 -0.011,0.002 -0.015,0.003c-0.105,0.028 -0.183,0.113 -0.202,0.219c-0.004,0.022 -0.006,0.042 -0.004,0.044c0.001,0.001 0.011,0.003 0.025,0.006c0.076,-0.085 0.141,-0.176 0.196,-0.272Zm-2.54,0.12c-0.024,-0.032 -0.056,-0.059 -0.094,-0.078c-0.02,-0.01 -0.039,-0.017 -0.041,-0.016c-0.003,0.002 -0.038,0.066 -0.052,0.093c0.066,-0.003 0.128,-0.003 0.187,0.001Zm-0.755,-0.415c-0.006,-0.02 -0.011,-0.038 -0.014,-0.053c-0.003,-0.018 -0.004,-0.018 -0.031,-0.011c-0.007,0.002 -0.014,0.004 -0.021,0.005c0.008,0.009 0.015,0.018 0.024,0.025c0.013,0.013 0.03,0.026 0.042,0.034Zm0.409,-0.307c-0.024,0.022 -0.05,0.043 -0.077,0.062c-0.009,0.007 -0.016,0.012 -0.022,0.017c0.004,0.03 0.008,0.06 0.014,0.089c0.01,0.045 0.021,0.086 0.024,0.087c0.002,0.001 0.012,-0.009 0.021,-0.022c0.024,-0.033 0.05,-0.112 0.051,-0.153c0,-0.026 -0.004,-0.054 -0.011,-0.08Zm0.043,-0.557c0.007,-0.036 0.008,-0.074 0,-0.112c-0.005,-0.022 -0.011,-0.041 -0.013,-0.042c-0.002,0 -0.021,0.003 -0.043,0.007c-0.008,0.02 -0.015,0.04 -0.021,0.061c0.027,0.029 0.053,0.057 0.077,0.086Zm0.393,-0.802c-0.066,0.058 -0.127,0.122 -0.183,0.189c0.032,-0.011 0.063,-0.025 0.08,-0.039c0.049,-0.038 0.087,-0.094 0.103,-0.15Zm-0.54,-0.024c-0.002,-0.012 -0.003,-0.042 -0.001,-0.067c0.005,-0.075 0.051,-0.159 0.112,-0.201c0.05,-0.036 0.139,-0.061 0.188,-0.054c0.019,0.003 0.027,0.009 0.016,0.014c-0.025,0.01 -0.218,0.213 -0.275,0.289c-0.015,0.02 -0.028,0.036 -0.031,0.037c-0.002,0.002 -0.006,-0.007 -0.009,-0.018Z" style="fill:#ff00fa;"/></g></svg>