<?xml version="1.0" encoding="UTF-8" standalone="no"?><!DOCTYPE svg PUBLIC "-//W3C//DTD SVG 1.1//EN" "http://www.w3.org/Graphics/SVG/1.1/DTD/svg11.dtd"><svg width="100%" height="100%" viewBox="0 0 12 12" version="1.1" xmlns="http://www.w3.org/2000/svg" xmlns:xlink="http://www.w3.org/1999/xlink" xml:space="preserve" xmlns:serif="http://www.serif.com/" style="fill-rule:evenodd;clip-rule:evenodd;stroke-linejoin:round;stroke-miterlimit:1.41421;"><rect id="Artboard1" x="0" y="0" width="12" height="12" style="fill:none;"/><g id="Artboard11" serif:id="Artboard1"><path d="M6.073,4.078c-0.723,0.063 -1.342,0.51 -1.629,1.175c-0.187,0.435 -0.205,0.944 -0.051,1.394c0.215,0.626 0.735,1.102 1.377,1.262c0.084,0.021 0.212,0.044 0.28,0.049c0.08,0.006 0.073,-0.002 0.065,0.069c-0.055,0.47 0.194,0.928 0.62,1.14c0.151,0.076 0.296,0.112 0.479,0.121l0.082,0.003l0.065,0.083c0.035,0.046 0.107,0.136 0.16,0.199l0.095,0.115l0.028,0.003c0.109,0.015 0.198,0.081 0.228,0.169c0.023,0.062 0.023,0.155 0.001,0.237l-0.008,0.03l0.027,0.004c0.138,0.019 0.256,0.125 0.295,0.265c0.013,0.048 0.013,0.154 0,0.205c-0.004,0.021 -0.008,0.038 -0.008,0.038c0.001,0 0.026,0.009 0.056,0.019c0.075,0.025 0.121,0.052 0.168,0.099c0.071,0.072 0.097,0.144 0.092,0.258l-0.003,0.069l0.138,0.086c0.183,0.114 0.331,0.202 0.333,0.197c0.007,-0.022 0.056,-0.256 0.067,-0.319l0.014,-0.081l-0.063,-0.139c-0.06,-0.131 -0.259,-0.575 -0.454,-1.008c-0.109,-0.243 -0.355,-0.786 -0.393,-0.868l-0.029,-0.06l0.042,-0.055c0.076,-0.101 0.133,-0.21 0.173,-0.331c0.01,-0.03 0.019,-0.054 0.021,-0.053c0.001,0.001 -0.004,0.023 -0.012,0.049c-0.009,0.026 -0.014,0.048 -0.012,0.05c0.001,0.002 0.03,-0.003 0.062,-0.012l0.06,-0.015l0.099,0.068c0.054,0.037 0.149,0.1 0.209,0.14c0.104,0.067 0.113,0.072 0.131,0.068c0.012,-0.003 0.043,-0.004 0.069,-0.004c0.106,0 0.186,0.049 0.231,0.142c0.024,0.049 0.037,0.102 0.041,0.166c0.003,0.041 0.005,0.048 0.013,0.044c0.018,-0.007 0.104,-0.009 0.139,-0.002c0.019,0.003 0.056,0.016 0.081,0.028c0.123,0.057 0.195,0.163 0.215,0.316l0.006,0.053l0.069,0.004c0.12,0.005 0.196,0.036 0.261,0.105c0.039,0.042 0.075,0.112 0.086,0.167c0.01,0.06 0.007,0.057 0.074,0.074c0.235,0.061 0.469,0.12 0.471,0.117c0.005,-0.004 -0.011,-0.239 -0.021,-0.326c-0.01,-0.077 -0.013,-0.092 -0.025,-0.104c-0.08,-0.087 -0.423,-0.473 -1.005,-1.133c-0.139,-0.157 -0.304,-0.342 -0.367,-0.413c-0.07,-0.079 -0.114,-0.132 -0.112,-0.137c0.001,-0.005 0.012,-0.037 0.025,-0.071c0.129,-0.357 0.06,-0.766 -0.18,-1.075c-0.104,-0.133 -0.252,-0.25 -0.412,-0.327c-0.09,-0.042 -0.23,-0.083 -0.338,-0.098c-0.028,-0.004 -0.028,-0.004 -0.025,-0.022c0.018,-0.102 0.023,-0.352 0.01,-0.469c-0.04,-0.35 -0.16,-0.669 -0.359,-0.946c-0.309,-0.432 -0.79,-0.725 -1.31,-0.798c-0.142,-0.02 -0.313,-0.026 -0.442,-0.014Zm0.294,0.318c0.28,0.023 0.54,0.112 0.773,0.265c0.52,0.343 0.797,0.944 0.72,1.566c-0.014,0.12 -0.006,0.107 -0.079,0.125c-0.273,0.07 -0.51,0.238 -0.666,0.473c-0.035,0.054 -0.112,0.202 -0.112,0.216c0,0.003 -0.023,0.011 -0.049,0.017c-0.106,0.027 -0.234,0.085 -0.331,0.148c-0.16,0.106 -0.277,0.235 -0.382,0.42l-0.015,0.028l-0.07,-0.004c-0.33,-0.018 -0.633,-0.129 -0.901,-0.33c-0.084,-0.063 -0.24,-0.218 -0.3,-0.297c-0.192,-0.253 -0.301,-0.526 -0.333,-0.831c-0.078,-0.743 0.356,-1.439 1.06,-1.701c0.209,-0.078 0.458,-0.112 0.685,-0.095Zm1.327,2.365c0.004,0.004 -0.038,0.081 -0.079,0.145c-0.027,0.04 -0.104,0.148 -0.107,0.148c-0.009,0 -0.113,-0.023 -0.116,-0.025c-0.002,-0.002 0,-0.022 0.004,-0.044c0.019,-0.106 0.097,-0.191 0.202,-0.219c0.029,-0.008 0.09,-0.011 0.096,-0.005Zm0.25,0.266c0,0.041 -0.014,0.095 -0.034,0.134c-0.03,0.058 -0.028,0.057 -0.062,0.035c-0.017,-0.009 -0.03,-0.019 -0.03,-0.02c0,-0.001 0.014,-0.021 0.03,-0.044c0.017,-0.023 0.043,-0.063 0.059,-0.088c0.016,-0.026 0.03,-0.047 0.032,-0.047c0.003,0 0.005,0.014 0.005,0.03Zm-0.86,0.355c0.015,0.005 0.027,0.011 0.027,0.014c0,0.004 -0.093,0.058 -0.148,0.086c-0.059,0.029 -0.124,0.056 -0.184,0.077c-0.065,0.022 -0.064,0.024 -0.032,-0.041c0.03,-0.065 0.1,-0.12 0.176,-0.142c0.039,-0.011 0.123,-0.008 0.161,0.006Zm0.179,0.32c-0.003,0.012 -0.013,0.04 -0.024,0.062c-0.033,0.068 -0.107,0.128 -0.18,0.145c-0.06,0.014 -0.152,0.004 -0.194,-0.021c-0.016,-0.01 -0.021,-0.019 -0.01,-0.019c0.027,0 0.282,-0.115 0.364,-0.164c0.021,-0.013 0.04,-0.023 0.043,-0.023c0.002,-0.001 0.002,0.009 0.001,0.02Z" style="fill:#fffb49;fill-rule:nonzero;"/></g></svg>