<?xml version="1.0" encoding="UTF-8" standalone="no"?><!DOCTYPE svg PUBLIC "-//W3C//DTD SVG 1.1//EN" "http://www.w3.org/Graphics/SVG/1.1/DTD/svg11.dtd"><svg width="100%" height="100%" viewBox="0 0 12 12" version="1.1" xmlns="http://www.w3.org/2000/svg" xmlns:xlink="http://www.w3.org/1999/xlink" xml:space="preserve" xmlns:serif="http://www.serif.com/" style="fill-rule:evenodd;clip-rule:evenodd;stroke-linejoin:round;stroke-miterlimit:1.41421;"><rect id="Artboard1" x="0" y="0" width="12" height="12" style="fill:none;"/><g id="Artboard11" serif:id="Artboard1"><path d="M8.1,6.48c0.132,-0.714 -0.133,-1.43 -0.698,-1.883c-0.369,-0.297 -0.855,-0.451 -1.33,-0.422c-0.66,0.041 -1.258,0.414 -1.584,0.991c-0.042,0.075 -0.098,0.193 -0.121,0.257c-0.027,0.075 -0.018,0.071 -0.084,0.044c-0.438,-0.178 -0.946,-0.061 -1.264,0.293c-0.113,0.126 -0.187,0.256 -0.244,0.429l-0.025,0.079l-0.098,0.04c-0.053,0.022 -0.159,0.067 -0.234,0.101l-0.136,0.061l-0.011,0.027c-0.043,0.1 -0.131,0.169 -0.223,0.175c-0.066,0.004 -0.156,-0.02 -0.229,-0.063l-0.026,-0.016l-0.011,0.025c-0.056,0.128 -0.19,0.214 -0.335,0.213c-0.049,0 -0.151,-0.028 -0.198,-0.054c-0.018,-0.01 -0.034,-0.018 -0.034,-0.017c0,0 -0.015,0.022 -0.033,0.048c-0.044,0.066 -0.083,0.103 -0.141,0.136c-0.087,0.049 -0.164,0.055 -0.273,0.02l-0.065,-0.022l-0.12,0.111c-0.159,0.145 -0.283,0.264 -0.279,0.267c0.02,0.013 0.232,0.123 0.29,0.15l0.075,0.035l0.15,-0.023c0.142,-0.023 0.623,-0.097 1.093,-0.169c0.262,-0.04 0.851,-0.133 0.941,-0.148l0.065,-0.011l0.042,0.055c0.078,0.1 0.167,0.185 0.273,0.255c0.027,0.018 0.047,0.033 0.046,0.034c-0.002,0.002 -0.022,-0.01 -0.045,-0.025c-0.022,-0.015 -0.042,-0.026 -0.044,-0.024c-0.003,0.001 -0.005,0.03 -0.005,0.063l-0.002,0.062l-0.091,0.077c-0.051,0.042 -0.137,0.117 -0.191,0.164c-0.093,0.082 -0.1,0.089 -0.101,0.109c-0.001,0.011 -0.007,0.041 -0.014,0.067c-0.029,0.102 -0.098,0.166 -0.199,0.184c-0.053,0.01 -0.108,0.009 -0.171,-0.004c-0.041,-0.008 -0.047,-0.008 -0.046,0c0.002,0.02 -0.019,0.103 -0.035,0.135c-0.008,0.018 -0.031,0.05 -0.048,0.071c-0.089,0.103 -0.21,0.144 -0.362,0.122l-0.054,-0.008l-0.021,0.066c-0.038,0.114 -0.087,0.179 -0.171,0.223c-0.052,0.027 -0.128,0.043 -0.184,0.038c-0.061,-0.006 -0.057,-0.008 -0.091,0.052c-0.122,0.21 -0.241,0.42 -0.239,0.422c0.003,0.007 0.234,0.054 0.32,0.067c0.078,0.011 0.092,0.013 0.107,0.004c0.106,-0.054 0.569,-0.281 1.361,-0.666c0.187,-0.092 0.41,-0.202 0.495,-0.244c0.095,-0.046 0.158,-0.074 0.162,-0.071c0.004,0.002 0.033,0.022 0.062,0.043c0.31,0.219 0.722,0.262 1.084,0.113c0.156,-0.065 0.308,-0.176 0.425,-0.31c0.065,-0.075 0.141,-0.199 0.185,-0.3c0.01,-0.025 0.011,-0.025 0.027,-0.017c0.094,0.044 0.333,0.116 0.449,0.134c0.349,0.056 0.688,0.024 1.008,-0.093c0.499,-0.183 0.91,-0.569 1.119,-1.05c0.057,-0.131 0.108,-0.295 0.131,-0.422Zm-0.385,0.198c-0.096,0.264 -0.251,0.491 -0.461,0.674c-0.47,0.41 -1.123,0.517 -1.702,0.277c-0.111,-0.046 -0.101,-0.035 -0.1,-0.11c0.006,-0.282 -0.093,-0.555 -0.278,-0.768c-0.042,-0.048 -0.164,-0.162 -0.177,-0.166c-0.003,0 -0.005,-0.024 -0.004,-0.052c0.002,-0.108 -0.019,-0.247 -0.055,-0.357c-0.059,-0.183 -0.152,-0.331 -0.303,-0.481l-0.023,-0.022l0.023,-0.066c0.106,-0.313 0.293,-0.575 0.559,-0.781c0.083,-0.064 0.273,-0.172 0.367,-0.209c0.294,-0.118 0.587,-0.15 0.889,-0.1c0.737,0.124 1.292,0.728 1.356,1.476c0.02,0.222 -0.014,0.471 -0.091,0.685Zm-2.633,0.648c-0.005,0.003 -0.068,-0.058 -0.118,-0.115c-0.032,-0.036 -0.115,-0.139 -0.115,-0.142c0.003,-0.009 0.053,-0.103 0.055,-0.105c0.003,-0.002 0.021,0.005 0.042,0.015c0.096,0.047 0.157,0.145 0.157,0.253c0,0.031 -0.013,0.09 -0.021,0.094Zm-0.323,0.17c-0.039,-0.011 -0.088,-0.039 -0.12,-0.068c-0.048,-0.044 -0.047,-0.042 -0.018,-0.07c0.014,-0.013 0.027,-0.023 0.028,-0.023c0.001,0.001 0.017,0.019 0.034,0.041c0.018,0.022 0.05,0.058 0.07,0.08c0.02,0.022 0.037,0.041 0.036,0.044c-0.001,0.002 -0.014,0 -0.03,-0.004Zm-0.113,-0.923c-0.009,0.013 -0.018,0.023 -0.02,0.022c-0.004,-0.001 -0.032,-0.105 -0.044,-0.166c-0.012,-0.064 -0.021,-0.134 -0.025,-0.198c-0.004,-0.068 -0.006,-0.067 0.048,-0.02c0.054,0.047 0.089,0.129 0.09,0.209c0,0.04 -0.025,0.12 -0.049,0.153Zm-0.356,0.087c-0.011,-0.006 -0.035,-0.023 -0.054,-0.04c-0.056,-0.05 -0.094,-0.137 -0.091,-0.212c0.002,-0.061 0.037,-0.147 0.072,-0.182c0.014,-0.012 0.024,-0.015 0.02,-0.004c-0.007,0.026 0.037,0.303 0.062,0.395c0.007,0.023 0.012,0.044 0.011,0.047c0,0.002 -0.01,0 -0.02,-0.004Z" style="fill:#0ff;fill-rule:nonzero;"/><path d="M7.744,4.795c-0.45,-0.57 -1.164,-0.842 -1.877,-0.716c-0.466,0.082 -0.902,0.346 -1.193,0.722c-0.405,0.523 -0.518,1.219 -0.299,1.844c0.028,0.081 0.08,0.201 0.113,0.261c0.039,0.069 0.041,0.06 -0.023,0.092c-0.422,0.212 -0.669,0.671 -0.613,1.144c0.021,0.168 0.07,0.309 0.163,0.466l0.042,0.071l-0.034,0.1c-0.019,0.054 -0.054,0.163 -0.078,0.242l-0.044,0.143l0.012,0.026c0.048,0.098 0.041,0.209 -0.015,0.283c-0.04,0.053 -0.118,0.104 -0.198,0.131l-0.029,0.009l0.011,0.024c0.06,0.127 0.036,0.284 -0.06,0.393c-0.032,0.037 -0.121,0.095 -0.171,0.113c-0.02,0.007 -0.036,0.013 -0.036,0.014c0,0 0.007,0.026 0.014,0.056c0.021,0.077 0.024,0.131 0.01,0.196c-0.021,0.098 -0.067,0.16 -0.165,0.218l-0.059,0.036l0.004,0.162c0.004,0.216 0.012,0.388 0.018,0.386c0.022,-0.006 0.244,-0.094 0.303,-0.119l0.076,-0.033l0.081,-0.128c0.077,-0.122 0.338,-0.533 0.594,-0.933c0.143,-0.224 0.461,-0.728 0.509,-0.805l0.034,-0.057l0.069,0.005c0.127,0.008 0.249,-0.004 0.372,-0.037c0.031,-0.008 0.056,-0.014 0.056,-0.012c0,0.002 -0.022,0.009 -0.048,0.017c-0.026,0.007 -0.048,0.015 -0.048,0.017c-0.001,0.003 0.019,0.024 0.044,0.046l0.046,0.042l-0.002,0.119c-0.002,0.066 -0.003,0.18 -0.003,0.252c0.001,0.124 0.002,0.134 0.015,0.147c0.009,0.008 0.027,0.033 0.042,0.056c0.057,0.089 0.06,0.182 0.007,0.27c-0.027,0.047 -0.065,0.087 -0.115,0.126c-0.034,0.025 -0.038,0.03 -0.031,0.035c0.016,0.011 0.065,0.082 0.078,0.115c0.008,0.018 0.017,0.056 0.022,0.083c0.019,0.134 -0.03,0.252 -0.147,0.353l-0.041,0.035l0.035,0.059c0.061,0.104 0.077,0.184 0.055,0.276c-0.014,0.056 -0.052,0.124 -0.092,0.163c-0.045,0.042 -0.044,0.038 -0.022,0.103c0.078,0.23 0.158,0.458 0.161,0.458c0.006,0.002 0.194,-0.14 0.261,-0.197c0.059,-0.05 0.07,-0.061 0.074,-0.077c0.029,-0.116 0.163,-0.613 0.395,-1.463c0.055,-0.201 0.12,-0.441 0.144,-0.533c0.027,-0.102 0.047,-0.168 0.053,-0.169c0.004,-0.001 0.038,-0.01 0.073,-0.018c0.369,-0.088 0.673,-0.371 0.799,-0.741c0.054,-0.159 0.071,-0.347 0.047,-0.523c-0.013,-0.099 -0.056,-0.238 -0.103,-0.337c-0.012,-0.025 -0.012,-0.025 0.005,-0.032c0.095,-0.042 0.307,-0.174 0.397,-0.249c0.272,-0.226 0.472,-0.501 0.594,-0.82c0.192,-0.495 0.172,-1.059 -0.052,-1.533c-0.061,-0.129 -0.15,-0.276 -0.23,-0.377Zm-0.105,0.421c0.134,0.246 0.203,0.512 0.202,0.791c-0.001,0.623 -0.351,1.184 -0.913,1.462c-0.108,0.053 -0.093,0.052 -0.148,0.002c-0.208,-0.19 -0.479,-0.295 -0.761,-0.297c-0.064,0 -0.23,0.017 -0.242,0.024c-0.002,0.002 -0.022,-0.012 -0.042,-0.031c-0.08,-0.073 -0.199,-0.149 -0.304,-0.195c-0.177,-0.076 -0.349,-0.103 -0.561,-0.089l-0.032,0.003l-0.035,-0.06c-0.166,-0.287 -0.239,-0.601 -0.219,-0.936c0.007,-0.104 0.051,-0.319 0.084,-0.413c0.106,-0.299 0.274,-0.541 0.512,-0.735c0.578,-0.473 1.398,-0.492 2.003,-0.047c0.18,0.131 0.346,0.321 0.456,0.521Zm-1.249,2.406c-0.001,0.006 -0.088,0.013 -0.164,0.014c-0.048,0 -0.181,-0.006 -0.183,-0.008c-0.005,-0.008 -0.043,-0.107 -0.042,-0.111c0,-0.002 0.018,-0.012 0.038,-0.021c0.099,-0.042 0.213,-0.023 0.294,0.049c0.023,0.02 0.06,0.069 0.057,0.077Zm-0.085,0.355c-0.034,0.023 -0.087,0.041 -0.131,0.046c-0.064,0.007 -0.062,0.007 -0.063,-0.033c-0.001,-0.019 0,-0.035 0.001,-0.036c0.001,0 0.025,0 0.053,0.001c0.029,0.001 0.076,0.001 0.106,0c0.03,0 0.055,0 0.057,0.002c0.001,0.002 -0.009,0.011 -0.023,0.02Zm-0.768,-0.523c0.004,0.015 0.005,0.028 0.003,0.03c-0.004,0.002 -0.1,-0.046 -0.153,-0.077c-0.057,-0.033 -0.116,-0.073 -0.166,-0.111c-0.054,-0.042 -0.055,-0.041 0.017,-0.05c0.071,-0.01 0.155,0.018 0.215,0.07c0.031,0.027 0.074,0.098 0.084,0.138Zm-0.17,0.325c-0.012,0.004 -0.041,0.011 -0.065,0.014c-0.075,0.01 -0.166,-0.02 -0.22,-0.071c-0.044,-0.042 -0.086,-0.125 -0.089,-0.174c0,-0.019 0.004,-0.028 0.01,-0.018c0.015,0.022 0.252,0.172 0.338,0.214c0.022,0.01 0.041,0.02 0.042,0.023c0.002,0.001 -0.006,0.007 -0.016,0.012Z" style="fill:#0ff;fill-rule:nonzero;"/><path d="M6.073,4.078c-0.723,0.063 -1.342,0.51 -1.629,1.175c-0.187,0.435 -0.205,0.944 -0.051,1.394c0.215,0.626 0.735,1.102 1.377,1.262c0.084,0.021 0.212,0.044 0.28,0.049c0.08,0.006 0.073,-0.002 0.065,0.069c-0.055,0.47 0.194,0.928 0.62,1.14c0.151,0.076 0.296,0.112 0.479,0.121l0.082,0.003l0.065,0.083c0.035,0.046 0.107,0.136 0.16,0.199l0.095,0.115l0.028,0.003c0.109,0.015 0.198,0.081 0.228,0.169c0.023,0.062 0.023,0.155 0.001,0.237l-0.008,0.03l0.027,0.004c0.138,0.019 0.256,0.125 0.295,0.265c0.013,0.048 0.013,0.154 0,0.205c-0.004,0.021 -0.008,0.038 -0.008,0.038c0.001,0 0.026,0.009 0.056,0.019c0.075,0.025 0.121,0.052 0.168,0.099c0.071,0.072 0.097,0.144 0.092,0.258l-0.003,0.069l0.138,0.086c0.183,0.114 0.331,0.202 0.333,0.197c0.007,-0.022 0.056,-0.256 0.067,-0.319l0.014,-0.081l-0.063,-0.139c-0.06,-0.131 -0.259,-0.575 -0.454,-1.008c-0.109,-0.243 -0.355,-0.786 -0.393,-0.868l-0.029,-0.06l0.042,-0.055c0.076,-0.101 0.133,-0.21 0.173,-0.331c0.01,-0.03 0.019,-0.054 0.021,-0.053c0.001,0.001 -0.004,0.023 -0.012,0.049c-0.009,0.026 -0.014,0.048 -0.012,0.05c0.001,0.002 0.03,-0.003 0.062,-0.012l0.06,-0.015l0.099,0.068c0.054,0.037 0.149,0.1 0.209,0.14c0.104,0.067 0.113,0.072 0.131,0.068c0.012,-0.003 0.043,-0.004 0.069,-0.004c0.106,0 0.186,0.049 0.231,0.142c0.024,0.049 0.037,0.102 0.041,0.166c0.003,0.041 0.005,0.048 0.013,0.044c0.018,-0.007 0.104,-0.009 0.139,-0.002c0.019,0.003 0.056,0.016 0.081,0.028c0.123,0.057 0.195,0.163 0.215,0.316l0.006,0.053l0.069,0.004c0.12,0.005 0.196,0.036 0.261,0.105c0.039,0.042 0.075,0.112 0.086,0.167c0.01,0.06 0.007,0.057 0.074,0.074c0.235,0.061 0.469,0.12 0.471,0.117c0.005,-0.004 -0.011,-0.239 -0.021,-0.326c-0.01,-0.077 -0.013,-0.092 -0.025,-0.104c-0.08,-0.087 -0.423,-0.473 -1.005,-1.133c-0.139,-0.157 -0.304,-0.342 -0.367,-0.413c-0.07,-0.079 -0.114,-0.132 -0.112,-0.137c0.001,-0.005 0.012,-0.037 0.025,-0.071c0.129,-0.357 0.06,-0.766 -0.18,-1.075c-0.104,-0.133 -0.252,-0.25 -0.412,-0.327c-0.09,-0.042 -0.23,-0.083 -0.338,-0.098c-0.028,-0.004 -0.028,-0.004 -0.025,-0.022c0.018,-0.102 0.023,-0.352 0.01,-0.469c-0.04,-0.35 -0.16,-0.669 -0.359,-0.946c-0.309,-0.432 -0.79,-0.725 -1.31,-0.798c-0.142,-0.02 -0.313,-0.026 -0.442,-0.014Zm0.294,0.318c0.28,0.023 0.54,0.112 0.773,0.265c0.52,0.343 0.797,0.944 0.72,1.566c-0.014,0.12 -0.006,0.107 -0.079,0.125c-0.273,0.07 -0.51,0.238 -0.666,0.473c-0.035,0.054 -0.112,0.202 -0.112,0.216c0,0.003 -0.023,0.011 -0.049,0.017c-0.106,0.027 -0.234,0.085 -0.331,0.148c-0.16,0.106 -0.277,0.235 -0.382,0.42l-0.015,0.028l-0.07,-0.004c-0.33,-0.018 -0.633,-0.129 -0.901,-0.33c-0.084,-0.063 -0.24,-0.218 -0.3,-0.297c-0.192,-0.253 -0.301,-0.526 -0.333,-0.831c-0.078,-0.743 0.356,-1.439 1.06,-1.701c0.209,-0.078 0.458,-0.112 0.685,-0.095Zm1.327,2.365c0.004,0.004 -0.038,0.081 -0.079,0.145c-0.027,0.04 -0.104,0.148 -0.107,0.148c-0.009,0 -0.113,-0.023 -0.116,-0.025c-0.002,-0.002 0,-0.022 0.004,-0.044c0.019,-0.106 0.097,-0.191 0.202,-0.219c0.029,-0.008 0.09,-0.011 0.096,-0.005Zm0.25,0.266c0,0.041 -0.014,0.095 -0.034,0.134c-0.03,0.058 -0.028,0.057 -0.062,0.035c-0.017,-0.009 -0.03,-0.019 -0.03,-0.02c0,-0.001 0.014,-0.021 0.03,-0.044c0.017,-0.023 0.043,-0.063 0.059,-0.088c0.016,-0.026 0.03,-0.047 0.032,-0.047c0.003,0 0.005,0.014 0.005,0.03Zm-0.86,0.355c0.015,0.005 0.027,0.011 0.027,0.014c0,0.004 -0.093,0.058 -0.148,0.086c-0.059,0.029 -0.124,0.056 -0.184,0.077c-0.065,0.022 -0.064,0.024 -0.032,-0.041c0.03,-0.065 0.1,-0.12 0.176,-0.142c0.039,-0.011 0.123,-0.008 0.161,0.006Zm0.179,0.32c-0.003,0.012 -0.013,0.04 -0.024,0.062c-0.033,0.068 -0.107,0.128 -0.18,0.145c-0.06,0.014 -0.152,0.004 -0.194,-0.021c-0.016,-0.01 -0.021,-0.019 -0.01,-0.019c0.027,0 0.282,-0.115 0.364,-0.164c0.021,-0.013 0.04,-0.023 0.043,-0.023c0.002,-0.001 0.002,0.009 0.001,0.02Z" style="fill:#0ff;fill-rule:nonzero;"/></g></svg>