<?xml version="1.0" encoding="UTF-8" standalone="no"?><!DOCTYPE svg PUBLIC "-//W3C//DTD SVG 1.1//EN" "http://www.w3.org/Graphics/SVG/1.1/DTD/svg11.dtd"><svg width="100%" height="100%" viewBox="0 0 1920 1080" version="1.1" xmlns="http://www.w3.org/2000/svg" xmlns:xlink="http://www.w3.org/1999/xlink" xml:space="preserve" xmlns:serif="http://www.serif.com/" style="fill-rule:evenodd;clip-rule:evenodd;stroke-linejoin:round;stroke-miterlimit:1.41421;"><rect x="-5" y="0" width="1925" height="1116" style="fill:#bb76e8;"/><rect x="-63" y="1014" width="2039" height="548" style="fill:#da6b7c;"/><ellipse cx="1933.02" cy="1054.9" rx="1132.5" ry="290.5" style="fill:#e1488c;"/><ellipse cx="996.961" cy="1351.5" rx="496" ry="397.5" style="fill:#d23a7f;"/><ellipse cx="239.058" cy="1149.77" rx="1132.5" ry="290.5" style="fill:#bb76e8;"/><ellipse cx="238.5" cy="1159.5" rx="1132.5" ry="290.5" style="fill:#e1488c;"/><g opacity="0.92"><path d="M1549.12,723.426l-22.921,31.586l15.628,0l-14.586,17.008l17.711,0l-14.585,17.007l14.585,0l0,17.008l11.461,0l0,-17.008l13.544,0l-14.586,-17.007l14.586,0l-13.544,-15.793l13.544,0l-20.837,-32.801Z" style="fill:#9951a6;"/><path d="M1361.33,741.071l-22.92,31.586l15.627,0l-14.586,17.007l17.712,0l-14.586,17.008l14.586,0l0,17.007l11.46,0l0,-17.007l13.544,0l-14.586,-17.008l14.586,0l-13.544,-15.793l13.544,0l-20.837,-32.8Z" style="fill:#9951a6;"/><path d="M1460.7,735.457l-22.921,31.585l15.628,0l-14.586,17.008l17.711,0l-14.586,17.008l14.586,0l0,17.007l11.461,0l0,-17.007l13.544,0l-14.586,-17.008l14.586,0l-13.544,-15.793l13.544,0l-20.837,-32.8Z" style="fill:#9951a6;"/><path d="M1297.18,761l-24.185,37.807l16.49,0l-15.391,20.358l18.689,0l-15.391,20.357l15.391,0l0,20.358l12.092,0l0,-20.358l14.291,0l-15.39,-20.357l15.39,0l-14.291,-18.904l14.291,0l-21.986,-39.261Z" style="fill:#9d5aa9;"/><path d="M1365.48,808.04l-24.185,37.807l16.49,0l-15.39,20.358l18.688,0l-15.39,20.357l15.39,0l0,20.358l12.093,0l0,-20.358l14.291,0l-15.391,-20.357l15.391,0l-14.291,-18.904l14.291,0l-21.987,-39.261Z" style="fill:#9d5aa9;"/><path d="M1327,854.12l-24.185,37.807l16.49,0l-15.391,20.358l18.689,0l-15.391,20.357l15.391,0l0,20.358l12.092,0l0,-20.358l14.291,0l-15.39,-20.357l15.39,0l-14.291,-18.904l14.291,0l-21.986,-39.261Z" style="fill:#9d5aa9;"/><path d="M382.025,838.873l-28.906,30.563l17.909,1.163l-18.136,16.29l20.297,1.317l-18.136,16.29l16.715,1.085l-1.42,17.375l13.133,0.852l1.421,-17.375l15.521,1.008l-15.294,-18.46l16.715,1.085l-14.202,-17.142l15.522,1.008l-21.139,-35.059Z" style="fill:#9d5aa9;"/><path d="M1402.03,754.28l-24.185,37.807l16.489,0l-15.39,20.358l18.688,0l-15.39,20.357l15.39,0l0,20.358l12.093,0l0,-20.358l14.291,0l-15.39,-20.357l15.39,0l-14.291,-18.904l14.291,0l-21.986,-39.261Z" style="fill:#9951a6;"/><path d="M1470.33,801.32l-24.185,37.807l16.49,0l-15.391,20.358l18.689,0l-15.391,20.357l15.391,0l0,20.358l12.092,0l0,-20.358l14.291,0l-15.39,-20.357l15.39,0l-14.291,-18.904l14.291,0l-21.986,-39.261Z" style="fill:#9d5aa9;"/><path d="M1431.85,847.4l-24.185,37.807l16.489,0l-15.39,20.358l18.688,0l-15.39,20.357l15.39,0l0,20.358l12.093,0l0,-20.358l14.291,0l-15.39,-20.357l15.39,0l-14.291,-18.904l14.291,0l-21.986,-39.261Z" style="fill:#9d5aa9;"/><path d="M496.367,840.527l-28.906,30.564l17.91,1.162l-18.137,16.29l20.298,1.317l-18.137,16.29l16.716,1.085l-1.421,17.375l13.133,0.852l1.421,-17.375l15.521,1.008l-15.294,-18.46l16.715,1.085l-14.202,-17.142l15.522,1.008l-21.139,-35.059Z" style="fill:#9d5aa9;"/><path d="M331.694,910.774l-29.594,35.127l18.335,1.336l-18.568,18.723l20.781,1.514l-18.568,18.723l17.113,1.246l-1.455,19.97l13.447,0.98l1.454,-19.97l15.891,1.158l-15.658,-21.217l17.113,1.247l-14.54,-19.701l15.891,1.158l-21.642,-40.294Z" style="fill:#9d5aa9;"/><path d="M138.694,946.774l-29.594,35.127l18.335,1.336l-18.568,18.723l20.781,1.514l-18.568,18.723l17.113,1.246l-1.455,19.97l13.447,0.98l1.454,-19.97l15.891,1.158l-15.658,-21.217l17.113,1.247l-14.54,-19.701l15.891,1.158l-21.642,-40.294Z" style="fill:#aa62b6;"/><path d="M102.694,878.774l-29.594,35.127l18.335,1.336l-18.568,18.723l20.781,1.514l-18.568,18.723l17.113,1.246l-1.455,19.97l13.447,0.98l1.454,-19.97l15.891,1.158l-15.658,-21.217l17.113,1.247l-14.54,-19.701l15.891,1.158l-21.642,-40.294Z" style="fill:#9d5aa9;"/><path d="M587.694,955.774l-29.594,35.127l18.335,1.336l-18.568,18.723l20.781,1.514l-18.568,18.723l17.113,1.246l-1.455,19.97l13.447,0.98l1.454,-19.97l15.891,1.158l-15.658,-21.217l17.113,1.247l-14.54,-19.701l15.891,1.158l-21.642,-40.294Z" style="fill:#aa62b6;"/><path d="M1541.69,949.774l-29.594,35.127l18.335,1.336l-18.568,18.723l20.781,1.514l-18.568,18.723l17.113,1.246l-1.455,19.97l13.447,0.98l1.454,-19.97l15.891,1.158l-15.658,-21.217l17.113,1.247l-14.54,-19.701l15.891,1.158l-21.642,-40.294Z" style="fill:#aa62b6;"/><path d="M1536.7,840.68l-24.185,37.807l16.49,0l-15.39,20.358l18.688,0l-15.39,20.357l15.39,0l0,20.358l12.093,0l0,-20.358l14.291,0l-15.391,-20.357l15.391,0l-14.291,-18.904l14.291,0l-21.987,-39.261Z" style="fill:#9d5aa9;"/><path d="M610.709,842.181l-28.906,30.564l17.91,1.162l-18.136,16.29l20.297,1.317l-18.137,16.291l16.716,1.084l-1.421,17.375l13.133,0.853l1.421,-17.375l15.522,1.007l-15.295,-18.46l16.716,1.085l-14.202,-17.141l15.521,1.007l-21.139,-35.059Z" style="fill:#9d5aa9;"/><path d="M1758.8,718.614l-22.92,31.586l15.627,0l-14.585,17.007l17.711,0l-14.586,17.008l14.586,0l0,17.008l11.46,0l0,-17.008l13.544,0l-14.585,-17.008l14.585,0l-13.544,-15.792l13.544,0l-20.837,-32.801Z" style="fill:#9951a6;"/><path d="M1597.44,757.111l-22.921,31.586l15.628,0l-14.586,17.008l17.711,0l-14.586,17.007l14.586,0l0,17.008l11.461,0l0,-17.008l13.544,0l-14.586,-17.007l14.586,0l-13.544,-15.793l13.544,0l-20.837,-32.801Z" style="fill:#9951a6;"/><path d="M1680.02,787.88l-24.185,37.807l16.49,0l-15.391,20.358l18.689,0l-15.391,20.357l15.391,0l0,20.358l12.092,0l0,-20.358l14.292,0l-15.391,-20.357l15.391,0l-14.292,-18.904l14.292,0l-21.987,-39.261Z" style="fill:#9d5aa9;"/><path d="M1641.55,833.96l-24.185,37.807l16.49,0l-15.391,20.358l18.689,0l-15.391,20.357l15.391,0l0,20.358l12.092,0l0,-20.358l14.291,0l-15.39,-20.357l15.39,0l-14.291,-18.904l14.291,0l-21.986,-39.261Z" style="fill:#9d5aa9;"/><path d="M725.051,843.835l-28.905,30.564l17.909,1.162l-18.136,16.29l20.297,1.317l-18.136,16.291l16.715,1.084l-1.421,17.375l13.134,0.853l1.42,-17.375l15.522,1.007l-15.295,-18.46l16.716,1.085l-14.202,-17.141l15.521,1.007l-21.139,-35.059Z" style="fill:#9d5aa9;"/><path d="M1858.16,713l-22.921,31.586l15.628,0l-14.586,17.007l17.712,0l-14.586,17.008l14.586,0l0,17.008l11.46,0l0,-17.008l13.544,0l-14.586,-17.008l14.586,0l-13.544,-15.793l13.544,0l-20.837,-32.8Z" style="fill:#9951a6;"/><path d="M1716.86,749.893l-22.921,31.586l15.628,0l-14.586,17.007l17.712,0l-14.586,17.008l14.586,0l0,17.008l11.46,0l0,-17.008l13.544,0l-14.586,-17.008l14.586,0l-13.544,-15.792l13.544,0l-20.837,-32.801Z" style="fill:#9951a6;"/><path d="M1746.39,827.24l-24.185,37.807l16.489,0l-15.39,20.358l18.688,0l-15.39,20.357l15.39,0l0,20.358l12.093,0l0,-20.358l14.291,0l-15.391,-20.357l15.391,0l-14.291,-18.904l14.291,0l-21.986,-39.261Z" style="fill:#9d5aa9;"/><path d="M839.394,845.489l-28.906,30.564l17.909,1.162l-18.136,16.29l20.297,1.317l-18.136,16.291l16.715,1.084l-1.421,17.375l13.134,0.853l1.421,-17.375l15.521,1.007l-15.294,-18.46l16.715,1.085l-14.202,-17.141l15.521,1.007l-21.138,-35.059Z" style="fill:#9d5aa9;"/><path d="M682.89,916.477l-29.594,35.128l18.336,1.335l-18.568,18.723l20.78,1.514l-18.568,18.723l17.113,1.247l-1.454,19.969l13.446,0.98l1.455,-19.97l15.891,1.158l-15.659,-21.216l17.113,1.246l-14.54,-19.701l15.891,1.158l-21.642,-40.294Z" style="fill:#9d5aa9;"/><path d="M489.89,952.477l-29.594,35.128l18.336,1.335l-18.568,18.723l20.78,1.514l-18.568,18.723l17.113,1.247l-1.454,19.969l13.446,0.98l1.455,-19.97l15.891,1.158l-15.659,-21.216l17.113,1.246l-14.54,-19.701l15.891,1.158l-21.642,-40.294Z" style="fill:#aa62b6;"/><path d="M453.89,884.477l-29.594,35.128l18.336,1.335l-18.568,18.723l20.78,1.514l-18.568,18.723l17.113,1.247l-1.454,19.969l13.446,0.98l1.455,-19.97l15.891,1.158l-15.659,-21.216l17.113,1.246l-14.54,-19.701l15.891,1.158l-21.642,-40.294Z" style="fill:#9d5aa9;"/><path d="M938.89,961.477l-29.594,35.128l18.336,1.335l-18.568,18.723l20.78,1.514l-18.568,18.723l17.113,1.247l-1.454,19.969l13.446,0.98l1.455,-19.97l15.891,1.158l-15.659,-21.216l17.113,1.246l-14.54,-19.701l15.891,1.158l-21.642,-40.294Z" style="fill:#aa62b6;"/><path d="M1892.89,955.477l-29.594,35.128l18.336,1.335l-18.568,18.723l20.78,1.514l-18.568,18.723l17.113,1.247l-1.454,19.969l13.446,0.98l1.455,-19.97l15.891,1.158l-15.659,-21.216l17.113,1.246l-14.54,-19.701l15.891,1.158l-21.642,-40.294Z" style="fill:#aa62b6;"/><path d="M1160.14,750l-25.143,39.382l17.143,0l-16,21.206l19.428,0l-16,21.206l16,0l0,21.206l12.572,0l0,-21.206l14.857,0l-16,-21.206l16,0l-14.857,-19.691l14.857,0l-22.857,-40.897Z" style="fill:#9d5aa9;"/><path d="M983.143,798l-25.143,39.382l17.143,0l-16,21.206l19.428,0l-16,21.206l16,0l0,21.206l12.572,0l0,-21.206l14.857,0l-16,-21.206l16,0l-14.857,-19.691l14.857,0l-22.857,-40.897Z" style="fill:#9d5aa9;"/><path d="M1083.14,823l-25.143,39.382l17.143,0l-16,21.206l19.428,0l-16,21.206l16,0l0,21.206l12.572,0l0,-21.206l14.857,0l-16,-21.206l16,0l-14.857,-19.691l14.857,0l-22.857,-40.897Z" style="fill:#9d5aa9;"/><path d="M1014.14,895l-25.143,39.382l17.143,0l-16,21.206l19.428,0l-16,21.206l16,0l0,21.206l12.572,0l0,-21.206l14.857,0l-16,-21.206l16,0l-14.857,-19.691l14.857,0l-22.857,-40.897Z" style="fill:#9d5aa9;"/><path d="M49.927,854.389l-28.906,30.563l17.909,1.162l-18.136,16.291l20.297,1.317l-18.136,16.29l16.715,1.085l-1.421,17.375l13.134,0.852l1.421,-17.375l15.521,1.007l-15.294,-18.459l16.715,1.084l-14.202,-17.141l15.521,1.007l-21.138,-35.058Z" style="fill:#9d5aa9;"/></g><clipPath id="_clip1"><path d="M2033.3,1438.39l-34.441,-1478.54l-2514.7,58.577l34.441,1478.54l2514.7,-58.577Z"/></clipPath></svg>