<?xml version="1.0" encoding="UTF-8" standalone="no"?><!DOCTYPE svg PUBLIC "-//W3C//DTD SVG 1.1//EN" "http://www.w3.org/Graphics/SVG/1.1/DTD/svg11.dtd"><svg width="100%" height="100%" viewBox="0 0 1920 1080" version="1.1" xmlns="http://www.w3.org/2000/svg" xmlns:xlink="http://www.w3.org/1999/xlink" xml:space="preserve" xmlns:serif="http://www.serif.com/" style="fill-rule:evenodd;clip-rule:evenodd;stroke-linejoin:round;stroke-miterlimit:1.41421;"><rect x="-63" y="1014" width="2039" height="548" style="fill:#da6b7c;"/><ellipse cx="1933.02" cy="1054.9" rx="1132.5" ry="290.5" style="fill:#ff342e;"/><ellipse cx="996.961" cy="1351.5" rx="496" ry="397.5" style="fill:#8a1800;"/><ellipse cx="239.058" cy="1149.77" rx="1132.5" ry="290.5" style="fill:#ff7300;"/><ellipse cx="238.5" cy="1159.5" rx="1132.5" ry="290.5" style="fill:#ff342e;"/><g><path d="M1549.12,723.426l-22.921,31.586l15.628,0l-14.586,17.008l17.711,0l-14.585,17.007l14.585,0l0,17.008l11.461,0l0,-17.008l13.544,0l-14.586,-17.007l14.586,0l-13.544,-15.793l13.544,0l-20.837,-32.801Z" style="fill:#8a1800;"/><path d="M1460.7,735.457l-22.921,31.585l15.628,0l-14.586,17.008l17.711,0l-14.586,17.008l14.586,0l0,17.007l11.461,0l0,-17.007l13.544,0l-14.586,-17.008l14.586,0l-13.544,-15.793l13.544,0l-20.837,-32.8Z" style="fill:#8a1800;"/><path d="M1365.48,808.04l-24.185,37.807l16.49,0l-15.39,20.358l18.688,0l-15.39,20.357l15.39,0l0,20.358l12.093,0l0,-20.358l14.291,0l-15.391,-20.357l15.391,0l-14.291,-18.904l14.291,0l-21.987,-39.261Z" style="fill:#8a1800;"/><path d="M382.025,838.873l-28.906,30.563l17.909,1.163l-18.136,16.29l20.297,1.317l-18.136,16.29l16.715,1.085l-1.42,17.375l13.133,0.852l1.421,-17.375l15.521,1.008l-15.294,-18.46l16.715,1.085l-14.202,-17.142l15.522,1.008l-21.139,-35.059Z" style="fill:#8a1800;"/><path d="M1470.33,801.32l-24.185,37.807l16.49,0l-15.391,20.358l18.689,0l-15.391,20.357l15.391,0l0,20.358l12.092,0l0,-20.358l14.291,0l-15.39,-20.357l15.39,0l-14.291,-18.904l14.291,0l-21.986,-39.261Z" style="fill:#8a1800;"/><path d="M496.367,840.527l-28.906,30.564l17.91,1.162l-18.137,16.29l20.298,1.317l-18.137,16.29l16.716,1.085l-1.421,17.375l13.133,0.852l1.421,-17.375l15.521,1.008l-15.294,-18.46l16.715,1.085l-14.202,-17.142l15.522,1.008l-21.139,-35.059Z" style="fill:#8a1800;"/><path d="M138.694,946.774l-29.594,35.127l18.335,1.336l-18.568,18.723l20.781,1.514l-18.568,18.723l17.113,1.246l-1.455,19.97l13.447,0.98l1.454,-19.97l15.891,1.158l-15.658,-21.217l17.113,1.247l-14.54,-19.701l15.891,1.158l-21.642,-40.294Z" style="fill:#8a1800;"/><path d="M587.694,955.774l-29.594,35.127l18.335,1.336l-18.568,18.723l20.781,1.514l-18.568,18.723l17.113,1.246l-1.455,19.97l13.447,0.98l1.454,-19.97l15.891,1.158l-15.658,-21.217l17.113,1.247l-14.54,-19.701l15.891,1.158l-21.642,-40.294Z" style="fill:#8a1800;"/><path d="M1536.7,840.68l-24.185,37.807l16.49,0l-15.39,20.358l18.688,0l-15.39,20.357l15.39,0l0,20.358l12.093,0l0,-20.358l14.291,0l-15.391,-20.357l15.391,0l-14.291,-18.904l14.291,0l-21.987,-39.261Z" style="fill:#8a1800;"/><path d="M1758.8,718.614l-22.92,31.586l15.627,0l-14.585,17.007l17.711,0l-14.586,17.008l14.586,0l0,17.008l11.46,0l0,-17.008l13.544,0l-14.585,-17.008l14.585,0l-13.544,-15.792l13.544,0l-20.837,-32.801Z" style="fill:#8a1800;"/><path d="M1680.02,787.88l-24.185,37.807l16.49,0l-15.391,20.358l18.689,0l-15.391,20.357l15.391,0l0,20.358l12.092,0l0,-20.358l14.292,0l-15.391,-20.357l15.391,0l-14.292,-18.904l14.292,0l-21.987,-39.261Z" style="fill:#8a1800;"/><path d="M725.051,843.835l-28.905,30.564l17.909,1.162l-18.136,16.29l20.297,1.317l-18.136,16.291l16.715,1.084l-1.421,17.375l13.134,0.853l1.42,-17.375l15.522,1.007l-15.295,-18.46l16.716,1.085l-14.202,-17.141l15.521,1.007l-21.139,-35.059Z" style="fill:#8a1800;"/><path d="M1716.86,749.893l-22.921,31.586l15.628,0l-14.586,17.007l17.712,0l-14.586,17.008l14.586,0l0,17.008l11.46,0l0,-17.008l13.544,0l-14.586,-17.008l14.586,0l-13.544,-15.792l13.544,0l-20.837,-32.801Z" style="fill:#8a1800;"/><path d="M1892.89,955.477l-29.594,35.128l18.336,1.335l-18.568,18.723l20.78,1.514l-18.568,18.723l17.113,1.247l-1.454,19.969l13.446,0.98l1.455,-19.97l15.891,1.158l-15.659,-21.216l17.113,1.246l-14.54,-19.701l15.891,1.158l-21.642,-40.294Z" style="fill:#8a1800;"/><path d="M983.143,798l-25.143,39.382l17.143,0l-16,21.206l19.428,0l-16,21.206l16,0l0,21.206l12.572,0l0,-21.206l14.857,0l-16,-21.206l16,0l-14.857,-19.691l14.857,0l-22.857,-40.897Z" style="fill:#8a1800;"/><path d="M1014.14,895l-25.143,39.382l17.143,0l-16,21.206l19.428,0l-16,21.206l16,0l0,21.206l12.572,0l0,-21.206l14.857,0l-16,-21.206l16,0l-14.857,-19.691l14.857,0l-22.857,-40.897Z" style="fill:#8a1800;"/></g><g id="Houses"><g><path d="M241.224,979.716l-35.175,1.576l-1.432,-26.694l7.617,-9.493l7.892,-7.034l9.88,6.074l8.815,6.424l2.403,29.147" style="fill:#7a1800;"/><path d="M199.632,985.504c0,0 38.301,-2.305 44.308,-6.019c0,0 -5,-10.272 -2.253,-19.115c0,0 -6.808,13.699 -12.132,6.262c0,0 -3.778,17.617 -12.922,4.99c0,0 -10.079,13.143 -17.001,13.882Z" style="fill:#ff7300;"/></g><g><path d="M358.715,948.142l-48.4,-1.215l0.55,-38.763l-10.175,0l32.725,-18.029l33.275,15.599l-8.525,0l0.55,42.408" style="fill:#7a1800;"/><path d="M301.115,952.383c0,0 52.758,0.47 61.348,-4.307c0,0 -5.085,-6.578 -0.484,-19.098c0,0 -9.257,19.242 -15.859,7.954c0,0 -9.021,16.233 -20.375,-2.945c0,0 -15.064,18.014 -24.63,18.396Z" style="fill:#ff7300;"/><path d="M331.746,895.487c0,0 20.073,7.193 23.987,6.512c0,0 -1.066,-3.186 2.354,-7.353c0,0 -6.091,6.113 -7.11,0.927c0,0 -5.601,4.996 -7.385,-3.833c0,0 -8.144,4.873 -11.846,3.747Z" style="fill:#ff7300;"/></g><g><path d="M1307.37,941.807l-32.267,-2.946l0.367,-94.003l7.216,-4l17,-3.893l7.317,2l0.367,102.842" style="fill:#7a1800;"/><path d="M1268.97,952.092c0,0 35.172,1.141 40.898,-10.443c0,0 -8.39,-11.953 -5.322,-42.315c0,0 -7.172,47.662 -11.574,20.288c0,0 -6.013,46.367 -13.582,-0.141c0,0 -4.043,31.687 -10.42,32.611Z" style="fill:#ff7300;"/></g><g><path d="M1574.34,1008.44l-59.4,-1.2l0.675,-38.28l-12.487,0l40.162,-17.804l40.838,15.405l-10.463,0l0.675,41.879" style="fill:#7a1800;"/><path d="M1503.65,1012.62c0,0 64.748,0.465 75.29,-4.253c0,0 -17.24,-6.496 -11.594,-18.86c0,0 -10.361,20.002 -18.464,8.855c0,0 -7.76,-0.358 -14.005,-10.908c0,0 -19.487,24.79 -31.227,25.166Z" style="fill:#ff7300;"/><path d="M1540.5,956.519c0,0 -20.905,10.905 -24.923,11.108c0,0 4.749,-4.995 1.335,-8.113c0,0 3.875,3.528 7.114,-0.161c0,0 5.272,-1.563 5.114,-6.459c0,0 7.51,5.451 11.36,3.625Z" style="fill:#ff7300;"/></g><g><path d="M1870.8,811.962l-34.489,-6.898l5.102,-26.87l-7.282,-1.272l25.609,-8.437l21.918,15.003l-6.101,-1.066l-4.757,29.54" style="fill:#7a1800;"/><path d="M1870.56,773.36c0,0 -27.92,5.365 -33.085,3.495c0,0 1.857,-4.21 -2.181,-10.842c0,0 7.365,9.981 9.426,2.963c0,0 6.856,8.304 10.43,-3.634c0,0 10.288,8.727 15.41,8.018Z" style="fill:#ff7300;"/></g><g><path d="M1761.63,1016.71l-29.31,-4.296l-1.352,-90.305l20.009,-7.87l20.435,4.237l-9.782,98.234" style="fill:#7a1800;"/><path d="M1737,922.889c0,0 21.677,4.586 26.556,-2.323c0,0 -0.273,-10.747 5.11,-30.16c0,0 -9.176,29.676 -8.767,11.39c0,0 -8.242,24.949 -7.603,-6.13c0,0 -11.235,27.318 -15.296,27.223Z" style="fill:#ff7300;"/><path d="M1729.13,1011.3c0,0 27.759,9.491 33.555,3.321c0,0 -3.093,-25.52 -0.23,-41.436c0,0 -11.955,36.05 -12.475,17.014c0,0 -10.038,33.308 -10.993,0.943c0,0 -4.701,21.137 -9.857,20.158Z" style="fill:#ff7300;"/></g><g><path d="M1214.32,959.55l-43.782,4.64l-6.297,-48.2l6.14,-11.251l27.687,-4.858l8.326,7.083l7.926,52.586" style="fill:#7a1800;"/><path d="M1163.21,972.133c0,0 47.574,-6.117 54.469,-13.14c0,0 -1.887,-14.47 -9.782,-21.652c0,0 0.039,27.067 -7.883,13.89c0,0 -15.881,15.829 -21.856,-2.068c0,0 -11.773,8.754 -14.948,22.97Z" style="fill:#ff7300;"/></g><g><path d="M421.463,951.053l44.38,1.15l1.262,-34.914l9.318,0.471l-29.147,-17.744l-31.184,12.497l7.807,0.396l-2.436,38.144" style="fill:#7a1800;"/><path d="M474.019,957.541c0,0 -48.336,-2.023 -55.985,-6.72c0,0 4.956,-5.686 1.313,-17.168c0,0 7.601,17.748 14.162,7.894c0,0 7.521,15.03 18.793,-1.706c0,0 12.974,16.913 21.717,17.7Z" style="fill:#ff7300;"/></g><g><path d="M452.214,1074.65l71.867,7.476l3.326,-34.785l15.081,1.8l-45.579,-21.924l-51.986,8.072l12.636,1.508l-5.345,37.853" style="fill:#7a1800;"/><path d="M537.134,1088.63c0,0 -78.247,-8.914 -90.468,-14.708c0,0 8.239,-4.987 2.757,-17.005c0,0 21.054,27.236 23.657,2.924c0,0 24.617,29.414 29.513,7.969c0,0 20.403,18.786 34.541,20.82Z" style="fill:#ff7300;"/></g><g><path d="M633.582,982.378l40.007,2.126l9.238,-82l-16.993,-6.302l-21.202,-3.423l-11.05,89.599" style="fill:#7a1800;"/><path d="M679.772,996.931c0,0 -43.396,-4.123 -49.249,-15.054c0,0 5.816,-13.414 5.171,-40.328c0,0 2.784,41.575 11.022,18.352c0,0 3.342,35.193 17.45,-4.249c0,0 7.854,39.545 15.606,41.279Z" style="fill:#ff7300;"/><path d="M661.121,931.145c0,0 16.845,-11.048 19.715,-17.59c0,0 -1.452,-5.319 0.347,-18.556c0,0 -3.463,20.821 -5.276,11.231c0,0 -3.309,17.83 -6.433,1.567c0,0 -5.286,20.889 -8.353,23.348Z" style="fill:#ff7300;"/></g><g><path d="M694.244,997.2l52.504,3.591l6.998,-69.04l4.988,-9.79l-27.808,-7.971l-26.988,-1.198l-0.794,9.013l-8.9,75.395" style="fill:#7a1800;"/><path d="M684.5,997.923c0,0 48.342,9.078 61.658,2.341c0,0 2.671,-11.932 20.979,-32.399c0,0 -30.163,31.113 -23.614,10.972c0,0 -26.569,26.059 -15.569,-8.182c0,0 -34.165,28.125 -43.454,27.268Z" style="fill:#ff7300;"/><path d="M684.5,997.923c0,0 48.342,9.078 61.658,2.341c0,0 2.671,-11.932 20.979,-32.399c0,0 -30.163,31.113 -23.614,10.972c0,0 -26.569,26.059 -15.569,-8.182c0,0 -34.165,28.125 -43.454,27.268Z" style="fill:#ff7300;"/></g><g><path d="M771.613,1010.36l52.531,2.674l2.648,-42.513l11.022,0.842l-33.94,-22.46l-37.35,14.336l9.234,0.706l-4.145,46.415" style="fill:#7a1800;"/><path d="M831.538,1015.18c0,0 -52.316,2.517 -61.648,-2.731c0,0 6.524,-13.229 1.525,-26.985c0,0 13.057,23.142 20.231,10.739c0,0 20.799,17.837 33.134,-3.235c0,0 -3.634,21.793 6.758,22.212Z" style="fill:#ff7300;"/></g><g><path d="M62.092,901.45l43.881,-3.341l-0.435,-42.774l22.962,-1.309l-46.974,-15.785l-37.983,18.949l18.969,-1.081l-0.42,45.341" style="fill:#7a1800;"/><path d="M116.154,848.287c0,0 -35.846,-2.853 -41.446,-6.652c0,0 3.772,-4.214 1.257,-13.093c0,0 5.35,13.778 10.382,6.42c0,0 13.336,12.696 21.978,0.203c0,0 1.352,12.284 7.829,13.122Z" style="fill:#ff7300;"/></g></g></svg>