<svg width="1030.9475585937498px" height="122.021240234375px" xmlns="http://www.w3.org/2000/svg" viewBox="-265.4737792968749 13.9893798828125 1030.9475585937498 122.021240234375" style="background: none;" preserveAspectRatio="xMidYMid"><defs><filter id="editing-crystal" x="-100%" y="-100%" width="300%" height="300%"><feMorphology operator="dilate" radius="2" in="SourceGraphic" result="border"></feMorphology><feFlood flood-color="#fff582" result="black"></feFlood><feMorphology operator="dilate" radius="2" in="SourceGraphic" result="erode"></feMorphology><feGaussianBlur in="erode" stdDeviation="4" result="blur"></feGaussianBlur><feOffset in="blur" dx="2" dy="2" result="offset"></feOffset><feComposite operator="atop" in="offset" in2="black" result="merge"></feComposite><feComposite operator="in" in="merge" in2="SourceGraphic" result="inner-shadow"></feComposite><feGaussianBlur in="SourceGraphic" stdDeviation="2.5" result="shadow1"></feGaussianBlur><feOffset in="shadow1" dx="0" dy="5" result="shadow"></feOffset><feSpecularLighting in="SourceGraphic" result="specular" surfaceScale="1.5" specularConstant="100" specularExponent="10" lighting-color="#ff0000"><fePointLight x="250" y="-300" z="-400"></fePointLight></feSpecularLighting><feGaussianBlur in="specular" stdDeviation="1" result="specular2"></feGaussianBlur><feComposite operator="in" in="specular2" in2="SourceAlpha" result="specular3"></feComposite><feMerge result="merge"><feMergeNode in="border"></feMergeNode><feMergeNode in="inner-shadow"></feMergeNode><feMergeNode in="specular3"></feMergeNode></feMerge><feComponentTransfer in="merge" result="final"><feFuncA type="linear" slope="0.9" intercept="0"></feFuncA></feComponentTransfer><feMerge><feMergeNode in="shadow"></feMergeNode><feMergeNode in="final"></feMergeNode></feMerge></filter></defs><g filter="url(#editing-crystal)"><g transform="translate(-122.03001832962036, 98.7578125)"><path d="M27.01-20.61L39.94-21.76L39.94-21.76Q35.33-11.65 35.33 0.06L35.33 0.06L35.33 0.06Q33.60 1.28 31.07 1.28L31.07 1.28L31.07 1.28Q28.54 1.28 26.94 0.10L26.94 0.10L26.94 0.10Q25.34-1.09 25.02-2.30L25.02-2.30L25.02-2.30Q23.42-0.64 20.83 0.32L20.83 0.32L20.83 0.32Q18.24 1.28 15.49 1.28L15.49 1.28L15.49 1.28Q12.74 1.28 10.34 0.38L10.34 0.38L10.34 0.38Q7.94-0.51 6.08-2.50L6.08-2.50L6.08-2.50Q1.98-6.85 1.98-15.10L1.98-15.10L1.98-15.10Q1.98-27.90 8.83-35.58L8.83-35.58L8.83-35.58Q15.87-43.52 28.35-43.52L28.35-43.52L28.35-43.52Q36.99-43.52 40.06-39.04L40.06-39.04L40.06-39.04Q41.02-37.63 41.02-35.94L41.02-35.94L41.02-35.94Q41.02-34.24 40.29-32.80L40.29-32.80L40.29-32.80Q39.55-31.36 38.40-30.21L38.40-30.21L38.40-30.21Q35.65-27.65 32.26-27.65L32.26-27.65L32.26-27.65Q30.91-27.65 29.63-28.10L29.63-28.10L29.63-28.10Q29.89-30.02 29.89-32.26L29.89-32.26L29.89-32.26Q29.89-34.50 29.73-35.52L29.73-35.52L29.73-35.52Q29.57-36.54 29.18-37.38L29.18-37.38L29.18-37.38Q28.35-39.10 26.53-39.10L26.53-39.10L26.53-39.10Q24.70-39.10 22.69-37.15L22.69-37.15L22.69-37.15Q20.67-35.20 19.07-32L19.07-32L19.07-32Q15.55-24.83 15.55-16.19L15.55-16.19L15.55-16.19Q15.55-12.22 17.09-9.41L17.09-9.41L17.09-9.41Q18.75-6.34 21.70-6.34L21.70-6.34L21.70-6.34Q22.72-6.34 23.65-6.85L23.65-6.85L23.65-6.85Q24.58-7.36 24.96-7.74L24.96-7.74L27.01-20.61ZM57.02 1.28L57.02 1.28L57.02 1.28Q42.94 1.28 42.94-11.97L42.94-11.97L42.94-11.97Q42.94-21.38 48.13-27.46L48.13-27.46L48.13-27.46Q53.63-33.92 63.17-33.92L63.17-33.92L63.17-33.92Q70.08-33.92 73.60-30.72L73.60-30.72L73.60-30.72Q77.12-27.52 77.12-20.80L77.12-20.80L77.12-20.80Q77.12-10.56 71.62-4.61L71.62-4.61L71.62-4.61Q66.24 1.28 57.02 1.28ZM58.69-26.56L58.69-26.56L58.69-26.56Q57.92-24.83 57.31-22.24L57.31-22.24L57.31-22.24Q56.70-19.65 55.94-15.55L55.94-15.55L55.94-15.55Q55.17-11.46 55.17-6.40L55.17-6.40L55.17-6.40Q55.17-4.74 55.71-3.65L55.71-3.65L55.71-3.65Q56.26-2.56 57.73-2.56L57.73-2.56L57.73-2.56Q59.20-2.56 60.13-3.26L60.13-3.26L60.13-3.26Q61.06-3.97 61.76-5.63L61.76-5.63L61.76-5.63Q63.04-8.58 64.06-14.05L64.06-14.05L64.06-14.05Q65.09-19.52 65.18-21.89L65.18-21.89L65.18-21.89Q65.28-24.26 65.28-26.02L65.28-26.02L65.28-26.02Q65.28-27.78 64.77-28.93L64.77-28.93L64.77-28.93Q64.26-30.08 62.82-30.08L62.82-30.08L62.82-30.08Q61.38-30.08 60.42-29.18L60.42-29.18L60.42-29.18Q59.46-28.29 58.69-26.56ZM83.68-1.92L83.68-1.92L83.68-1.92Q82.18-3.58 81.50-6.21L81.50-6.21L81.50-6.21Q80.83-8.83 80.83-13.12L80.83-13.12L80.83-13.12Q80.83-17.41 82.30-21.31L82.30-21.31L82.30-21.31Q83.78-25.22 86.46-28.03L86.46-28.03L86.46-28.03Q91.97-33.92 101.06-33.92L101.06-33.92L101.06-33.92Q104.32-33.92 106.69-32.83L106.69-32.83L117.63-33.92L112.90-8.96L112.90-8.96Q112.70-8.19 112.70-6.78L112.70-6.78L112.70-6.78Q112.70-5.38 113.57-4.48L113.57-4.48L113.57-4.48Q114.43-3.58 115.71-3.46L115.71-3.46L115.71-3.46Q115.07-1.28 112.74 0L112.74 0L112.74 0Q110.40 1.28 107.78 1.28L107.78 1.28L107.78 1.28Q105.15 1.28 103.39 0.29L103.39 0.29L103.39 0.29Q101.63-0.70 101.12-2.37L101.12-2.37L101.12-2.37Q100.10-0.77 97.92 0.26L97.92 0.26L97.92 0.26Q95.74 1.28 92.83 1.28L92.83 1.28L92.83 1.28Q89.92 1.28 87.55 0.51L87.55 0.51L87.55 0.51Q85.18-0.26 83.68-1.92ZM97.18-27.90L97.18-27.90L97.18-27.90Q96.45-26.75 95.81-24.80L95.81-24.80L95.81-24.80Q95.17-22.85 94.11-17.63L94.11-17.63L94.11-17.63Q93.06-12.42 93.06-8.70L93.06-8.70L93.06-8.70Q93.06-4.99 93.63-3.90L93.63-3.90L93.63-3.90Q94.21-2.82 95.23-2.82L95.23-2.82L95.23-2.82Q97.28-2.82 98.78-4.77L98.78-4.77L98.78-4.77Q100.29-6.72 100.86-10.18L100.86-10.18L104.26-28.93L104.26-28.93Q102.91-30.08 101.34-30.08L101.34-30.08L101.34-30.08Q99.78-30.08 98.85-29.57L98.85-29.57L98.85-29.57Q97.92-29.06 97.18-27.90ZM136.38-3.52L136.38-3.52L136.38-3.52Q134.40 1.28 128.06 1.28L128.06 1.28L128.06 1.28Q124.86 1.28 122.82-0.96L122.82-0.96L122.82-0.96Q121.15-2.82 121.15-4.93L121.15-4.93L121.15-4.93Q121.15-9.73 123.39-20.22L123.39-20.22L128.06-44.80L141.06-46.08L134.85-13.70L134.85-13.70Q133.76-8.96 133.76-7.30L133.76-7.30L133.76-7.30Q133.76-3.65 136.38-3.52ZM140.67-3.78L140.67-3.78L140.67-3.78Q140.67-6.21 142.56-7.55L142.56-7.55L142.56-7.55Q144.45-8.90 147.14-8.90L147.14-8.90L147.14-8.90Q149.82-8.90 151.46-7.55L151.46-7.55L151.46-7.55Q153.09-6.21 153.09-3.78L153.09-3.78L153.09-3.78Q153.09-1.34 151.26-0.03L151.26-0.03L151.26-0.03Q149.44 1.28 146.75 1.28L146.75 1.28L146.75 1.28Q144.06 1.28 142.37-0.03L142.37-0.03L142.37-0.03Q140.67-1.34 140.67-3.78ZM145.92-28.80L145.92-28.80L145.92-28.80Q145.92-31.23 147.81-32.58L147.81-32.58L147.81-32.58Q149.70-33.92 152.38-33.92L152.38-33.92L152.38-33.92Q155.07-33.92 156.70-32.58L156.70-32.58L156.70-32.58Q158.34-31.23 158.34-28.80L158.34-28.80L158.34-28.80Q158.34-26.37 156.51-25.06L156.51-25.06L156.51-25.06Q154.69-23.74 152-23.74L152-23.74L152-23.74Q149.31-23.74 147.62-25.06L147.62-25.06L147.62-25.06Q145.92-26.37 145.92-28.80ZM203.33-33.92L203.33-33.92L203.33-33.92Q198.14-33.92 194.37-35.65L194.37-35.65L192.32-25.28L204.67-25.28L204.67-25.28Q204.67-21.89 202.98-19.74L202.98-19.74L202.98-19.74Q201.28-17.60 198.21-17.60L198.21-17.60L198.21-17.60Q194.88-17.60 191.81-18.82L191.81-18.82L191.81-18.82Q191.17-19.07 191.10-19.14L191.10-19.14L187.46 0L173.50 0L181.63-42.24L210.18-42.24L210.18-42.24Q210.18-38.34 208.35-36.13L208.35-36.13L208.35-36.13Q206.53-33.92 203.33-33.92ZM223.94-3.52L223.94-3.52L223.94-3.52Q221.95 1.28 215.62 1.28L215.62 1.28L215.62 1.28Q212.35 1.28 210.30-0.96L210.30-0.96L210.30-0.96Q208.58-2.94 208.58-4.93L208.58-4.93L208.58-4.93Q208.58-10.11 210.94-20.22L210.94-20.22L213.31-32.64L226.30-33.92L222.40-13.70L222.40-13.70Q221.31-8.96 221.31-7.30L221.31-7.30L221.31-7.30Q221.31-3.65 223.94-3.52ZM214.46-41.54L214.46-41.54L214.46-41.54Q214.46-44.03 216.54-45.38L216.54-45.38L216.54-45.38Q218.62-46.72 221.63-46.72L221.63-46.72L221.63-46.72Q224.64-46.72 226.46-45.38L226.46-45.38L226.46-45.38Q228.29-44.03 228.29-41.54L228.29-41.54L228.29-41.54Q228.29-39.04 226.27-37.76L226.27-37.76L226.27-37.76Q224.26-36.48 221.25-36.48L221.25-36.48L221.25-36.48Q218.24-36.48 216.35-37.76L216.35-37.76L216.35-37.76Q214.46-39.04 214.46-41.54ZM256.45 1.28L256.45 1.28L256.45 1.28Q248.70 1.28 248.70-4.74L248.70-4.74L248.70-4.74Q248.77-6.40 249.28-9.22L249.28-9.22L250.43-15.10L250.43-15.10Q252.16-23.42 252.16-25.28L252.16-25.28L252.16-25.28Q252.16-28.99 249.98-28.99L249.98-28.99L249.98-28.99Q246.34-28.99 244.42-19.46L244.42-19.46L240.64 0L227.78 1.28L234.43-32.70L244.93-33.92L243.90-27.65L243.90-27.65Q246.91-33.92 256.13-33.92L256.13-33.92L256.13-33.92Q260.61-33.92 262.50-32.03L262.50-32.03L262.50-32.03Q264.38-30.14 264.38-25.92L264.38-25.92L264.38-25.92Q264.38-21.95 262.34-12.67L262.34-12.67L262.34-12.67Q261.38-8.51 261.38-6.94L261.38-6.94L261.38-6.94Q261.38-5.38 262.24-4.48L262.24-4.48L262.24-4.48Q263.10-3.58 264.38-3.46L264.38-3.46L264.38-3.46Q263.74-1.28 261.54 0L261.54 0L261.54 0Q259.33 1.28 256.45 1.28ZM289.66-33.92L289.66-33.92L289.66-33.92Q291.97-33.92 293.76-33.41L293.76-33.41L293.76-33.41Q293.82-33.66 293.95-34.37L293.95-34.37L294.27-36.35L294.27-36.35Q294.53-37.63 294.91-39.74L294.91-39.74L295.94-44.80L308.67-46.08L301.57-8.96L301.57-8.96Q301.50-8.58 301.50-7.94L301.50-7.94L301.50-6.91L301.50-6.91Q301.50-5.50 302.21-4.45L302.21-4.45L302.21-4.45Q302.91-3.39 304.06-3.39L304.06-3.39L304.06-3.39Q302.78-0.38 298.88 0.90L298.88 0.90L298.88 0.90Q297.54 1.28 295.65 1.28L295.65 1.28L295.65 1.28Q293.76 1.28 292.03 0.29L292.03 0.29L292.03 0.29Q290.30-0.70 289.79-2.37L289.79-2.37L289.79-2.37Q288.77-0.70 286.72 0.29L286.72 0.29L286.72 0.29Q284.67 1.28 281.70 1.28L281.70 1.28L281.70 1.28Q278.72 1.28 276.26 0.51L276.26 0.51L276.26 0.51Q273.79-0.26 272.26-1.92L272.26-1.92L272.26-1.92Q269.44-5.18 269.44-12.61L269.44-12.61L269.44-12.61Q269.44-22.21 275.07-28.03L275.07-28.03L275.07-28.03Q280.70-33.92 289.66-33.92ZM289.22-30.08L289.22-30.08L289.22-30.08Q286.85-30.08 285.57-27.52L285.57-27.52L285.57-27.52Q284.29-24.96 282.98-18.62L282.98-18.62L282.98-18.62Q281.66-12.29 281.66-6.59L281.66-6.59L281.66-6.59Q281.66-2.69 283.97-2.69L283.97-2.69L283.97-2.69Q286.02-2.69 287.46-4.74L287.46-4.74L287.46-4.74Q288.90-6.78 289.47-10.18L289.47-10.18L292.93-28.93L292.93-28.93Q291.58-30.08 289.22-30.08ZM347.65-37.12L347.65-37.12L347.65-37.12Q348.54-38.66 348.54-40.32L348.54-40.32L348.54-40.32Q348.54-43.26 346.75-43.26L346.75-43.26L346.75-43.26Q344-43.26 342.85-37.63L342.85-37.63L341.89-32.64L347.71-32.64L347.33-29.76L341.31-29.76L335.55 0L322.62 1.28L328.77-29.76L324.22-29.76L324.80-32.64L329.28-32.64L330.62-37.70L330.62-37.70Q331.78-42.37 336.70-44.54L336.70-44.54L336.70-44.54Q340.29-46.08 346.30-46.08L346.30-46.08L346.30-46.08Q352.32-46.08 355.01-44.54L355.01-44.54L355.01-44.54Q357.70-43.01 357.70-40.96L357.70-40.96L357.70-40.96Q357.70-38.91 356.10-37.63L356.10-37.63L356.10-37.63Q354.50-36.35 352.70-36.35L352.70-36.35L352.70-36.35Q349.18-36.35 347.65-37.12ZM368-3.52L368-3.52L368-3.52Q366.02 1.28 359.68 1.28L359.68 1.28L359.68 1.28Q356.42 1.28 354.37-0.96L354.37-0.96L354.37-0.96Q352.64-2.94 352.64-4.93L352.64-4.93L352.64-4.93Q352.64-10.11 355.01-20.22L355.01-20.22L357.38-32.64L370.37-33.92L366.46-13.70L366.46-13.70Q365.38-8.96 365.38-7.30L365.38-7.30L365.38-7.30Q365.38-3.65 368-3.52ZM358.53-41.54L358.53-41.54L358.53-41.54Q358.53-44.03 360.61-45.38L360.61-45.38L360.61-45.38Q362.69-46.72 365.70-46.72L365.70-46.72L365.70-46.72Q368.70-46.72 370.53-45.38L370.53-45.38L370.53-45.38Q372.35-44.03 372.35-41.54L372.35-41.54L372.35-41.54Q372.35-39.04 370.34-37.76L370.34-37.76L370.34-37.76Q368.32-36.48 365.31-36.48L365.31-36.48L365.31-36.48Q362.30-36.48 360.42-37.76L360.42-37.76L360.42-37.76Q358.53-39.04 358.53-41.54ZM396.67-31.55L396.67-31.55L396.67-31.55Q398.78-33.92 402.43-33.92L402.43-33.92L402.43-33.92Q404.67-33.92 406.40-32.70L406.40-32.70L406.40-32.70Q408.13-31.49 408.13-29.22L408.13-29.22L408.13-29.22Q408.13-26.94 407.42-24.51L407.42-24.51L407.42-24.51Q406.72-22.08 405.63-19.58L405.63-19.58L405.63-19.58Q403.46-14.72 400.45-10.69L400.45-10.69L400.45-10.69Q396.22-4.86 392.16-1.79L392.16-1.79L392.16-1.79Q388.10 1.28 383.68 1.28L383.68 1.28L383.68 1.28Q380.10 1.28 377.92 0.45L377.92 0.45L377.92 0.45Q377.54-12.99 377.06-17.79L377.06-17.79L377.06-17.79Q376.58-22.59 376.19-25.22L376.19-25.22L376.19-25.22Q375.55-30.34 373.63-31.55L373.63-31.55L373.63-31.55Q375.10-32.83 376.54-33.38L376.54-33.38L376.54-33.38Q377.98-33.92 380.96-33.92L380.96-33.92L380.96-33.92Q383.94-33.92 386.05-31.58L386.05-31.58L386.05-31.58Q388.16-29.25 388.58-25.12L388.58-25.12L388.58-25.12Q388.99-20.99 388.99-16L388.99-16L388.99-16Q388.99-11.01 388.61-4.99L388.61-4.99L388.61-4.99Q390.59-6.40 392.70-10.69L392.70-10.69L392.70-10.69Q395.58-16.64 396.61-23.81L396.61-23.81L396.61-23.81Q396.93-25.98 396.93-28.29L396.93-28.29L396.93-28.29Q396.93-30.59 396.67-31.55ZM435.78-10.82L435.78-10.82L435.78-10.82Q437.38-9.73 437.38-7.33L437.38-7.33L437.38-7.33Q437.38-4.93 436.16-3.39L436.16-3.39L436.16-3.39Q434.94-1.86 432.96-0.83L432.96-0.83L432.96-0.83Q428.86 1.28 424.45 1.28L424.45 1.28L424.45 1.28Q420.03 1.28 417.44 0.32L417.44 0.32L417.44 0.32Q414.85-0.64 413.12-2.43L413.12-2.43L413.12-2.43Q409.73-5.82 409.73-12.03L409.73-12.03L409.73-12.03Q409.73-21.70 414.98-27.58L414.98-27.58L414.98-27.58Q420.61-33.92 430.40-33.92L430.40-33.92L430.40-33.92Q436.48-33.92 439.49-31.36L439.49-31.36L439.49-31.36Q441.73-29.44 441.73-26.30L441.73-26.30L441.73-26.30Q441.73-15.04 422.27-15.04L422.27-15.04L422.27-15.04Q422.02-13.38 422.02-11.97L422.02-11.97L422.02-11.97Q422.02-9.02 423.33-7.90L423.33-7.90L423.33-7.90Q424.64-6.78 427.07-6.78L427.07-6.78L427.07-6.78Q429.50-6.78 432.10-7.90L432.10-7.90L432.10-7.90Q434.69-9.02 435.78-10.82ZM422.72-17.79L422.72-17.79L422.72-17.79Q427.26-17.79 429.89-20.61L429.89-20.61L429.89-20.61Q432.51-23.30 432.51-27.58L432.51-27.58L432.51-27.58Q432.51-29.06 431.97-29.86L431.97-29.86L431.97-29.86Q431.42-30.66 430.34-30.66L430.34-30.66L430.34-30.66Q429.25-30.66 428.32-30.24L428.32-30.24L428.32-30.24Q427.39-29.82 426.43-28.42L426.43-28.42L426.43-28.42Q424.06-25.22 422.72-17.79ZM472.38-3.52L472.38-3.52L472.38-3.52Q470.40 1.28 464.06 1.28L464.06 1.28L464.06 1.28Q460.86 1.28 458.82-0.96L458.82-0.96L458.82-0.96Q457.15-2.82 457.15-4.93L457.15-4.93L457.15-4.93Q457.15-9.73 459.39-20.22L459.39-20.22L464.06-44.80L477.06-46.08L470.85-13.70L470.85-13.70Q469.76-8.96 469.76-7.30L469.76-7.30L469.76-7.30Q469.76-3.65 472.38-3.52ZM491.78 1.28L491.78 1.28L491.78 1.28Q477.70 1.28 477.70-11.97L477.70-11.97L477.70-11.97Q477.70-21.38 482.88-27.46L482.88-27.46L482.88-27.46Q488.38-33.92 497.92-33.92L497.92-33.92L497.92-33.92Q504.83-33.92 508.35-30.72L508.35-30.72L508.35-30.72Q511.87-27.52 511.87-20.80L511.87-20.80L511.87-20.80Q511.87-10.56 506.37-4.61L506.37-4.61L506.37-4.61Q500.99 1.28 491.78 1.28ZM493.44-26.56L493.44-26.56L493.44-26.56Q492.67-24.83 492.06-22.24L492.06-22.24L492.06-22.24Q491.46-19.65 490.69-15.55L490.69-15.55L490.69-15.55Q489.92-11.46 489.92-6.40L489.92-6.40L489.92-6.40Q489.92-4.74 490.46-3.65L490.46-3.65L490.46-3.65Q491.01-2.56 492.48-2.56L492.48-2.56L492.48-2.56Q493.95-2.56 494.88-3.26L494.88-3.26L494.88-3.26Q495.81-3.97 496.51-5.63L496.51-5.63L496.51-5.63Q497.79-8.58 498.82-14.05L498.82-14.05L498.82-14.05Q499.84-19.52 499.94-21.89L499.94-21.89L499.94-21.89Q500.03-24.26 500.03-26.02L500.03-26.02L500.03-26.02Q500.03-27.78 499.52-28.93L499.52-28.93L499.52-28.93Q499.01-30.08 497.57-30.08L497.57-30.08L497.57-30.08Q496.13-30.08 495.17-29.18L495.17-29.18L495.17-29.18Q494.21-28.29 493.44-26.56ZM534.78-22.46L534.78-22.46L534.78-22.46Q535.68-24.83 535.68-26.88L535.68-26.88L535.68-26.88Q535.68-30.66 532.61-30.66L532.61-30.66L532.61-30.66Q531.01-30.66 529.70-29.22L529.70-29.22L529.70-29.22Q528.38-27.78 528.38-25.98L528.38-25.98L528.38-25.98Q528.38-24.70 529.41-23.68L529.41-23.68L529.41-23.68Q530.88-22.27 534.66-19.97L534.66-19.97L534.66-19.97Q538.43-17.66 539.87-15.78L539.87-15.78L539.87-15.78Q541.31-13.89 541.31-11.30L541.31-11.30L541.31-11.30Q541.31-8.70 540.06-6.34L540.06-6.34L540.06-6.34Q538.82-3.97 536.58-2.30L536.58-2.30L536.58-2.30Q531.78 1.28 524.10 1.28L524.10 1.28L524.10 1.28Q519.94 1.28 516.74-0.90L516.74-0.90L516.74-0.90Q513.54-3.01 513.54-5.50L513.54-5.50L513.54-5.50Q513.54-8 515.36-9.47L515.36-9.47L515.36-9.47Q517.18-10.94 519.87-10.94L519.87-10.94L519.87-10.94Q522.56-10.94 524.22-9.92L524.22-9.92L524.22-9.92Q523.39-7.81 523.39-6.40L523.39-6.40L523.39-6.40Q523.39-2.18 526.98-2.18L526.98-2.18L526.98-2.18Q528.51-2.18 529.54-3.14L529.54-3.14L529.54-3.14Q530.56-4.10 530.56-5.76L530.56-5.76L530.56-5.76Q530.56-9.02 525.06-12.48L525.06-12.48L525.06-12.48Q520.58-15.42 519.55-16.58L519.55-16.58L519.55-16.58Q517.82-18.62 517.82-21.18L517.82-21.18L517.82-21.18Q517.82-23.74 519.04-26.18L519.04-26.18L519.04-26.18Q520.26-28.61 522.50-30.34L522.50-30.34L522.50-30.34Q527.17-33.92 535.30-33.92L535.30-33.92L535.30-33.92Q539.46-33.92 541.92-32.26L541.92-32.26L541.92-32.26Q544.38-30.59 544.38-27.78L544.38-27.78L544.38-27.78Q544.38-24.96 542.69-23.36L542.69-23.36L542.69-23.36Q540.99-21.76 537.92-21.76L537.92-21.76L537.92-21.76Q535.81-21.76 534.78-22.46ZM547.78-6.40L547.78-6.40L547.78-6.40Q547.78-8.13 548.67-12.48L548.67-12.48L552.06-29.76L548.29-29.76L548.54-31.68L548.54-31.68Q556.22-33.98 563.65-39.62L563.65-39.62L566.72-39.62L565.18-32.64L570.18-32.64L569.60-29.76L564.67-29.76L561.41-12.48L561.41-12.48Q560.58-8.51 560.58-7.17L560.58-7.17L560.58-7.17Q560.58-4.10 563.26-3.46L563.26-3.46L563.26-3.46Q562.62-1.28 560.32 0L560.32 0L560.32 0Q558.02 1.28 554.75 1.28L554.75 1.28L554.75 1.28Q551.49 1.28 549.63-0.77L549.63-0.77L549.63-0.77Q547.78-2.82 547.78-6.40ZM602.18-22.46L602.18-22.46L602.18-22.46Q603.07-24.83 603.07-26.88L603.07-26.88L603.07-26.88Q603.07-30.66 600.00-30.66L600.00-30.66L600.00-30.66Q598.40-30.66 597.09-29.22L597.09-29.22L597.09-29.22Q595.78-27.78 595.78-25.98L595.78-25.98L595.78-25.98Q595.78-24.70 596.80-23.68L596.80-23.68L596.80-23.68Q598.27-22.27 602.05-19.97L602.05-19.97L602.05-19.97Q605.82-17.66 607.26-15.78L607.26-15.78L607.26-15.78Q608.70-13.89 608.70-11.30L608.70-11.30L608.70-11.30Q608.70-8.70 607.46-6.34L607.46-6.34L607.46-6.34Q606.21-3.97 603.97-2.30L603.97-2.30L603.97-2.30Q599.17 1.28 591.49 1.28L591.49 1.28L591.49 1.28Q587.33 1.28 584.13-0.90L584.13-0.90L584.13-0.90Q580.93-3.01 580.93-5.50L580.93-5.50L580.93-5.50Q580.93-8 582.75-9.47L582.75-9.47L582.75-9.47Q584.58-10.94 587.26-10.94L587.26-10.94L587.26-10.94Q589.95-10.94 591.62-9.92L591.62-9.92L591.62-9.92Q590.78-7.81 590.78-6.40L590.78-6.40L590.78-6.40Q590.78-2.18 594.37-2.18L594.37-2.18L594.37-2.18Q595.90-2.18 596.93-3.14L596.93-3.14L596.93-3.14Q597.95-4.10 597.95-5.76L597.95-5.76L597.95-5.76Q597.95-9.02 592.45-12.48L592.45-12.48L592.45-12.48Q587.97-15.42 586.94-16.58L586.94-16.58L586.94-16.58Q585.22-18.62 585.22-21.18L585.22-21.18L585.22-21.18Q585.22-23.74 586.43-26.18L586.43-26.18L586.43-26.18Q587.65-28.61 589.89-30.34L589.89-30.34L589.89-30.34Q594.56-33.92 602.69-33.92L602.69-33.92L602.69-33.92Q606.85-33.92 609.31-32.26L609.31-32.26L609.31-32.26Q611.78-30.59 611.78-27.78L611.78-27.78L611.78-27.78Q611.78-24.96 610.08-23.36L610.08-23.36L610.08-23.36Q608.38-21.76 605.31-21.76L605.31-21.76L605.31-21.76Q603.20-21.76 602.18-22.46ZM628.10 1.28L628.10 1.28L628.10 1.28Q614.02 1.28 614.02-11.97L614.02-11.97L614.02-11.97Q614.02-21.38 619.20-27.46L619.20-27.46L619.20-27.46Q624.70-33.92 634.24-33.92L634.24-33.92L634.24-33.92Q641.15-33.92 644.67-30.72L644.67-30.72L644.67-30.72Q648.19-27.52 648.19-20.80L648.19-20.80L648.19-20.80Q648.19-10.56 642.69-4.61L642.69-4.61L642.69-4.61Q637.31 1.28 628.10 1.28ZM629.76-26.56L629.76-26.56L629.76-26.56Q628.99-24.83 628.38-22.24L628.38-22.24L628.38-22.24Q627.78-19.65 627.01-15.55L627.01-15.55L627.01-15.55Q626.24-11.46 626.24-6.40L626.24-6.40L626.24-6.40Q626.24-4.74 626.78-3.65L626.78-3.65L626.78-3.65Q627.33-2.56 628.80-2.56L628.80-2.56L628.80-2.56Q630.27-2.56 631.20-3.26L631.20-3.26L631.20-3.26Q632.13-3.97 632.83-5.63L632.83-5.63L632.83-5.63Q634.11-8.58 635.14-14.05L635.14-14.05L635.14-14.05Q636.16-19.52 636.26-21.89L636.26-21.89L636.26-21.89Q636.35-24.26 636.35-26.02L636.35-26.02L636.35-26.02Q636.35-27.78 635.84-28.93L635.84-28.93L635.84-28.93Q635.33-30.08 633.89-30.08L633.89-30.08L633.89-30.08Q632.45-30.08 631.49-29.18L631.49-29.18L631.49-29.18Q630.53-28.29 629.76-26.56ZM672.51-2.69L672.51-2.69L672.51-2.69Q669.44 1.28 661.82 1.28L661.82 1.28L661.82 1.28Q657.86 1.28 654.98-1.12L654.98-1.12L654.98-1.12Q652.10-3.52 652.10-6.98L652.10-6.98L652.10-6.98Q652.10-8.90 652.29-9.86L652.29-9.86L656.58-32.64L669.57-33.92L664.90-9.22L664.90-9.22Q664.64-7.81 664.64-6.98L664.64-6.98L664.64-6.98Q664.64-3.26 666.88-3.26L666.88-3.26L666.88-3.26Q669.38-3.26 671.17-6.66L671.17-6.66L671.17-6.66Q671.74-7.74 672.00-9.15L672.00-9.15L676.54-32.64L689.15-33.92L684.42-8.96L684.42-8.96Q684.22-8 684.22-6.98L684.22-6.98L684.22-6.98Q684.22-5.95 684.80-4.83L684.80-4.83L684.80-4.83Q685.38-3.71 687.23-3.46L687.23-3.46L687.23-3.46Q686.85-1.92 685.50-0.90L685.50-0.90L685.50-0.90Q682.69 1.28 679.65 1.28L679.65 1.28L679.65 1.28Q676.61 1.28 674.82 0.19L674.82 0.19L674.82 0.19Q673.02-0.90 672.51-2.69ZM707.90-3.52L707.90-3.52L707.90-3.52Q705.92 1.28 699.58 1.28L699.58 1.28L699.58 1.28Q696.38 1.28 694.34-0.96L694.34-0.96L694.34-0.96Q692.67-2.82 692.67-4.93L692.67-4.93L692.67-4.93Q692.67-9.73 694.91-20.22L694.91-20.22L699.58-44.80L712.58-46.08L706.37-13.70L706.37-13.70Q705.28-8.96 705.28-7.30L705.28-7.30L705.28-7.30Q705.28-3.65 707.90-3.52ZM732.48-22.46L732.48-22.46L732.48-22.46Q733.38-24.83 733.38-26.88L733.38-26.88L733.38-26.88Q733.38-30.66 730.30-30.66L730.30-30.66L730.30-30.66Q728.70-30.66 727.39-29.22L727.39-29.22L727.39-29.22Q726.08-27.78 726.08-25.98L726.08-25.98L726.08-25.98Q726.08-24.70 727.10-23.68L727.10-23.68L727.10-23.68Q728.58-22.27 732.35-19.97L732.35-19.97L732.35-19.97Q736.13-17.66 737.57-15.78L737.57-15.78L737.57-15.78Q739.01-13.89 739.01-11.30L739.01-11.30L739.01-11.30Q739.01-8.70 737.76-6.34L737.76-6.34L737.76-6.34Q736.51-3.97 734.27-2.30L734.27-2.30L734.27-2.30Q729.47 1.28 721.79 1.28L721.79 1.28L721.79 1.28Q717.63 1.28 714.43-0.90L714.43-0.90L714.43-0.90Q711.23-3.01 711.23-5.50L711.23-5.50L711.23-5.50Q711.23-8 713.06-9.47L713.06-9.47L713.06-9.47Q714.88-10.94 717.57-10.94L717.57-10.94L717.57-10.94Q720.26-10.94 721.92-9.92L721.92-9.92L721.92-9.92Q721.09-7.81 721.09-6.40L721.09-6.40L721.09-6.40Q721.09-2.18 724.67-2.18L724.67-2.18L724.67-2.18Q726.21-2.18 727.23-3.14L727.23-3.14L727.23-3.14Q728.26-4.10 728.26-5.76L728.26-5.76L728.26-5.76Q728.26-9.02 722.75-12.48L722.75-12.48L722.75-12.48Q718.27-15.42 717.25-16.58L717.25-16.58L717.25-16.58Q715.52-18.62 715.52-21.18L715.52-21.18L715.52-21.18Q715.52-23.74 716.74-26.18L716.74-26.18L716.74-26.18Q717.95-28.61 720.19-30.34L720.19-30.34L720.19-30.34Q724.86-33.92 732.99-33.92L732.99-33.92L732.99-33.92Q737.15-33.92 739.62-32.26L739.62-32.26L739.62-32.26Q742.08-30.59 742.08-27.78L742.08-27.78L742.08-27.78Q742.08-24.96 740.38-23.36L740.38-23.36L740.38-23.36Q738.69-21.76 735.62-21.76L735.62-21.76L735.62-21.76Q733.50-21.76 732.48-22.46Z" fill="#d55b20" stroke="none" stroke-width="1.5"></path></g></g><style>text {
  font-size: 64px;
  font-family: Arial Black;
  dominant-baseline: central;
  text-anchor: middle;
}</style></svg>