<svg width="1456.41494140625px" height="154.42750244140623px" xmlns="http://www.w3.org/2000/svg" viewBox="-478.20747070312495 -2.2137512207031165 1456.41494140625 154.42750244140623" style="background: none;" preserveAspectRatio="xMidYMid"><defs><filter id="editing-crystal" x="-100%" y="-100%" width="300%" height="300%"><feMorphology operator="dilate" radius="2" in="SourceGraphic" result="border"></feMorphology><feFlood flood-color="#c6d63c" result="black"></feFlood><feMorphology operator="dilate" radius="2" in="SourceGraphic" result="erode"></feMorphology><feGaussianBlur in="erode" stdDeviation="4" result="blur"></feGaussianBlur><feOffset in="blur" dx="2" dy="2" result="offset"></feOffset><feComposite operator="atop" in="offset" in2="black" result="merge"></feComposite><feComposite operator="in" in="merge" in2="SourceGraphic" result="inner-shadow"></feComposite><feGaussianBlur in="SourceGraphic" stdDeviation="2.5" result="shadow1"></feGaussianBlur><feOffset in="shadow1" dx="0" dy="5" result="shadow"></feOffset><feSpecularLighting in="SourceGraphic" result="specular" surfaceScale="1.5" specularConstant="100" specularExponent="10" lighting-color="rgba(67.37135197283266%,29.200880503144656%,82.1904761904762%,0.747)"><fePointLight x="250" y="-300" z="-400"></fePointLight></feSpecularLighting><feGaussianBlur in="specular" stdDeviation="1" result="specular2"></feGaussianBlur><feComposite operator="in" in="specular2" in2="SourceAlpha" result="specular3"></feComposite><feMerge result="merge"><feMergeNode in="border"></feMergeNode><feMergeNode in="inner-shadow"></feMergeNode><feMergeNode in="specular3"></feMergeNode></feMerge><feComponentTransfer in="merge" result="final"><feFuncA type="linear" slope="0.9" intercept="0"></feFuncA></feComponentTransfer><feMerge><feMergeNode in="shadow"></feMergeNode><feMergeNode in="final"></feMergeNode></feMerge></filter></defs><g filter="url(#editing-crystal)"><g transform="translate(-276.21000000834465, 118.08562469482422)"><path d="M1.39-41.66L1.39-41.66L1.39-41.66Q0.46-43.90 0.46-46.94L0.46-46.94L0.46-46.94Q0.46-49.99 0.69-51.94L0.69-51.94L0.69-51.94Q0.93-53.89 1.31-55.47L1.31-55.47L1.31-55.47Q2.24-59.02 3.59-59.02L3.59-59.02L37.57-59.02L37.57-59.02Q39.81-59.02 40.58-52.38L40.58-52.38L40.58-52.38Q40.77-50.53 40.77-48.56L40.77-48.56L40.77-48.56Q40.77-43.94 39.77-41.66L39.77-41.66L39.77-41.66Q36.45-51.96 31.17-54.85L31.17-54.85L31.17-54.85Q29.97-55.55 28.81-55.55L28.81-55.55L28.81-55.55Q27.66-55.55 27.00-54.95L27.00-54.95L27.00-54.95Q26.35-54.35 25.92-53.04L25.92-53.04L25.92-53.04Q25.23-50.73 25.23-47.48L25.23-47.48L25.23-33.02L25.27-21.22L25.27-10.03L25.27-10.03Q25.27-6.25 26.25-4.46L26.25-4.46L26.25-4.46Q27.23-2.66 28.26-1.74L28.26-1.74L28.26-1.74Q29.28-0.81 30.67 0L30.67 0L10.96 0L10.96 0Q13.73-2.28 14.50-3.74L14.50-3.74L14.50-3.74Q15.93-6.40 15.93-10.03L15.93-10.03L15.93-44.78L15.93-44.78Q15.93-50.84 15.47-52.60L15.47-52.60L15.47-52.60Q15.01-54.35 14.35-54.95L14.35-54.95L14.35-54.95Q13.69-55.55 12.54-55.55L12.54-55.55L12.54-55.55Q11.38-55.55 10.18-54.87L10.18-54.87L10.18-54.87Q8.99-54.20 7.85-53.10L7.85-53.10L7.85-53.10Q6.71-52.00 5.69-50.55L5.69-50.55L5.69-50.55Q4.67-49.10 3.82-47.56L3.82-47.56L3.82-47.56Q2.16-44.51 1.39-41.66ZM79.69 0L68.31 0L68.31 0Q70.09-6.09 70.09-20.95L70.09-20.95L70.09-20.95Q70.09-27.16 69.43-29.22L69.43-29.22L69.43-29.22Q68.78-31.28 67.79-32.23L67.79-32.23L67.79-32.23Q66.81-33.17 65.17-33.17L65.17-33.17L65.17-33.17Q63.53-33.17 62.20-32.56L62.20-32.56L62.20-32.56Q60.87-31.94 59.83-30.94L59.83-30.94L59.83-30.94Q57.86-29.08 56.63-26.00L56.63-26.00L56.63-18.63L56.63-18.63Q56.63-7.79 57.05-5.21L57.05-5.21L57.05-5.21Q57.55-1.81 58.09 0L58.09 0L46.71 0L46.71 0Q47.64-3.24 47.95-8.60L47.95-8.60L47.95-8.60Q48.64-22.03 48.64-28.37L48.64-28.37L48.64-28.37Q48.64-34.72 48.60-37.05L48.60-37.05L48.60-37.05Q48.56-39.38 48.49-41.70L48.49-41.70L48.49-41.70Q48.29-50.11 47.74-52.25L47.74-52.25L47.74-52.25Q47.18-54.39 46.69-55.37L46.69-55.37L46.69-55.37Q46.21-56.36 45.63-57.17L45.63-57.17L44.32-58.98L58.40-58.98L58.40-58.98Q57.32-55.08 57.15-51.73L57.15-51.73L57.15-51.73Q56.97-48.37 56.90-46.27L56.90-46.27L56.90-46.27Q56.82-44.17 56.74-41.85L56.74-41.85L56.74-41.85Q56.63-36.45 56.63-32.33L56.63-32.33L56.63-32.33Q59.67-37.46 64.69-39.11L64.69-39.11L64.69-39.11Q66.46-39.73 68.66-39.73L68.66-39.73L68.66-39.73Q70.86-39.73 72.65-38.79L72.65-38.79L72.65-38.79Q74.45-37.84 75.64-36.11L75.64-36.11L75.64-36.11Q78.11-32.60 78.11-26.50L78.11-26.50L78.11-22.37L78.11-22.37Q78.11-10.57 78.44-7.58L78.44-7.58L78.44-7.58Q78.77-4.59 78.88-3.63L78.88-3.63L78.88-3.63Q79.15-1.93 79.69 0L79.69 0ZM118.19-20.60L118.19-20.60L118.08-13.19L118.08-13.19Q118.08-6.29 119.35-3.78L119.35-3.78L119.35-3.78Q120.12-2.28 121.16-1.47L121.16-1.47L122.97 0L111.79 0L110.59-4.47L110.59-4.47Q106.23 0.77 98.17 0.77L98.17 0.77L98.17 0.77Q93.58 0.77 90.77-2.31L90.77-2.31L90.77-2.31Q88.30-5.09 88.30-8.87L88.30-8.87L88.30-8.87Q88.30-12.65 90.09-15.47L90.09-15.47L90.09-15.47Q91.88-18.28 94.82-20.14L94.82-20.14L94.82-20.14Q100.60-23.72 109.36-23.88L109.36-23.88L109.36-24.30L109.36-24.30Q109.36-33.68 106.46-35.30L106.46-35.30L106.46-35.30Q105.42-35.87 103.78-35.87L103.78-35.87L103.78-35.87Q102.14-35.87 100.52-34.79L100.52-34.79L100.52-34.79Q98.90-33.71 97.59-32.02L97.59-32.02L97.59-32.02Q94.97-28.58 93.85-23.92L93.85-23.92L93.85-23.92Q90.42-25.96 90.42-31.75L90.42-31.75L90.42-31.75Q90.42-34.10 91.04-37.03L91.04-37.03L91.04-37.03Q92.50-37.03 93.81-37.46L93.81-37.46L96.78-38.38L96.78-38.38Q101.14-39.73 105.31-39.73L105.31-39.73L105.31-39.73Q109.47-39.73 111.96-38.50L111.96-38.50L111.96-38.50Q114.45-37.26 115.84-34.83L115.84-34.83L115.84-34.83Q118.19-30.71 118.19-20.60ZM96.63-8.10L96.63-8.10Q96.63-5.71 97.73-4.40L97.73-4.40L97.73-4.40Q98.83-3.09 100.49-3.09L100.49-3.09L100.49-3.09Q102.14-3.09 103.69-3.95L103.69-3.95L103.69-3.95Q105.23-4.82 106.46-6.33L106.46-6.33L106.46-6.33Q109.36-9.76 109.36-14.39L109.36-14.39L109.36-20.10L109.36-20.10Q103.96-19.60 100.45-16.51L100.45-16.51L100.45-16.51Q96.63-13.19 96.63-8.10L96.63-8.10ZM140.18 0L129.11 0L129.11 0Q130.88-6.09 130.88-20.95L130.88-20.95L130.88-20.95Q130.88-31.52 129.03-35.37L129.03-35.37L129.03-35.37Q128.57-36.34 127.99-37.19L127.99-37.19L126.72-38.96L140.10-38.96L140.10-38.96Q139.52-37.03 139.33-35.33L139.33-35.33L139.02-32.56L139.02-32.56Q143.69-39.73 150.90-39.73L150.90-39.73L150.90-39.73Q155.57-39.73 158.19-36.11L158.19-36.11L158.19-36.11Q160.74-32.56 160.74-26.50L160.74-26.50L160.74-22.37L160.74-22.37Q160.74-11.77 160.93-9.41L160.93-9.41L160.93-9.41Q161.12-7.06 161.24-5.82L161.24-5.82L161.24-5.82Q161.36-4.59 161.51-3.63L161.51-3.63L161.51-3.63Q161.78-1.81 162.32 0L162.32 0L151.02 0L151.02 0Q152.79-6.09 152.79-20.95L152.79-20.95L152.79-20.95Q152.79-26.89 152.04-29.08L152.04-29.08L152.04-29.08Q151.29-31.28 150.25-32.23L150.25-32.23L150.25-32.23Q149.21-33.17 147.51-33.17L147.51-33.17L147.51-33.17Q144.38-33.17 141.84-30.71L141.84-30.71L141.84-30.71Q139.64-28.58 138.48-25.30L138.48-25.30L138.48-25.30Q138.40-24.26 138.40-23.14L138.40-23.14L138.40-20.95L138.40-20.95Q138.40-6.09 140.18 0L140.18 0ZM182.15-19.21L182.15-16.36L182.15-16.36Q182.15-5.17 183.65 0L183.65 0L172.27 0L172.27 0Q173.35-3.74 173.62-8.83L173.62-8.83L173.62-8.83Q174.20-21.14 174.20-27.93L174.20-27.93L174.20-27.93Q174.20-34.72 174.16-37.05L174.16-37.05L174.16-37.05Q174.12-39.38 174.09-41.74L174.09-41.74L174.09-41.74Q173.85-50.03 173.29-52.29L173.29-52.29L173.29-52.29Q172.74-54.54 172.23-55.55L172.23-55.55L172.23-55.55Q171.50-57.17 169.88-59.02L169.88-59.02L183.96-59.02L183.96-59.02Q182.88-55.12 182.69-51.65L182.69-51.65L182.42-46.06L182.42-46.06Q182.15-39.69 182.15-36.38L182.15-36.38L182.15-36.38Q182.15-33.06 182.21-31.90L182.21-31.90L182.21-31.90Q182.26-30.74 182.49-30.01L182.49-30.01L182.49-30.01Q182.96-28.47 184.83-28.54L184.83-28.54L184.83-28.54Q186.70-28.62 188.20-29.34L188.20-29.34L188.20-29.34Q189.71-30.05 190.67-31.17L190.67-31.17L190.67-31.17Q192.60-33.33 192.60-35.76L192.60-35.76L192.60-35.76Q192.60-38.19 192.02-38.96L192.02-38.96L203.17-38.96L203.17-38.96Q202.71-38.03 202.34-37.09L202.34-37.09L202.34-37.09Q201.97-36.14 201.55-35.18L201.55-35.18L201.55-35.18Q198.81-29.08 192.91-26.35L192.91-26.35L192.91-26.35Q193.30-18.36 198.16-10.34L198.16-10.34L198.16-10.34Q202.75-2.89 208.26 0L208.26 0L195.34 0L195.34 0Q191.48-1.85 189.09-12.42L189.09-12.42L189.09-12.42Q188.28-16.01 188.01-19.33L188.01-19.33L188.01-19.33Q187.74-22.64 187.16-23.67L187.16-23.67L187.16-23.67Q186.58-24.69 185.08-24.69L185.08-24.69L185.08-24.69Q182.15-24.69 182.15-19.21L182.15-19.21ZM233.91-41.24L233.91-41.24L233.91-41.24Q234.96-38.92 234.96-36.57L234.96-36.57L234.96-36.57Q234.96-34.22 234.74-32.67L234.74-32.67L234.74-32.67Q234.53-31.13 234.11-29.70L234.11-29.70L234.11-29.70Q233.14-26.46 231.37-24.73L231.37-24.73L231.37-24.73Q230.17-30.71 228.76-32.48L228.76-32.48L228.76-32.48Q227.36-34.25 225.95-34.87L225.95-34.87L225.95-34.87Q224.54-35.49 222.96-35.49L222.96-35.49L222.96-35.49Q221.38-35.49 220.37-35.18L220.37-35.18L220.37-35.18Q219.37-34.87 218.64-34.29L218.64-34.29L218.64-34.29Q216.98-33.02 216.98-31.40L216.98-31.40L216.98-31.40Q216.98-29.78 217.79-28.60L217.79-28.60L217.79-28.60Q218.60-27.43 219.93-26.40L219.93-26.40L219.93-26.40Q221.26-25.38 222.96-24.42L222.96-24.42L226.43-22.45L226.43-22.45Q230.91-19.94 232.56-18.28L232.56-18.28L232.56-18.28Q235.84-15.01 235.84-11.38L235.84-11.38L235.84-11.38Q235.84-6.63 232.60-3.39L232.60-3.39L232.60-3.39Q228.51 0.77 220.34 0.77L220.34 0.77L220.34 0.77Q212.89 0.77 209.15-2.70L209.15-2.70L209.15-2.70Q208.07-3.70 207.61-4.71L207.61-4.71L207.61-4.71Q207.92-7.60 210.19-10.15L210.19-10.15L210.19-10.15Q212.39-12.61 214.47-13.00L214.47-13.00L214.47-13.00Q214.32-12.50 214.32-11.50L214.32-11.50L214.32-11.50Q214.32-10.49 214.90-9.01L214.90-9.01L214.90-9.01Q215.48-7.52 216.56-6.25L216.56-6.25L216.56-6.25Q218.99-3.32 222.03-3.32L222.03-3.32L222.03-3.32Q225.08-3.32 226.51-4.71L226.51-4.71L226.51-4.71Q227.94-6.09 227.94-7.87L227.94-7.87L227.94-7.87Q227.94-9.64 227.13-10.84L227.13-10.84L227.13-10.84Q226.31-12.04 224.98-13.08L224.98-13.08L224.98-13.08Q223.65-14.12 221.96-15.08L221.96-15.08L218.48-17.05L218.48-17.05Q214.05-19.67 212.39-21.52L212.39-21.52L212.39-21.52Q209.07-25.23 209.07-29.59L209.07-29.59L209.07-29.59Q209.07-34.18 212.93-37.03L212.93-37.03L212.93-37.03Q216.59-39.73 222.07-39.73L222.07-39.73L228.86-39.27L228.86-39.27Q231.33-39.27 232.29-39.87L232.29-39.87L232.29-39.87Q233.26-40.46 233.91-41.24ZM294.75-41.24L294.75-41.24L294.75-41.24Q295.79-38.92 295.79-36.57L295.79-36.57L295.79-36.57Q295.79-34.22 295.57-32.67L295.57-32.67L295.57-32.67Q295.36-31.13 294.94-29.70L294.94-29.70L294.94-29.70Q293.97-26.46 292.20-24.73L292.20-24.73L292.20-24.73Q291.00-30.71 289.60-32.48L289.60-32.48L289.60-32.48Q288.19-34.25 286.78-34.87L286.78-34.87L286.78-34.87Q285.37-35.49 283.79-35.49L283.79-35.49L283.79-35.49Q282.21-35.49 281.21-35.18L281.21-35.18L281.21-35.18Q280.20-34.87 279.47-34.29L279.47-34.29L279.47-34.29Q277.81-33.02 277.81-31.40L277.81-31.40L277.81-31.40Q277.81-29.78 278.62-28.60L278.62-28.60L278.62-28.60Q279.43-27.43 280.76-26.40L280.76-26.40L280.76-26.40Q282.09-25.38 283.79-24.42L283.79-24.42L287.26-22.45L287.26-22.45Q291.74-19.94 293.40-18.28L293.40-18.28L293.40-18.28Q296.67-15.01 296.67-11.38L296.67-11.38L296.67-11.38Q296.67-6.63 293.43-3.39L293.43-3.39L293.43-3.39Q289.35 0.77 281.17 0.77L281.17 0.77L281.17 0.77Q273.72 0.77 269.98-2.70L269.98-2.70L269.98-2.70Q268.90-3.70 268.44-4.71L268.44-4.71L268.44-4.71Q268.75-7.60 271.02-10.15L271.02-10.15L271.02-10.15Q273.22-12.61 275.30-13.00L275.30-13.00L275.30-13.00Q275.15-12.50 275.15-11.50L275.15-11.50L275.15-11.50Q275.15-10.49 275.73-9.01L275.73-9.01L275.73-9.01Q276.31-7.52 277.39-6.25L277.39-6.25L277.39-6.25Q279.82-3.32 282.86-3.32L282.86-3.32L282.86-3.32Q285.91-3.32 287.34-4.71L287.34-4.71L287.34-4.71Q288.77-6.09 288.77-7.87L288.77-7.87L288.77-7.87Q288.77-9.64 287.96-10.84L287.96-10.84L287.96-10.84Q287.15-12.04 285.82-13.08L285.82-13.08L285.82-13.08Q284.48-14.12 282.79-15.08L282.79-15.08L279.32-17.05L279.32-17.05Q274.88-19.67 273.22-21.52L273.22-21.52L273.22-21.52Q269.90-25.23 269.90-29.59L269.90-29.59L269.90-29.59Q269.90-34.18 273.76-37.03L273.76-37.03L273.76-37.03Q277.43-39.73 282.90-39.73L282.90-39.73L289.69-39.27L289.69-39.27Q292.16-39.27 293.13-39.87L293.13-39.87L293.13-39.87Q294.09-40.46 294.75-41.24ZM322.36-35.87L322.36-35.87Q318.89-35.87 317.37-32.40L317.37-32.40L317.37-32.40Q315.85-28.93 315.85-20.71L315.85-20.71L315.85-20.71Q315.85-3.09 322.36-3.09L322.36-3.09L322.36-3.09Q325.84-3.09 327.36-7.79L327.36-7.79L327.36-7.79Q328.88-12.50 328.88-20.71L328.88-20.71L328.88-20.71Q328.88-28.93 327.36-32.40L327.36-32.40L327.36-32.40Q325.84-35.87 322.36-35.87L322.36-35.87ZM306.13-22.18L306.13-22.18Q306.13-39.73 322.36-39.73L322.36-39.73L322.36-39.73Q338.60-39.73 338.60-22.18L338.60-22.18L338.60-22.18Q338.60-11.53 334.13-5.32L334.13-5.32L334.13-5.32Q329.77 0.77 322.36 0.77L322.36 0.77L322.36 0.77Q314.96 0.77 310.60-5.32L310.60-5.32L310.60-5.32Q306.13-11.53 306.13-22.18L306.13-22.18ZM386.36 0L375.29 0L375.29 0Q377.06-6.09 377.06-20.95L377.06-20.95L377.06-20.95Q377.06-31.52 375.21-35.37L375.21-35.37L375.21-35.37Q374.75-36.34 374.17-37.19L374.17-37.19L372.90-38.96L386.28-38.96L386.28-38.96Q385.70-36.68 385.51-35.33L385.51-35.33L385.24-33.02L385.24-33.02Q389.72-39.73 396.64-39.73L396.64-39.73L396.64-39.73Q403.56-39.73 405.61-32.21L405.61-32.21L405.61-32.21Q408.66-37.42 413.67-39.11L413.67-39.11L413.67-39.11Q415.44-39.73 417.66-39.73L417.66-39.73L417.66-39.73Q419.88-39.73 421.67-38.79L421.67-38.79L421.67-38.79Q423.47-37.84 424.70-36.11L424.70-36.11L424.70-36.11Q427.13-32.60 427.13-26.50L427.13-26.50L427.13-22.37L427.13-22.37Q427.13-10.57 427.46-7.58L427.46-7.58L427.46-7.58Q427.79-4.59 427.94-3.63L427.94-3.63L427.94-3.63Q428.17-1.93 428.71 0L428.71 0L417.33 0L417.33 0Q419.03-5.82 419.03-20.95L419.03-20.95L419.03-20.95Q419.03-27.08 418.41-29.18L418.41-29.18L418.41-29.18Q417.80-31.28 416.81-32.23L416.81-32.23L416.81-32.23Q415.83-33.17 414.13-33.17L414.13-33.17L414.13-33.17Q409.16-33.17 406.23-27.31L406.23-27.31L406.23-22.37L406.23-22.37Q406.23-10.57 406.55-7.58L406.55-7.58L406.55-7.58Q406.88-4.59 407.04-3.63L407.04-3.63L407.04-3.63Q407.27-1.93 407.81 0L407.81 0L396.43 0L396.43 0Q398.16-5.94 398.16-20.95L398.16-20.95L398.16-20.95Q398.16-27.23 397.55-29.26L397.55-29.26L397.55-29.26Q396.93-31.28 395.96-32.23L395.96-32.23L395.96-32.23Q395-33.17 393.32-33.17L393.32-33.17L393.32-33.17Q391.64-33.17 390.29-32.52L390.29-32.52L390.29-32.52Q388.94-31.86 387.86-30.78L387.86-30.78L387.86-30.78Q385.82-28.78 384.66-25.61L384.66-25.61L384.66-25.61Q384.58-24.49 384.58-23.30L384.58-23.30L384.58-20.95L384.58-20.95Q384.58-6.09 386.36 0L386.36 0ZM404.80-23.22L404.95-23.92L404.80-23.22ZM469.68-37.19L469.68-35.33L469.10-18.09L469.10-18.09Q469.10-7.56 470.95-3.63L470.95-3.63L470.95-3.63Q471.61-2.20 473.27 0L473.27 0L462.54 0L462.54 0Q461.66-2.62 461.39-6.63L461.39-6.63L461.39-6.63Q456.91 0.77 449.85 0.77L449.85 0.77L449.85 0.77Q444.99 0.77 442.41-2.85L442.41-2.85L442.41-2.85Q439.86-6.36 439.86-12.50L439.86-12.50L439.86-17.71L439.86-17.71Q439.86-19.44 439.86-21.25L439.86-21.25L439.78-24.76L439.78-24.76Q439.75-28.12 439.57-29.99L439.57-29.99L439.57-29.99Q439.40-31.86 439.19-33.12L439.19-33.12L439.19-33.12Q438.97-34.37 438.67-35.35L438.67-35.35L438.67-35.35Q438.36-36.34 437.97-37.19L437.97-37.19L437.12-38.96L448.27-38.96L448.27-38.96Q448.31-38.34 448.31-37.80L448.31-37.80L448.31-36.68L448.31-36.68Q448.31-36.68 447.65-17.32L447.65-17.32L447.65-17.32Q447.65-11.65 448.39-9.60L448.39-9.60L448.39-9.60Q449.12-7.56 450.14-6.67L450.14-6.67L450.14-6.67Q451.16-5.79 452.86-5.79L452.86-5.79L452.86-5.79Q457.45-5.79 460.31-10.80L460.31-10.80L460.31-10.80Q461.08-12.23 461.58-13.69L461.58-13.69L461.58-13.69Q461.66-15.85 461.66-18.59L461.66-18.59L461.66-18.59Q461.66-32.67 459.57-37.19L459.57-37.19L458.72-38.96L469.72-38.96L469.72-38.96Q469.68-38.00 469.68-37.19L469.68-37.19ZM506.17-41.27L506.17-41.27L506.17-41.27Q507.14-38.96 507.14-36.20L507.14-36.20L507.14-36.20Q507.14-33.44 506.94-31.63L506.94-31.63L506.94-31.63Q506.75-29.82 506.36-28.12L506.36-28.12L506.36-28.12Q505.55-24.53 503.86-22.37L503.86-22.37L503.86-22.37Q502.16-32.87 498.34-35.10L498.34-35.10L498.34-35.10Q496.99-35.87 495.43-35.87L495.43-35.87L495.43-35.87Q493.87-35.87 492.71-35.14L492.71-35.14L492.71-35.14Q491.55-34.41 490.74-33.02L490.74-33.02L490.74-33.02Q489.08-30.24 489.08-25.83L489.08-25.83L489.08-25.83Q489.08-21.41 489.97-18.23L489.97-18.23L489.97-18.23Q490.86-15.04 492.30-12.52L492.30-12.52L492.30-12.52Q493.75-9.99 495.58-8.16L495.58-8.16L495.58-8.16Q497.41-6.33 499.27-5.09L499.27-5.09L499.27-5.09Q503.01-2.70 505.90-2.70L505.90-2.70L505.90-2.70Q505.75-1.70 504.90-0.73L504.90-0.73L504.90-0.73Q504.05 0.23 503.05 0.77L503.05 0.77L503.05 0.77Q498.96 0.77 493.67-2.01L493.67-2.01L493.67-2.01Q483.84-7.21 480.40-17.20L480.40-17.20L480.40-17.20Q479.13-20.87 479.13-24.71L479.13-24.71L479.13-24.71Q479.13-28.54 480.02-31.19L480.02-31.19L480.02-31.19Q480.90-33.83 482.60-35.72L482.60-35.72L482.60-35.72Q486.07-39.73 492.25-39.73L492.25-39.73L492.25-39.73Q494.33-39.73 496.30-39.46L496.30-39.46L496.30-39.46Q500.00-38.96 501.48-38.96L501.48-38.96L501.48-38.96Q502.97-38.96 504.13-39.36L504.13-39.36L504.13-39.36Q505.28-39.77 506.17-41.27ZM548.76 0L537.38 0L537.38 0Q539.15-6.09 539.15-20.95L539.15-20.95L539.15-20.95Q539.15-27.16 538.50-29.22L538.50-29.22L538.50-29.22Q537.84-31.28 536.86-32.23L536.86-32.23L536.86-32.23Q535.87-33.17 534.23-33.17L534.23-33.17L534.23-33.17Q532.59-33.17 531.26-32.56L531.26-32.56L531.26-32.56Q529.93-31.94 528.89-30.94L528.89-30.94L528.89-30.94Q526.92-29.08 525.69-26.00L525.69-26.00L525.69-18.63L525.69-18.63Q525.69-7.79 526.11-5.21L526.11-5.21L526.11-5.21Q526.62-1.81 527.16 0L527.16 0L515.78 0L515.78 0Q516.70-3.24 517.01-8.60L517.01-8.60L517.01-8.60Q517.70-22.03 517.70-28.37L517.70-28.37L517.70-28.37Q517.70-34.72 517.67-37.05L517.67-37.05L517.67-37.05Q517.63-39.38 517.55-41.70L517.55-41.70L517.55-41.70Q517.36-50.11 516.80-52.25L516.80-52.25L516.80-52.25Q516.24-54.39 515.76-55.37L515.76-55.37L515.76-55.37Q515.27-56.36 514.70-57.17L514.70-57.17L513.38-58.98L527.46-58.98L527.46-58.98Q526.38-55.08 526.21-51.73L526.21-51.73L526.21-51.73Q526.04-48.37 525.96-46.27L525.96-46.27L525.96-46.27Q525.88-44.17 525.81-41.85L525.81-41.85L525.81-41.85Q525.69-36.45 525.69-32.33L525.69-32.33L525.69-32.33Q528.74-37.46 533.75-39.11L533.75-39.11L533.75-39.11Q535.53-39.73 537.72-39.73L537.72-39.73L537.72-39.73Q539.92-39.73 541.72-38.79L541.72-38.79L541.72-38.79Q543.51-37.84 544.71-36.11L544.71-36.11L544.71-36.11Q547.18-32.60 547.18-26.50L547.18-26.50L547.18-22.37L547.18-22.37Q547.18-10.57 547.50-7.58L547.50-7.58L547.50-7.58Q547.83-4.59 547.95-3.63L547.95-3.63L547.95-3.63Q548.22-1.93 548.76 0L548.76 0ZM599.67 0L585.60 0L585.60 0Q587.41-6.21 587.41-25.07L587.41-25.07L587.41-25.07Q587.41-28.39 587.33-29.37L587.33-29.37L587.33-29.37Q587.25-30.36 586.64-30.47L586.64-30.47L586.64-30.47Q584.09-31.05 583.59-33.41L583.59-33.41L583.59-33.41Q583.47-34.02 583.28-34.72L583.28-34.72L585.75-34.72L585.75-34.72Q586.83-34.72 587.08-35.20L587.08-35.20L587.08-35.20Q587.33-35.68 587.33-37.92L587.33-37.92L587.33-37.92Q587.33-42.28 587.00-46.48L587.00-46.48L587.00-46.48Q586.68-50.69 587.33-52.85L587.33-52.85L587.33-52.85Q587.99-55.01 589.38-56.55L589.38-56.55L589.38-56.55Q592.31-59.79 597.67-59.79L597.67-59.79L597.67-59.79Q599.67-59.79 601.33-59.40L601.33-59.40L601.33-59.40Q602.99-59.02 604.54-59.02L604.54-59.02L604.54-59.02Q606.08-59.02 607.24-59.44L607.24-59.44L607.24-59.44Q608.39-59.87 609.28-61.33L609.28-61.33L609.28-61.33Q609.78-60.75 610.21-59.27L610.21-59.27L610.21-59.27Q610.63-57.78 610.63-56.03L610.63-56.03L610.63-56.03Q610.63-54.27 610.38-52.33L610.38-52.33L610.38-52.33Q610.13-50.38 609.67-48.53L609.67-48.53L609.67-48.53Q608.70-44.67 606.97-42.39L606.97-42.39L606.97-42.39Q606.04-50.26 605.25-52.19L605.25-52.19L605.25-52.19Q604.46-54.12 603.51-54.83L603.51-54.83L603.51-54.83Q602.57-55.55 600.72-55.55L600.72-55.55L600.72-55.55Q598.86-55.55 597.42-53.60L597.42-53.60L597.42-53.60Q595.97-51.65 595.97-48.26L595.97-48.26L595.97-47.02L595.97-47.02Q595.97-39.31 596.40-37.71L596.40-37.71L596.40-37.71Q596.82-36.11 597.55-35.60L597.55-35.60L597.55-35.60Q598.29-35.10 599.64-35.10L599.64-35.10L606.73-35.10L606.73-35.10Q605.77-31.63 604.34-30.63L604.34-30.63L604.34-30.63Q603.65-30.09 602.78-30.09L602.78-30.09L602.78-30.09Q601.91-30.09 601.41-30.20L601.41-30.20L601.41-30.20Q600.91-30.32 600.45-30.47L600.45-30.47L600.45-30.47Q599.29-30.86 598.34-30.86L598.34-30.86L598.34-30.86Q597.40-30.86 596.90-30.61L596.90-30.61L596.90-30.61Q596.40-30.36 596.09-29.90L596.09-29.90L596.09-29.90Q595.62-29.12 595.62-27.43L595.62-27.43L595.62-20.83L595.62-20.83Q595.62-8.83 596.47-5.82L596.47-5.82L596.47-5.82Q597.09-3.59 598.05-2.28L598.05-2.28L599.67 0ZM630.11-35.87L630.11-35.87Q626.64-35.87 625.11-32.40L625.11-32.40L625.11-32.40Q623.59-28.93 623.59-20.71L623.59-20.71L623.59-20.71Q623.59-3.09 630.11-3.09L630.11-3.09L630.11-3.09Q633.58-3.09 635.11-7.79L635.11-7.79L635.11-7.79Q636.63-12.50 636.63-20.71L636.63-20.71L636.63-20.71Q636.63-28.93 635.11-32.40L635.11-32.40L635.11-32.40Q633.58-35.87 630.11-35.87L630.11-35.87ZM613.87-22.18L613.87-22.18Q613.87-39.73 630.11-39.73L630.11-39.73L630.11-39.73Q646.35-39.73 646.35-22.18L646.35-22.18L646.35-22.18Q646.35-11.53 641.88-5.32L641.88-5.32L641.88-5.32Q637.52 0.77 630.11 0.77L630.11 0.77L630.11 0.77Q622.70 0.77 618.34-5.32L618.34-5.32L618.34-5.32Q613.87-11.53 613.87-22.18L613.87-22.18ZM667.95 0L656.57 0L656.57 0Q658.35-6.09 658.35-20.95L658.35-20.95L658.35-20.95Q658.35-31.52 656.65-35.37L656.65-35.37L656.65-35.37Q655.95-36.95 654.18-38.96L654.18-38.96L667.87-38.96L667.87-38.96Q667.18-36.53 666.76-32.29L666.76-32.29L666.76-32.29Q670.38-36.84 676.86-38.73L676.86-38.73L676.86-38.73Q679.64-39.54 680.91-41.27L680.91-41.27L680.91-41.27Q682.19-38.23 682.19-36.03L682.19-36.03L682.19-36.03Q682.19-33.83 681.95-31.96L681.95-31.96L681.95-31.96Q681.72-30.09 681.26-28.31L681.26-28.31L681.26-28.31Q680.26-24.49 678.60-22.37L678.60-22.37L678.60-22.37Q677.17-29.90 674.16-31.17L674.16-31.17L674.16-31.17Q670.69-32.67 667.37-27.08L667.37-27.08L667.37-27.08Q666.68-25.92 666.22-24.61L666.22-24.61L666.22-24.61Q666.18-23.72 666.18-22.80L666.18-22.80L666.18-22.80Q666.18-21.87 666.18-20.95L666.18-20.95L666.18-20.95Q666.18-6.09 667.95 0L667.95 0ZM721.84-36.49L721.84-36.49L721.84-36.49Q726.16-39.73 732.64-39.73L732.64-39.73L732.64-39.73Q741.82-39.73 744.64-32.13L744.64-32.13L744.64-32.13Q745.56-29.63 745.56-25.83L745.56-25.83L745.56-25.83Q745.56-22.03 744.69-18.42L744.69-18.42L744.69-18.42Q743.83-14.81 742.28-11.92L742.28-11.92L742.28-11.92Q740.74-9.03 738.64-6.83L738.64-6.83L738.64-6.83Q736.54-4.63 734.07-3.16L734.07-3.16L734.07-3.16Q729.13-0.19 723.58-0.04L723.58-0.04L723.58-0.04Q723.65 2.04 723.81 4.05L723.81 4.05L724.19 8.14L724.19 8.14Q724.54 12.31 726.58 15.20L726.58 15.20L727.90 16.97L713.82 16.97L713.82 16.97Q714.90 13.27 715.07 9.57L715.07 9.57L715.07 9.57Q715.24 5.86 715.34 3.22L715.34 3.22L715.34 3.22Q715.44 0.58 715.47-2.24L715.47-2.24L715.47-2.24Q715.63-8.79 715.63-13.73L715.63-13.73L715.63-13.73Q715.63-29.63 714.63-33.17L714.63-33.17L714.63-33.17Q714.01-35.37 713.04-36.68L713.04-36.68L711.42-38.96L721.80-38.96L721.80-38.96Q721.57-38.19 721.84-36.49ZM735.92-24.80L735.92-24.80L735.92-24.80Q735.92-35.87 730.33-35.87L730.33-35.87L730.33-35.87Q727.55-35.87 725.70-33.41L725.70-33.41L725.70-33.41Q723.69-30.74 723.69-26.11L723.69-26.11L723.42-7.83L723.42-5.71L723.42-5.71Q723.42-4.67 723.46-3.59L723.46-3.59L723.46-3.59Q729.05-4.44 732.52-10.30L732.52-10.30L732.52-10.30Q735.92-16.09 735.92-24.80ZM764.77-27.77L764.73-17.67L764.73-17.67Q764.73-5.17 766.24 0L766.24 0L754.86 0L754.86 0Q755.94-3.74 756.21-8.83L756.21-8.83L756.21-8.83Q756.79-21.14 756.79-27.93L756.79-27.93L756.79-27.93Q756.79-34.72 756.75-37.05L756.75-37.05L756.75-37.05Q756.71-39.38 756.67-41.74L756.67-41.74L756.67-41.74Q756.44-50.11 755.88-52.29L755.88-52.29L755.88-52.29Q755.32-54.47 754.84-55.45L754.84-55.45L754.84-55.45Q754.36-56.43 753.74-57.24L753.74-57.24L752.47-59.02L766.55-59.02L766.55-59.02Q765.47-55.12 765.29-51.55L765.29-51.55L765.29-51.55Q765.12-47.99 765.02-45.25L765.02-45.25L765.02-45.25Q764.93-42.51 764.85-39.54L764.85-39.54L764.85-39.54Q764.77-34.60 764.77-27.77L764.77-27.77ZM804.43-20.60L804.43-20.60L804.31-13.19L804.31-13.19Q804.31-6.29 805.58-3.78L805.58-3.78L805.58-3.78Q806.36-2.28 807.40-1.47L807.40-1.47L809.21 0L798.02 0L796.83-4.47L796.83-4.47Q792.47 0.77 784.41 0.77L784.41 0.77L784.41 0.77Q779.82 0.77 777.00-2.31L777.00-2.31L777.00-2.31Q774.53-5.09 774.53-8.87L774.53-8.87L774.53-8.87Q774.53-12.65 776.33-15.47L776.33-15.47L776.33-15.47Q778.12-18.28 781.05-20.14L781.05-20.14L781.05-20.14Q786.84-23.72 795.59-23.88L795.59-23.88L795.59-24.30L795.59-24.30Q795.59-33.68 792.70-35.30L792.70-35.30L792.70-35.30Q791.66-35.87 790.02-35.87L790.02-35.87L790.02-35.87Q788.38-35.87 786.76-34.79L786.76-34.79L786.76-34.79Q785.14-33.71 783.83-32.02L783.83-32.02L783.83-32.02Q781.21-28.58 780.09-23.92L780.09-23.92L780.09-23.92Q776.65-25.96 776.65-31.75L776.65-31.75L776.65-31.75Q776.65-34.10 777.27-37.03L777.27-37.03L777.27-37.03Q778.74-37.03 780.05-37.46L780.05-37.46L783.02-38.38L783.02-38.38Q787.38-39.73 791.54-39.73L791.54-39.73L791.54-39.73Q795.71-39.73 798.20-38.50L798.20-38.50L798.20-38.50Q800.69-37.26 802.07-34.83L802.07-34.83L802.07-34.83Q804.43-30.71 804.43-20.60ZM782.86-8.10L782.86-8.10Q782.86-5.71 783.96-4.40L783.96-4.40L783.96-4.40Q785.06-3.09 786.72-3.09L786.72-3.09L786.72-3.09Q788.38-3.09 789.92-3.95L789.92-3.95L789.92-3.95Q791.47-4.82 792.70-6.33L792.70-6.33L792.70-6.33Q795.59-9.76 795.59-14.39L795.59-14.39L795.59-20.10L795.59-20.10Q790.19-19.60 786.68-16.51L786.68-16.51L786.68-16.51Q782.86-13.19 782.86-8.10L782.86-8.10ZM836.25-11.61L836.25-12.77L836.29-21.33L836.29-21.33Q836.29-29.39 835.86-31.86L835.86-31.86L835.86-31.86Q835.44-34.33 835.19-35.31L835.19-35.31L835.19-35.31Q834.94-36.30 834.59-37.15L834.59-37.15L833.86-38.96L845.24-38.96L845.05-37.19L845.05-37.19Q844.81-35.33 844.74-31.79L844.74-31.79L844.58-25.92L844.58-25.92Q844.39-19.17 844.39-13.31L844.39-13.31L844.39-13.31Q844.39-7.44 843.68-3.28L843.68-3.28L843.68-3.28Q842.96 0.89 841.77 4.05L841.77 4.05L841.77 4.05Q840.57 7.21 839.03 9.51L839.03 9.51L839.03 9.51Q837.48 11.80 835.79 13.35L835.79 13.35L835.79 13.35Q832.86 16.12 829.23 17.36L829.23 17.36L829.23 17.36Q828.46 17.05 827.74 16.22L827.74 16.22L827.74 16.22Q827.03 15.39 826.88 14.66L826.88 14.66L826.88 14.66Q830.27 12.92 832.32 9.33L832.32 9.33L832.32 9.33Q835.21 4.24 835.98-5.36L835.98-5.36L835.98-5.36Q831.51 0.77 824.99 0.77L824.99 0.77L824.99 0.77Q820.36 0.77 817.81-2.85L817.81-2.85L817.81-2.85Q815.38-6.36 815.38-12.50L815.38-12.50L815.38-17.71L815.38-17.71Q815.38-19.44 815.34-21.25L815.34-21.25L815.34-24.76L815.34-24.76Q815.27-28.12 815.09-29.99L815.09-29.99L815.09-29.99Q814.92-31.86 814.71-33.12L814.71-33.12L814.71-33.12Q814.49-34.37 814.19-35.35L814.19-35.35L814.19-35.35Q813.88-36.34 813.49-37.19L813.49-37.19L812.64-38.96L824.41-38.96L824.41-38.96Q823.41-33.44 823.41-18.09L823.41-18.09L823.41-18.09Q823.41-11.84 824.06-9.76L824.06-9.76L824.06-9.76Q824.72-7.68 825.70-6.73L825.70-6.73L825.70-6.73Q826.68-5.79 828.23-5.79L828.23-5.79L828.23-5.79Q829.77-5.79 830.95-6.27L830.95-6.27L830.95-6.27Q832.12-6.75 833.09-7.56L833.09-7.56L833.09-7.56Q834.98-9.03 836.25-11.61L836.25-11.61ZM837.48-14.89L837.72-15.82L837.48-14.89ZM866.59-49.34L866.59-49.34L866.59-49.34Q865.80-48.06 864.68-47.20L864.68-47.20L864.68-47.20Q863.56-46.33 862.13-46.33L862.13-46.33L862.13-46.33Q860.71-46.33 859.59-47.20L859.59-47.20L859.59-47.20Q858.47-48.06 857.70-49.34L857.70-49.34L857.70-49.34Q856.12-51.96 856.12-54.89L856.12-54.89L856.12-54.89Q856.12-58.44 859.36-59.64L859.36-59.64L859.36-59.64Q860.51-60.06 862.17-60.06L862.17-60.06L862.17-60.06Q866.76-60.06 867.88-56.82L867.88-56.82L867.88-56.82Q868.23-55.89 868.23-54.76L868.23-54.76L868.23-54.76Q868.23-53.62 867.80-52.11L867.80-52.11L867.80-52.11Q867.38-50.61 866.59-49.34ZM867.50 0L856.12 0L856.12 0Q857.89-6.09 857.89-20.95L857.89-20.95L857.89-20.95Q857.89-31.40 856.04-35.33L856.04-35.33L856.04-35.33Q855.58-36.34 855.00-37.19L855.00-37.19L853.72-38.96L867.42-38.96L867.42-38.96Q865.72-32.60 865.72-19.34L865.72-19.34L865.72-19.34Q865.72-6.09 867.50 0L867.50 0ZM888.79 0L877.72 0L877.72 0Q879.49-6.09 879.49-20.95L879.49-20.95L879.49-20.95Q879.49-31.52 877.64-35.37L877.64-35.37L877.64-35.37Q877.18-36.34 876.60-37.19L876.60-37.19L875.33-38.96L888.71-38.96L888.71-38.96Q888.13-37.03 887.94-35.33L887.94-35.33L887.63-32.56L887.63-32.56Q892.30-39.73 899.51-39.73L899.51-39.73L899.51-39.73Q904.18-39.73 906.80-36.11L906.80-36.11L906.80-36.11Q909.35-32.56 909.35-26.50L909.35-26.50L909.35-22.37L909.35-22.37Q909.35-11.77 909.54-9.41L909.54-9.41L909.54-9.41Q909.73-7.06 909.85-5.82L909.85-5.82L909.85-5.82Q909.97-4.59 910.12-3.63L910.12-3.63L910.12-3.63Q910.39-1.81 910.93 0L910.93 0L899.63 0L899.63 0Q901.40-6.09 901.40-20.95L901.40-20.95L901.40-20.95Q901.40-26.89 900.65-29.08L900.65-29.08L900.65-29.08Q899.90-31.28 898.86-32.23L898.86-32.23L898.86-32.23Q897.81-33.17 896.12-33.17L896.12-33.17L896.12-33.17Q892.99-33.17 890.45-30.71L890.45-30.71L890.45-30.71Q888.25-28.58 887.09-25.30L887.09-25.30L887.09-25.30Q887.01-24.26 887.01-23.14L887.01-23.14L887.01-20.95L887.01-20.95Q887.01-6.09 888.79 0L888.79 0ZM940.44-0.93L940.44-0.93L940.44-0.93Q936.70 0.77 933.07 0.77L933.07 0.77L933.07 0.77Q929.45 0.77 927.05-0.15L927.05-0.15L927.05-0.15Q924.66-1.08 922.97-2.85L922.97-2.85L922.97-2.85Q919.42-6.56 919.42-13.08L919.42-13.08L919.42-13.08Q919.42-25.65 926.63-32.67L926.63-32.67L926.63-32.67Q933.07-38.96 942.14-38.96L942.14-38.96L950.93-38.96L950.93-38.96Q949.85-35.22 949.70-31.79L949.70-31.79L949.70-31.79Q949.54-28.35 949.49-26.17L949.49-26.17L949.49-26.17Q949.43-23.99 949.39-21.76L949.39-21.76L949.39-21.76Q949.31-17.28 949.31-12.61L949.31-12.61L949.31-12.61Q949.31-7.95 948.58-3.57L948.58-3.57L948.58-3.57Q947.85 0.81 946.63 4.09L946.63 4.09L946.63 4.09Q945.42 7.37 943.85 9.68L943.85 9.68L943.85 9.68Q942.29 12.00 940.59 13.58L940.59 13.58L940.59 13.58Q937.82 16.16 934.15 17.36L934.15 17.36L934.15 17.36Q933.38 17.05 932.67 16.24L932.67 16.24L932.67 16.24Q931.95 15.43 931.80 14.66L931.80 14.66L931.80 14.66Q936.20 12.88 938.78 5.82L938.78 5.82L938.78 5.82Q939.78 3.09 940.44-0.93ZM941.29-12.88L941.29-12.88L941.40-24.46L941.40-24.46Q941.40-31.44 940.90-35.03L940.90-35.03L940.90-35.03Q935.42-33.95 932.26-28.54L932.26-28.54L932.26-28.54Q929.06-23.03 929.06-14.62L929.06-14.62L929.06-14.62Q929.06-9.41 929.85-7.25L929.85-7.25L929.85-7.25Q930.64-5.09 931.74-4.09L931.74-4.09L931.74-4.09Q932.84-3.09 934.40-3.09L934.40-3.09L934.40-3.09Q935.96-3.09 937.16-3.70L937.16-3.70L937.16-3.70Q938.36-4.32 939.28-5.55L939.28-5.55L939.28-5.55Q941.29-8.22 941.29-12.88ZM987.15-28.54L987.15-36.65L987.15-36.65Q991.90-35.49 1005.07-35.49L1005.07-35.49L1005.07-35.49Q1018.24-35.49 1023.10-36.65L1023.10-36.65L1023.10-28.54L1023.10-28.54Q1018.24-29.70 1005.07-29.70L1005.07-29.70L1005.07-29.70Q991.90-29.70 987.15-28.54L987.15-28.54ZM987.15-13.12L987.15-21.22L987.15-21.22Q991.90-20.06 1005.07-20.06L1005.07-20.06L1005.07-20.06Q1018.24-20.06 1023.10-21.22L1023.10-21.22L1023.10-13.12L1023.10-13.12Q1018.24-14.27 1005.07-14.27L1005.07-14.27L1005.07-14.27Q991.90-14.27 987.15-13.12L987.15-13.12ZM1033.44 6.17L1033.44 6.17L1033.44 6.17Q1034.17 7.29 1035.76 8.10L1035.76 8.10L1035.76 8.10Q1041.93 3.59 1046.67-6.94L1046.67-6.94L1046.67-6.94Q1051.96-18.75 1051.96-32.02L1051.96-32.02L1051.96-32.02Q1051.96-57.36 1035.76-68.28L1035.76-68.28L1035.76-68.28Q1034.17-67.47 1033.44-66.35L1033.44-66.35L1033.44-66.35Q1037.42-61.99 1040.00-52.77L1040.00-52.77L1040.00-52.77Q1042.70-43.24 1042.70-32.02L1042.70-32.02L1042.70-32.02Q1042.70-13.27 1037.07-0.15L1037.07-0.15L1037.07-0.15Q1035.41 3.74 1033.44 6.17Z" fill="#d2256c" stroke="#ff803f" stroke-width="1.5"></path></g></g><style>text {
  font-size: 64px;
  font-family: Arial Black;
  dominant-baseline: central;
  text-anchor: middle;
}</style></svg>