<svg width="1171.580029296875px" height="122.021240234375px" xmlns="http://www.w3.org/2000/svg" viewBox="-335.7900146484375 13.9893798828125 1171.580029296875 122.021240234375" style="background: none;" preserveAspectRatio="xMidYMid"><defs><filter id="editing-crystal" x="-100%" y="-100%" width="300%" height="300%"><feMorphology operator="dilate" radius="2" in="SourceGraphic" result="border"></feMorphology><feFlood flood-color="#fff582" result="black"></feFlood><feMorphology operator="dilate" radius="2" in="SourceGraphic" result="erode"></feMorphology><feGaussianBlur in="erode" stdDeviation="4" result="blur"></feGaussianBlur><feOffset in="blur" dx="2" dy="2" result="offset"></feOffset><feComposite operator="atop" in="offset" in2="black" result="merge"></feComposite><feComposite operator="in" in="merge" in2="SourceGraphic" result="inner-shadow"></feComposite><feGaussianBlur in="SourceGraphic" stdDeviation="2.5" result="shadow1"></feGaussianBlur><feOffset in="shadow1" dx="0" dy="5" result="shadow"></feOffset><feSpecularLighting in="SourceGraphic" result="specular" surfaceScale="1.5" specularConstant="100" specularExponent="10" lighting-color="#ff0000"><fePointLight x="250" y="-300" z="-400"></fePointLight></feSpecularLighting><feGaussianBlur in="specular" stdDeviation="1" result="specular2"></feGaussianBlur><feComposite operator="in" in="specular2" in2="SourceAlpha" result="specular3"></feComposite><feMerge result="merge"><feMergeNode in="border"></feMergeNode><feMergeNode in="inner-shadow"></feMergeNode><feMergeNode in="specular3"></feMergeNode></feMerge><feComponentTransfer in="merge" result="final"><feFuncA type="linear" slope="0.9" intercept="0"></feFuncA></feComponentTransfer><feMerge><feMergeNode in="shadow"></feMergeNode><feMergeNode in="final"></feMergeNode></feMerge></filter></defs><g filter="url(#editing-crystal)"><g transform="translate(-173.82375860214233, 98.7578125)"><path d="M2.69-39.68L2.69-39.68L2.69-39.68Q3.58-41.47 5.54-42.46L5.54-42.46L5.54-42.46Q7.49-43.46 10.18-43.46L10.18-43.46L10.18-43.46Q14.40-43.46 16.93-40.42L16.93-40.42L16.93-40.42Q19.46-37.38 19.46-30.72L19.46-30.72L19.46-7.87L34.11-42.18L41.66-42.18L43.39-9.79L43.20-7.94L58.43-42.18L67.20-42.18L46.72 0L33.09 0L31.81-19.46L23.36 0L7.94 0L6.02-30.72L6.02-30.72Q5.82-34.18 4.90-36.45L4.90-36.45L4.90-36.45Q3.97-38.72 2.69-39.68ZM89.28-10.82L89.28-10.82L89.28-10.82Q90.88-9.73 90.88-7.33L90.88-7.33L90.88-7.33Q90.88-4.93 89.66-3.39L89.66-3.39L89.66-3.39Q88.45-1.86 86.46-0.83L86.46-0.83L86.46-0.83Q82.37 1.28 77.95 1.28L77.95 1.28L77.95 1.28Q73.54 1.28 70.94 0.32L70.94 0.32L70.94 0.32Q68.35-0.64 66.62-2.43L66.62-2.43L66.62-2.43Q63.23-5.82 63.23-12.03L63.23-12.03L63.23-12.03Q63.23-21.70 68.48-27.58L68.48-27.58L68.48-27.58Q74.11-33.92 83.90-33.92L83.90-33.92L83.90-33.92Q89.98-33.92 92.99-31.36L92.99-31.36L92.99-31.36Q95.23-29.44 95.23-26.30L95.23-26.30L95.23-26.30Q95.23-15.04 75.78-15.04L75.78-15.04L75.78-15.04Q75.52-13.38 75.52-11.97L75.52-11.97L75.52-11.97Q75.52-9.02 76.83-7.90L76.83-7.90L76.83-7.90Q78.14-6.78 80.58-6.78L80.58-6.78L80.58-6.78Q83.01-6.78 85.60-7.90L85.60-7.90L85.60-7.90Q88.19-9.02 89.28-10.82ZM76.22-17.79L76.22-17.79L76.22-17.79Q80.77-17.79 83.39-20.61L83.39-20.61L83.39-20.61Q86.02-23.30 86.02-27.58L86.02-27.58L86.02-27.58Q86.02-29.06 85.47-29.86L85.47-29.86L85.47-29.86Q84.93-30.66 83.84-30.66L83.84-30.66L83.84-30.66Q82.75-30.66 81.82-30.24L81.82-30.24L81.82-30.24Q80.90-29.82 79.94-28.42L79.94-28.42L79.94-28.42Q77.57-25.22 76.22-17.79ZM112.70-3.52L112.70-3.52L112.70-3.52Q110.72 1.28 104.38 1.28L104.38 1.28L104.38 1.28Q101.18 1.28 99.14-0.96L99.14-0.96L99.14-0.96Q97.47-2.82 97.47-4.93L97.47-4.93L97.47-4.93Q97.47-9.73 99.71-20.22L99.71-20.22L104.38-44.80L117.38-46.08L111.17-13.70L111.17-13.70Q110.08-8.96 110.08-7.30L110.08-7.30L110.08-7.30Q110.08-3.65 112.70-3.52ZM149.57-26.62L149.57-26.62L149.57-26.62Q149.57-23.94 147.33-22.27L147.33-22.27L147.33-22.27Q145.09-20.61 141.44-20.61L141.44-20.61L141.44-20.61Q139.90-20.61 139.01-21.06L139.01-21.06L139.01-21.06Q139.71-22.72 139.94-24.80L139.94-24.80L139.94-24.80Q140.16-26.88 140.16-27.46L140.16-27.46L140.16-27.46Q140.16-30.14 138.30-30.14L138.30-30.14L138.30-30.14Q137.02-30.14 135.58-28.54L135.58-28.54L135.58-28.54Q134.14-26.94 132.93-24.45L132.93-24.45L132.93-24.45Q130.24-18.69 130.24-12.86L130.24-12.86L130.24-12.86Q130.24-9.66 131.46-8.22L131.46-8.22L131.46-8.22Q132.67-6.78 135.36-6.78L135.36-6.78L135.36-6.78Q139.07-6.78 142.02-9.86L142.02-9.86L142.02-9.86Q142.85-10.82 143.30-11.90L143.30-11.90L143.30-11.90Q145.73-10.62 145.73-7.10L145.73-7.10L145.73-7.10Q145.73-3.52 141.76-1.15L141.76-1.15L141.76-1.15Q137.66 1.28 131.14 1.28L131.14 1.28L131.14 1.28Q118.14 1.28 118.14-12.48L118.14-12.48L118.14-12.48Q118.14-22.53 123.84-28.29L123.84-28.29L123.84-28.29Q129.34-33.92 139.46-33.92L139.46-33.92L139.46-33.92Q149.57-33.92 149.57-26.62ZM165.25 1.28L165.25 1.28L165.25 1.28Q151.17 1.28 151.17-11.97L151.17-11.97L151.17-11.97Q151.17-21.38 156.35-27.46L156.35-27.46L156.35-27.46Q161.86-33.92 171.39-33.92L171.39-33.92L171.39-33.92Q178.30-33.92 181.82-30.72L181.82-30.72L181.82-30.72Q185.34-27.52 185.34-20.80L185.34-20.80L185.34-20.80Q185.34-10.56 179.84-4.61L179.84-4.61L179.84-4.61Q174.46 1.28 165.25 1.28ZM166.91-26.56L166.91-26.56L166.91-26.56Q166.14-24.83 165.54-22.24L165.54-22.24L165.54-22.24Q164.93-19.65 164.16-15.55L164.16-15.55L164.16-15.55Q163.39-11.46 163.39-6.40L163.39-6.40L163.39-6.40Q163.39-4.74 163.94-3.65L163.94-3.65L163.94-3.65Q164.48-2.56 165.95-2.56L165.95-2.56L165.95-2.56Q167.42-2.56 168.35-3.26L168.35-3.26L168.35-3.26Q169.28-3.97 169.98-5.63L169.98-5.63L169.98-5.63Q171.26-8.58 172.29-14.05L172.29-14.05L172.29-14.05Q173.31-19.52 173.41-21.89L173.41-21.89L173.41-21.89Q173.50-24.26 173.50-26.02L173.50-26.02L173.50-26.02Q173.50-27.78 172.99-28.93L172.99-28.93L172.99-28.93Q172.48-30.08 171.04-30.08L171.04-30.08L171.04-30.08Q169.60-30.08 168.64-29.18L168.64-29.18L168.64-29.18Q167.68-28.29 166.91-26.56ZM235.20 1.28L235.20 1.28L235.20 1.28Q227.46 1.28 227.46-4.74L227.46-4.74L227.46-4.74Q227.46-7.36 228.58-12.45L228.58-12.45L228.58-12.45Q229.70-17.54 230.08-19.58L230.08-19.58L230.08-19.58Q230.98-24.26 230.98-25.73L230.98-25.73L230.98-25.73Q230.98-28.99 228.54-28.99L228.54-28.99L228.54-28.99Q226.94-28.99 225.41-26.78L225.41-26.78L225.41-26.78Q223.87-24.58 223.17-20.16L223.17-20.16L219.20 0L206.72 1.28L210.18-16.13L210.18-16.13Q210.75-19.01 211.26-22.27L211.26-22.27L211.26-22.27Q211.78-25.54 211.78-26.05L211.78-26.05L211.78-26.05Q211.78-28.99 209.60-28.99L209.60-28.99L209.60-28.99Q208.13-28.99 206.53-26.82L206.53-26.82L206.53-26.82Q204.93-24.64 204.03-20.16L204.03-20.16L200.13 0L187.52 1.28L194.24-32.64L204.67-33.92L203.58-27.46L203.58-27.46Q205.25-30.91 208.32-32.42L208.32-32.42L208.32-32.42Q211.39-33.92 216.19-33.92L216.19-33.92L216.19-33.92Q218.94-33.92 220.74-32.58L220.74-32.58L220.74-32.58Q222.53-31.23 223.10-29.06L223.10-29.06L223.10-29.06Q224.19-31.30 226.98-32.61L226.98-32.61L226.98-32.61Q229.76-33.92 233.18-33.92L233.18-33.92L233.18-33.92Q236.61-33.92 238.30-33.18L238.30-33.18L238.30-33.18Q240-32.45 241.02-31.23L241.02-31.23L241.02-31.23Q242.75-28.99 242.75-24.90L242.75-24.90L242.75-24.90Q242.75-20.86 241.02-12.48L241.02-12.48L241.02-12.48Q240.13-8.38 240.13-6.88L240.13-6.88L240.13-6.88Q240.13-5.38 240.99-4.48L240.99-4.48L240.99-4.48Q241.86-3.58 243.14-3.46L243.14-3.46L243.14-3.46Q242.50-1.28 240.29 0L240.29 0L240.29 0Q238.08 1.28 235.20 1.28ZM273.98-10.82L273.98-10.82L273.98-10.82Q275.58-9.73 275.58-7.33L275.58-7.33L275.58-7.33Q275.58-4.93 274.37-3.39L274.37-3.39L274.37-3.39Q273.15-1.86 271.17-0.83L271.17-0.83L271.17-0.83Q267.07 1.28 262.66 1.28L262.66 1.28L262.66 1.28Q258.24 1.28 255.65 0.32L255.65 0.32L255.65 0.32Q253.06-0.64 251.33-2.43L251.33-2.43L251.33-2.43Q247.94-5.82 247.94-12.03L247.94-12.03L247.94-12.03Q247.94-21.70 253.18-27.58L253.18-27.58L253.18-27.58Q258.82-33.92 268.61-33.92L268.61-33.92L268.61-33.92Q274.69-33.92 277.70-31.36L277.70-31.36L277.70-31.36Q279.94-29.44 279.94-26.30L279.94-26.30L279.94-26.30Q279.94-15.04 260.48-15.04L260.48-15.04L260.48-15.04Q260.22-13.38 260.22-11.97L260.22-11.97L260.22-11.97Q260.22-9.02 261.54-7.90L261.54-7.90L261.54-7.90Q262.85-6.78 265.28-6.78L265.28-6.78L265.28-6.78Q267.71-6.78 270.30-7.90L270.30-7.90L270.30-7.90Q272.90-9.02 273.98-10.82ZM260.93-17.79L260.93-17.79L260.93-17.79Q265.47-17.79 268.10-20.61L268.10-20.61L268.10-20.61Q270.72-23.30 270.72-27.58L270.72-27.58L270.72-27.58Q270.72-29.06 270.18-29.86L270.18-29.86L270.18-29.86Q269.63-30.66 268.54-30.66L268.54-30.66L268.54-30.66Q267.46-30.66 266.53-30.24L266.53-30.24L266.53-30.24Q265.60-29.82 264.64-28.42L264.64-28.42L264.64-28.42Q262.27-25.22 260.93-17.79ZM296.32-6.40L296.32-6.40L296.32-6.40Q296.32-8.13 297.22-12.48L297.22-12.48L300.61-29.76L296.83-29.76L297.09-31.68L297.09-31.68Q304.77-33.98 312.19-39.62L312.19-39.62L315.26-39.62L313.73-32.64L318.72-32.64L318.14-29.76L313.22-29.76L309.95-12.48L309.95-12.48Q309.12-8.51 309.12-7.17L309.12-7.17L309.12-7.17Q309.12-4.10 311.81-3.46L311.81-3.46L311.81-3.46Q311.17-1.28 308.86 0L308.86 0L308.86 0Q306.56 1.28 303.30 1.28L303.30 1.28L303.30 1.28Q300.03 1.28 298.18-0.77L298.18-0.77L298.18-0.77Q296.32-2.82 296.32-6.40ZM332.10 1.28L332.10 1.28L332.10 1.28Q318.02 1.28 318.02-11.97L318.02-11.97L318.02-11.97Q318.02-21.38 323.20-27.46L323.20-27.46L323.20-27.46Q328.70-33.92 338.24-33.92L338.24-33.92L338.24-33.92Q345.15-33.92 348.67-30.72L348.67-30.72L348.67-30.72Q352.19-27.52 352.19-20.80L352.19-20.80L352.19-20.80Q352.19-10.56 346.69-4.61L346.69-4.61L346.69-4.61Q341.31 1.28 332.10 1.28ZM333.76-26.56L333.76-26.56L333.76-26.56Q332.99-24.83 332.38-22.24L332.38-22.24L332.38-22.24Q331.78-19.65 331.01-15.55L331.01-15.55L331.01-15.55Q330.24-11.46 330.24-6.40L330.24-6.40L330.24-6.40Q330.24-4.74 330.78-3.65L330.78-3.65L330.78-3.65Q331.33-2.56 332.80-2.56L332.80-2.56L332.80-2.56Q334.27-2.56 335.20-3.26L335.20-3.26L335.20-3.26Q336.13-3.97 336.83-5.63L336.83-5.63L336.83-5.63Q338.11-8.58 339.14-14.05L339.14-14.05L339.14-14.05Q340.16-19.52 340.26-21.89L340.26-21.89L340.26-21.89Q340.35-24.26 340.35-26.02L340.35-26.02L340.35-26.02Q340.35-27.78 339.84-28.93L339.84-28.93L339.84-28.93Q339.33-30.08 337.89-30.08L337.89-30.08L337.89-30.08Q336.45-30.08 335.49-29.18L335.49-29.18L335.49-29.18Q334.53-28.29 333.76-26.56ZM395.90-9.86L395.90-9.86L395.90-9.86Q397.12-8.32 397.12-5.34L397.12-5.34L397.12-5.34Q397.12-2.37 394.85-0.54L394.85-0.54L394.85-0.54Q392.58 1.28 388.61 1.28L388.61 1.28L388.61 1.28Q386.30 1.28 382.72 0.77L382.72 0.77L382.72 0.77Q375.68-0.32 373.66-0.32L373.66-0.32L373.66-0.32Q371.65-0.32 370.82-0.22L370.82-0.22L370.82-0.22Q369.98-0.13 368.64 0L368.64 0L376.38-42.24L390.40-42.24L384.00-7.04L384.00-7.04Q384.83-6.91 385.60-6.91L385.60-6.91L387.20-6.91L387.20-6.91Q392.58-6.91 395.90-9.86ZM415.36 1.28L415.36 1.28L415.36 1.28Q401.28 1.28 401.28-11.97L401.28-11.97L401.28-11.97Q401.28-21.38 406.46-27.46L406.46-27.46L406.46-27.46Q411.97-33.92 421.50-33.92L421.50-33.92L421.50-33.92Q428.42-33.92 431.94-30.72L431.94-30.72L431.94-30.72Q435.46-27.52 435.46-20.80L435.46-20.80L435.46-20.80Q435.46-10.56 429.95-4.61L429.95-4.61L429.95-4.61Q424.58 1.28 415.36 1.28ZM417.02-26.56L417.02-26.56L417.02-26.56Q416.26-24.83 415.65-22.24L415.65-22.24L415.65-22.24Q415.04-19.65 414.27-15.55L414.27-15.55L414.27-15.55Q413.50-11.46 413.50-6.40L413.50-6.40L413.50-6.40Q413.50-4.74 414.05-3.65L414.05-3.65L414.05-3.65Q414.59-2.56 416.06-2.56L416.06-2.56L416.06-2.56Q417.54-2.56 418.46-3.26L418.46-3.26L418.46-3.26Q419.39-3.97 420.10-5.63L420.10-5.63L420.10-5.63Q421.38-8.58 422.40-14.05L422.40-14.05L422.40-14.05Q423.42-19.52 423.52-21.89L423.52-21.89L423.52-21.89Q423.62-24.26 423.62-26.02L423.62-26.02L423.62-26.02Q423.62-27.78 423.10-28.93L423.10-28.93L423.10-28.93Q422.59-30.08 421.15-30.08L421.15-30.08L421.15-30.08Q419.71-30.08 418.75-29.18L418.75-29.18L418.75-29.18Q417.79-28.29 417.02-26.56ZM453.18 1.28L453.18 1.28L453.18 1.28Q439.10 1.28 439.10-11.97L439.10-11.97L439.10-11.97Q439.10-21.38 444.29-27.46L444.29-27.46L444.29-27.46Q449.79-33.92 459.33-33.92L459.33-33.92L459.33-33.92Q466.24-33.92 469.76-30.72L469.76-30.72L469.76-30.72Q473.28-27.52 473.28-20.80L473.28-20.80L473.28-20.80Q473.28-10.56 467.78-4.61L467.78-4.61L467.78-4.61Q462.40 1.28 453.18 1.28ZM454.85-26.56L454.85-26.56L454.85-26.56Q454.08-24.83 453.47-22.24L453.47-22.24L453.47-22.24Q452.86-19.65 452.10-15.55L452.10-15.55L452.10-15.55Q451.33-11.46 451.33-6.40L451.33-6.40L451.33-6.40Q451.33-4.74 451.87-3.65L451.87-3.65L451.87-3.65Q452.42-2.56 453.89-2.56L453.89-2.56L453.89-2.56Q455.36-2.56 456.29-3.26L456.29-3.26L456.29-3.26Q457.22-3.97 457.92-5.63L457.92-5.63L457.92-5.63Q459.20-8.58 460.22-14.05L460.22-14.05L460.22-14.05Q461.25-19.52 461.34-21.89L461.34-21.89L461.34-21.89Q461.44-24.26 461.44-26.02L461.44-26.02L461.44-26.02Q461.44-27.78 460.93-28.93L460.93-28.93L460.93-28.93Q460.42-30.08 458.98-30.08L458.98-30.08L458.98-30.08Q457.54-30.08 456.58-29.18L456.58-29.18L456.58-29.18Q455.62-28.29 454.85-26.56ZM478.08-6.40L478.08-6.40L478.08-6.40Q478.08-8.13 478.98-12.48L478.98-12.48L482.37-29.76L478.59-29.76L478.85-31.68L478.85-31.68Q486.53-33.98 493.95-39.62L493.95-39.62L497.02-39.62L495.49-32.64L500.48-32.64L499.90-29.76L494.98-29.76L491.71-12.48L491.71-12.48Q490.88-8.51 490.88-7.17L490.88-7.17L490.88-7.17Q490.88-4.10 493.57-3.46L493.57-3.46L493.57-3.46Q492.93-1.28 490.62 0L490.62 0L490.62 0Q488.32 1.28 485.06 1.28L485.06 1.28L485.06 1.28Q481.79 1.28 479.94-0.77L479.94-0.77L479.94-0.77Q478.08-2.82 478.08-6.40ZM499.33-3.07L499.33-3.07L507.26-44.80L520.26-46.08L518.27-36.29L518.27-36.29Q517.57-33.28 516.67-31.17L516.67-31.17L516.67-31.17Q518.08-32.96 521.15-33.66L521.15-33.66L521.15-33.66Q522.05-33.92 523.14-33.92L523.14-33.92L523.14-33.92Q529.09-33.92 532.35-30.30L532.35-30.30L532.35-30.30Q535.62-26.69 535.62-19.71L535.62-19.71L535.62-19.71Q535.62-10.62 530.43-4.93L530.43-4.93L530.43-4.93Q524.86 1.28 514.75 1.28L514.75 1.28L514.75 1.28Q507.78 1.28 502.53-1.02L502.53-1.02L502.53-1.02Q500.67-1.86 499.33-3.07ZM515.58-22.40L512.19-3.65L512.19-3.65Q513.54-2.50 515.20-2.50L515.20-2.50L515.20-2.50Q516.86-2.50 517.82-3.14L517.82-3.14L517.82-3.14Q518.78-3.78 519.49-5.06L519.49-5.06L519.49-5.06Q521.41-8.51 522.94-19.07L522.94-19.07L522.94-19.07Q523.39-22.08 523.39-25.09L523.39-25.09L523.39-25.09Q523.39-28.10 522.72-29.06L522.72-29.06L522.72-29.06Q522.05-30.02 520.77-30.02L520.77-30.02L520.77-30.02Q516.86-30.02 515.58-22.40L515.58-22.40ZM553.41 1.28L553.41 1.28L553.41 1.28Q539.33 1.28 539.33-11.97L539.33-11.97L539.33-11.97Q539.33-21.38 544.51-27.46L544.51-27.46L544.51-27.46Q550.02-33.92 559.55-33.92L559.55-33.92L559.55-33.92Q566.46-33.92 569.98-30.72L569.98-30.72L569.98-30.72Q573.50-27.52 573.50-20.80L573.50-20.80L573.50-20.80Q573.50-10.56 568-4.61L568-4.61L568-4.61Q562.62 1.28 553.41 1.28ZM555.07-26.56L555.07-26.56L555.07-26.56Q554.30-24.83 553.70-22.24L553.70-22.24L553.70-22.24Q553.09-19.65 552.32-15.55L552.32-15.55L552.32-15.55Q551.55-11.46 551.55-6.40L551.55-6.40L551.55-6.40Q551.55-4.74 552.10-3.65L552.10-3.65L552.10-3.65Q552.64-2.56 554.11-2.56L554.11-2.56L554.11-2.56Q555.58-2.56 556.51-3.26L556.51-3.26L556.51-3.26Q557.44-3.97 558.14-5.63L558.14-5.63L558.14-5.63Q559.42-8.58 560.45-14.05L560.45-14.05L560.45-14.05Q561.47-19.52 561.57-21.89L561.57-21.89L561.57-21.89Q561.66-24.26 561.66-26.02L561.66-26.02L561.66-26.02Q561.66-27.78 561.15-28.93L561.15-28.93L561.15-28.93Q560.64-30.08 559.20-30.08L559.20-30.08L559.20-30.08Q557.76-30.08 556.80-29.18L556.80-29.18L556.80-29.18Q555.84-28.29 555.07-26.56ZM585.79 0.19L585.79 0.19L585.79 0.19Q583.74 1.28 580.93 1.28L580.93 1.28L580.93 1.28Q578.11 1.28 576.58-0.16L576.58-0.16L576.58-0.16Q575.04-1.60 575.04-4.38L575.04-4.38L575.04-4.38Q575.04-7.17 576.99-9.89L576.99-9.89L576.99-9.89Q578.94-12.61 581.86-14.14L581.86-14.14L581.86-14.14Q584.77-15.68 586.82-16.58L586.82-16.58L582.78-25.86L582.78-25.86Q581.70-28.22 579.65-28.22L579.65-28.22L579.14-28.16L578.94-28.16L578.94-28.16Q579.33-30.40 581.95-32.13L581.95-32.13L581.95-32.13Q584.58-33.92 587.58-33.92L587.58-33.92L587.58-33.92Q592.45-33.92 594.69-29.06L594.69-29.06L595.20-28.03L597.95-21.25L597.95-21.25Q599.68-22.02 600.42-23.46L600.42-23.46L600.42-23.46Q601.15-24.90 601.15-27.74L601.15-27.74L601.15-27.74Q601.15-30.59 599.62-32.38L599.62-32.38L599.62-32.38Q602.05-33.92 605.25-33.92L605.25-33.92L605.25-33.92Q611.01-33.92 611.01-28.35L611.01-28.35L611.01-28.35Q611.01-22.27 603.39-18.75L603.39-18.75L599.55-16.96L603.01-8.06L603.01-8.06Q604.03-5.38 605.89-4.22L605.89-4.22L605.89-4.22Q606.66-3.71 607.55-3.65L607.55-3.65L607.55-3.65Q605.63-0.51 601.47 0.90L601.47 0.90L601.47 0.90Q600.19 1.28 598.46 1.28L598.46 1.28L598.46 1.28Q596.74 1.28 594.75 0.10L594.75 0.10L594.75 0.10Q592.77-1.09 592.06-2.94L592.06-2.94L588.54-12.10L588.54-12.10Q584.96-10.50 584.96-4.67L584.96-4.67L584.96-4.67Q584.96-1.98 585.79 0.19ZM659.33-13.25L659.33-13.25L659.33-13.25Q660.99-12.03 660.99-9.44L660.99-9.44L660.99-9.44Q660.99-6.85 659.87-5.02L659.87-5.02L659.87-5.02Q658.75-3.20 656.58-1.79L656.58-1.79L656.58-1.79Q651.90 1.22 643.74 1.22L643.74 1.22L643.74 1.22Q635.58 1.22 631.14-3.04L631.14-3.04L631.14-3.04Q626.69-7.30 626.69-14.85L626.69-14.85L626.69-14.85Q626.69-25.54 632.26-33.66L632.26-33.66L632.26-33.66Q636.48-39.68 644.03-42.24L644.03-42.24L644.03-42.24Q647.94-43.52 651.78-43.52L651.78-43.52L651.78-43.52Q655.62-43.52 657.98-43.01L657.98-43.01L657.98-43.01Q660.35-42.50 662.14-41.47L662.14-41.47L662.14-41.47Q666.05-39.23 666.05-35.65L666.05-35.65L666.05-35.65Q666.05-32.38 662.98-29.95L662.98-29.95L662.98-29.95Q660.16-27.78 657.86-27.78L657.86-27.78L657.86-27.78Q655.55-27.78 654.59-28.10L654.59-28.10L654.59-28.10Q654.85-30.40 654.85-31.90L654.85-31.90L654.85-31.90Q654.85-33.41 654.78-34.50L654.78-34.50L654.78-34.50Q654.72-35.58 654.40-36.61L654.40-36.61L654.40-36.61Q653.76-38.98 651.81-38.98L651.81-38.98L651.81-38.98Q649.86-38.98 647.90-37.15L647.90-37.15L647.90-37.15Q645.95-35.33 644.29-32.26L644.29-32.26L644.29-32.26Q640.51-25.28 640.51-17.02L640.51-17.02L640.51-17.02Q640.51-13.06 642.75-10.78L642.75-10.78L642.75-10.78Q644.99-8.51 649.79-8.51L649.79-8.51L649.79-8.51Q653.38-8.51 656.77-10.88L656.77-10.88L656.77-10.88Q658.24-11.90 659.33-13.25ZM681.60-3.52L681.60-3.52L681.60-3.52Q679.62 1.28 673.28 1.28L673.28 1.28L673.28 1.28Q670.08 1.28 668.03-0.96L668.03-0.96L668.03-0.96Q666.37-2.82 666.37-4.93L666.37-4.93L666.37-4.93Q666.37-9.73 668.61-20.22L668.61-20.22L673.28-44.80L686.27-46.08L680.06-13.70L680.06-13.70Q678.98-8.96 678.98-7.30L678.98-7.30L678.98-7.30Q678.98-3.65 681.60-3.52ZM702.40-3.52L702.40-3.52L702.40-3.52Q700.42 1.28 694.08 1.28L694.08 1.28L694.08 1.28Q690.82 1.28 688.77-0.96L688.77-0.96L688.77-0.96Q687.04-2.94 687.04-4.93L687.04-4.93L687.04-4.93Q687.04-10.11 689.41-20.22L689.41-20.22L691.78-32.64L704.77-33.92L700.86-13.70L700.86-13.70Q699.78-8.96 699.78-7.30L699.78-7.30L699.78-7.30Q699.78-3.65 702.40-3.52ZM692.93-41.54L692.93-41.54L692.93-41.54Q692.93-44.03 695.01-45.38L695.01-45.38L695.01-45.38Q697.09-46.72 700.10-46.72L700.10-46.72L700.10-46.72Q703.10-46.72 704.93-45.38L704.93-45.38L704.93-45.38Q706.75-44.03 706.75-41.54L706.75-41.54L706.75-41.54Q706.75-39.04 704.74-37.76L704.74-37.76L704.74-37.76Q702.72-36.48 699.71-36.48L699.71-36.48L699.71-36.48Q696.70-36.48 694.82-37.76L694.82-37.76L694.82-37.76Q692.93-39.04 692.93-41.54ZM739.26-26.62L739.26-26.62L739.26-26.62Q739.26-23.94 737.02-22.27L737.02-22.27L737.02-22.27Q734.78-20.61 731.14-20.61L731.14-20.61L731.14-20.61Q729.60-20.61 728.70-21.06L728.70-21.06L728.70-21.06Q729.41-22.72 729.63-24.80L729.63-24.80L729.63-24.80Q729.86-26.88 729.86-27.46L729.86-27.46L729.86-27.46Q729.86-30.14 728-30.14L728-30.14L728-30.14Q726.72-30.14 725.28-28.54L725.28-28.54L725.28-28.54Q723.84-26.94 722.62-24.45L722.62-24.45L722.62-24.45Q719.94-18.69 719.94-12.86L719.94-12.86L719.94-12.86Q719.94-9.66 721.15-8.22L721.15-8.22L721.15-8.22Q722.37-6.78 725.06-6.78L725.06-6.78L725.06-6.78Q728.77-6.78 731.71-9.86L731.71-9.86L731.71-9.86Q732.54-10.82 732.99-11.90L732.99-11.90L732.99-11.90Q735.42-10.62 735.42-7.10L735.42-7.10L735.42-7.10Q735.42-3.52 731.46-1.15L731.46-1.15L731.46-1.15Q727.36 1.28 720.83 1.28L720.83 1.28L720.83 1.28Q707.84 1.28 707.84-12.48L707.84-12.48L707.84-12.48Q707.84-22.53 713.54-28.29L713.54-28.29L713.54-28.29Q719.04-33.92 729.15-33.92L729.15-33.92L729.15-33.92Q739.26-33.92 739.26-26.62ZM757.50-30.34L757.50-30.34L757.50-30.34Q760.96-33.92 768.26-33.92L768.26-33.92L768.26-33.92Q772.29-33.92 774.50-31.78L774.50-31.78L774.50-31.78Q776.70-29.63 776.70-25.70L776.70-25.70L776.70-25.70Q776.70-21.76 774.50-18.98L774.50-18.98L774.50-18.98Q772.29-16.19 768.19-15.04L768.19-15.04L768.19-15.04Q768.51-13.76 768.96-12.42L768.96-12.42L769.86-9.86L769.86-9.86Q771.07-6.59 772.03-5.44L772.03-5.44L772.03-5.44Q772.99-4.29 774.27-3.90L774.27-3.90L774.27-3.90Q773.57-1.28 771.01 0.13L771.01 0.13L771.01 0.13Q768.96 1.28 766.14 1.28L766.14 1.28L766.14 1.28Q757.89 1.28 756.80-11.46L756.80-11.46L756.80-11.46Q756.61-13.25 756.61-15.04L756.61-15.04L756.61-15.04Q759.81-15.94 762.05-18.94L762.05-18.94L762.05-18.94Q764.29-21.95 764.29-25.47L764.29-25.47L764.29-25.47Q764.29-28.99 761.79-28.99L761.79-28.99L761.79-28.99Q760-28.99 758.59-27.01L758.59-27.01L758.59-27.01Q757.18-25.02 756.54-21.63L756.54-21.63L752.32 0L739.39 1.28L748.35-44.80L761.22-46.08L759.74-38.46L759.74-38.46Q758.78-33.09 757.50-30.34ZM805.57-10.82L805.57-10.82L805.57-10.82Q807.17-9.73 807.17-7.33L807.17-7.33L807.17-7.33Q807.17-4.93 805.95-3.39L805.95-3.39L805.95-3.39Q804.74-1.86 802.75-0.83L802.75-0.83L802.75-0.83Q798.66 1.28 794.24 1.28L794.24 1.28L794.24 1.28Q789.82 1.28 787.23 0.32L787.23 0.32L787.23 0.32Q784.64-0.64 782.91-2.43L782.91-2.43L782.91-2.43Q779.52-5.82 779.52-12.03L779.52-12.03L779.52-12.03Q779.52-21.70 784.77-27.58L784.77-27.58L784.77-27.58Q790.40-33.92 800.19-33.92L800.19-33.92L800.19-33.92Q806.27-33.92 809.28-31.36L809.28-31.36L809.28-31.36Q811.52-29.44 811.52-26.30L811.52-26.30L811.52-26.30Q811.52-15.04 792.06-15.04L792.06-15.04L792.06-15.04Q791.81-13.38 791.81-11.97L791.81-11.97L791.81-11.97Q791.81-9.02 793.12-7.90L793.12-7.90L793.12-7.90Q794.43-6.78 796.86-6.78L796.86-6.78L796.86-6.78Q799.30-6.78 801.89-7.90L801.89-7.90L801.89-7.90Q804.48-9.02 805.57-10.82ZM792.51-17.79L792.51-17.79L792.51-17.79Q797.06-17.79 799.68-20.61L799.68-20.61L799.68-20.61Q802.30-23.30 802.30-27.58L802.30-27.58L802.30-27.58Q802.30-29.06 801.76-29.86L801.76-29.86L801.76-29.86Q801.22-30.66 800.13-30.66L800.13-30.66L800.13-30.66Q799.04-30.66 798.11-30.24L798.11-30.24L798.11-30.24Q797.18-29.82 796.22-28.42L796.22-28.42L796.22-28.42Q793.86-25.22 792.51-17.79ZM833.73-17.98L833.73-17.98L833.73-17.98Q836.03-22.08 836.03-26.24L836.03-26.24L836.03-26.24Q836.03-28.99 834.05-28.99L834.05-28.99L834.05-28.99Q832.51-28.99 830.91-26.37L830.91-26.37L830.91-26.37Q829.25-23.74 828.74-20.35L828.74-20.35L825.41 0L812.16 1.28L818.69-32.64L829.25-33.92L828.10-27.46L828.10-27.46Q831.23-33.92 838.27-33.92L838.27-33.92L838.27-33.92Q841.98-33.92 844-32L844-32L844-32Q846.02-30.08 846.02-26.14L846.02-26.14L846.02-26.14Q846.02-22.21 843.42-19.71L843.42-19.71L843.42-19.71Q840.83-17.22 836.42-17.22L836.42-17.22L836.42-17.22Q834.50-17.22 833.73-17.98Z" fill="#d55b20" stroke="none" stroke-width="1.5"></path></g></g><style>text {
  font-size: 64px;
  font-family: Arial Black;
  dominant-baseline: central;
  text-anchor: middle;
}</style></svg>