<svg width="1670.6788085937499px" height="129.2037353515625px" xmlns="http://www.w3.org/2000/svg" viewBox="-585.3394042968749 10.39813232421875 1670.6788085937499 129.2037353515625" style="background: none;" preserveAspectRatio="xMidYMid"><defs><filter id="editing-crystal" x="-100%" y="-100%" width="300%" height="300%"><feMorphology operator="dilate" radius="2" in="SourceGraphic" result="border"></feMorphology><feFlood flood-color="#c6d63c" result="black"></feFlood><feMorphology operator="dilate" radius="2" in="SourceGraphic" result="erode"></feMorphology><feGaussianBlur in="erode" stdDeviation="4" result="blur"></feGaussianBlur><feOffset in="blur" dx="2" dy="2" result="offset"></feOffset><feComposite operator="atop" in="offset" in2="black" result="merge"></feComposite><feComposite operator="in" in="merge" in2="SourceGraphic" result="inner-shadow"></feComposite><feGaussianBlur in="SourceGraphic" stdDeviation="2.5" result="shadow1"></feGaussianBlur><feOffset in="shadow1" dx="0" dy="5" result="shadow"></feOffset><feSpecularLighting in="SourceGraphic" result="specular" surfaceScale="1.5" specularConstant="100" specularExponent="10" lighting-color="#923db3"><fePointLight x="250" y="-300" z="-400"></fePointLight></feSpecularLighting><feGaussianBlur in="specular" stdDeviation="1" result="specular2"></feGaussianBlur><feComposite operator="in" in="specular2" in2="SourceAlpha" result="specular3"></feComposite><feMerge result="merge"><feMergeNode in="border"></feMergeNode><feMergeNode in="inner-shadow"></feMergeNode><feMergeNode in="specular3"></feMergeNode></feMerge><feComponentTransfer in="merge" result="final"><feFuncA type="linear" slope="0.9" intercept="0"></feFuncA></feComponentTransfer><feMerge><feMergeNode in="shadow"></feMergeNode><feMergeNode in="final"></feMergeNode></feMerge></filter></defs><g filter="url(#editing-crystal)"><g transform="translate(-353.07037115097046, 106.4921875)"><path d="M10.72-7.53L10.72-12.03L10.75-18.56L10.75-22.13L10.75-22.13Q10.75-24.94 8.44-30.13L8.44-30.13L8.44-30.13Q6.66-34.03 6.03-35.28L6.03-35.28L5-37.34L5-37.34Q0.97-45.78-2.06-47.81L-2.06-47.81L10.53-47.81L10.53-47.81Q10.31-47.19 10.31-46.22L10.31-46.22L10.31-46.22Q10.31-45.25 10.47-44.17L10.47-44.17L10.47-44.17Q10.63-43.09 10.88-41.97L10.88-41.97L10.88-41.97Q11.34-39.81 12.09-38L12.09-38L13.59-34.38L13.59-34.38Q14.38-32.56 15.53-30.69L15.53-30.69L15.53-30.69Q17-32.91 17.88-35.03L17.88-35.03L19.06-37.97L19.06-37.97Q20.84-42.50 20.84-46.59L20.84-46.59L20.84-46.59Q20.84-47.28 20.75-47.81L20.75-47.81L29.34-47.81L29.34-47.81Q27.63-46 25.75-42.53L25.75-42.53L25.75-42.53Q23.88-39.06 23.13-37.50L23.13-37.50L21.53-34.03L21.53-34.03Q18.28-26.84 18.28-22.53L18.28-22.53L18.28-8.25L18.28-8.25Q18.28-5.06 19.03-3.66L19.03-3.66L19.03-3.66Q19.78-2.25 20.63-1.47L20.63-1.47L20.63-1.47Q21.47-0.69 22.66 0L22.66 0L6.69 0L6.69 0Q10.72-2.06 10.72-7.53L10.72-7.53ZM44.25-29.06L44.25-29.06Q41.44-29.06 40.20-26.25L40.20-26.25L40.20-26.25Q38.97-23.44 38.97-16.78L38.97-16.78L38.97-16.78Q38.97-2.50 44.25-2.50L44.25-2.50L44.25-2.50Q47.06-2.50 48.30-6.31L48.30-6.31L48.30-6.31Q49.53-10.13 49.53-16.78L49.53-16.78L49.53-16.78Q49.53-23.44 48.30-26.25L48.30-26.25L48.30-26.25Q47.06-29.06 44.25-29.06L44.25-29.06ZM31.09-17.97L31.09-17.97Q31.09-32.19 44.25-32.19L44.25-32.19L44.25-32.19Q57.41-32.19 57.41-17.97L57.41-17.97L57.41-17.97Q57.41-9.34 53.78-4.31L53.78-4.31L53.78-4.31Q50.25 0.63 44.25 0.63L44.25 0.63L44.25 0.63Q38.25 0.63 34.72-4.31L34.72-4.31L34.72-4.31Q31.09-9.34 31.09-17.97L31.09-17.97ZM90.53-30.13L90.53-28.63L90.06-14.66L90.06-14.66Q90.06-6.13 91.56-2.94L91.56-2.94L91.56-2.94Q92.09-1.78 93.44 0L93.44 0L84.75 0L84.75 0Q84.03-2.13 83.81-5.38L83.81-5.38L83.81-5.38Q80.19 0.63 74.47 0.63L74.47 0.63L74.47 0.63Q70.53 0.63 68.44-2.31L68.44-2.31L68.44-2.31Q66.38-5.16 66.38-10.13L66.38-10.13L66.38-14.34L66.38-14.34Q66.38-15.75 66.38-17.22L66.38-17.22L66.31-20.06L66.31-20.06Q66.28-22.78 66.14-24.30L66.14-24.30L66.14-24.30Q66-25.81 65.83-26.83L65.83-26.83L65.83-26.83Q65.66-27.84 65.41-28.64L65.41-28.64L65.41-28.64Q65.16-29.44 64.84-30.13L64.84-30.13L64.16-31.56L73.19-31.56L73.19-31.56Q73.22-31.06 73.22-30.63L73.22-30.63L73.22-29.72L73.22-29.72Q73.22-29.72 72.69-14.03L72.69-14.03L72.69-14.03Q72.69-9.44 73.28-7.78L73.28-7.78L73.28-7.78Q73.88-6.13 74.70-5.41L74.70-5.41L74.70-5.41Q75.53-4.69 76.91-4.69L76.91-4.69L76.91-4.69Q80.63-4.69 82.94-8.75L82.94-8.75L82.94-8.75Q83.56-9.91 83.97-11.09L83.97-11.09L83.97-11.09Q84.03-12.84 84.03-15.06L84.03-15.06L84.03-15.06Q84.03-26.47 82.34-30.13L82.34-30.13L81.66-31.56L90.56-31.56L90.56-31.56Q90.53-30.78 90.53-30.13L90.53-30.13ZM140.47-33.41L140.47-33.41L140.47-33.41Q141.31-31.53 141.31-29.63L141.31-29.63L141.31-29.63Q141.31-27.72 141.14-26.47L141.14-26.47L141.14-26.47Q140.97-25.22 140.63-24.06L140.63-24.06L140.63-24.06Q139.84-21.44 138.41-20.03L138.41-20.03L138.41-20.03Q137.44-24.88 136.30-26.31L136.30-26.31L136.30-26.31Q135.16-27.75 134.02-28.25L134.02-28.25L134.02-28.25Q132.88-28.75 131.59-28.75L131.59-28.75L131.59-28.75Q130.31-28.75 129.50-28.50L129.50-28.50L129.50-28.50Q128.69-28.25 128.09-27.78L128.09-27.78L128.09-27.78Q126.75-26.75 126.75-25.44L126.75-25.44L126.75-25.44Q126.75-24.13 127.41-23.17L127.41-23.17L127.41-23.17Q128.06-22.22 129.14-21.39L129.14-21.39L129.14-21.39Q130.22-20.56 131.59-19.78L131.59-19.78L134.41-18.19L134.41-18.19Q138.03-16.16 139.38-14.81L139.38-14.81L139.38-14.81Q142.03-12.16 142.03-9.22L142.03-9.22L142.03-9.22Q142.03-5.38 139.41-2.75L139.41-2.75L139.41-2.75Q136.09 0.63 129.47 0.63L129.47 0.63L129.47 0.63Q123.44 0.63 120.41-2.19L120.41-2.19L120.41-2.19Q119.53-3 119.16-3.81L119.16-3.81L119.16-3.81Q119.41-6.16 121.25-8.22L121.25-8.22L121.25-8.22Q123.03-10.22 124.72-10.53L124.72-10.53L124.72-10.53Q124.59-10.13 124.59-9.31L124.59-9.31L124.59-9.31Q124.59-8.50 125.06-7.30L125.06-7.30L125.06-7.30Q125.53-6.09 126.41-5.06L126.41-5.06L126.41-5.06Q128.38-2.69 130.84-2.69L130.84-2.69L130.84-2.69Q133.31-2.69 134.47-3.81L134.47-3.81L134.47-3.81Q135.63-4.94 135.63-6.38L135.63-6.38L135.63-6.38Q135.63-7.81 134.97-8.78L134.97-8.78L134.97-8.78Q134.31-9.75 133.23-10.59L133.23-10.59L133.23-10.59Q132.16-11.44 130.78-12.22L130.78-12.22L127.97-13.81L127.97-13.81Q124.38-15.94 123.03-17.44L123.03-17.44L123.03-17.44Q120.34-20.44 120.34-23.97L120.34-23.97L120.34-23.97Q120.34-27.69 123.47-30L123.47-30L123.47-30Q126.44-32.19 130.88-32.19L130.88-32.19L136.38-31.81L136.38-31.81Q138.38-31.81 139.16-32.30L139.16-32.30L139.16-32.30Q139.94-32.78 140.47-33.41ZM172.28-16.69L172.28-16.69L172.19-10.69L172.19-10.69Q172.19-5.09 173.22-3.06L173.22-3.06L173.22-3.06Q173.84-1.84 174.69-1.19L174.69-1.19L176.16 0L167.09 0L166.13-3.63L166.13-3.63Q162.59 0.63 156.06 0.63L156.06 0.63L156.06 0.63Q152.34 0.63 150.06-1.88L150.06-1.88L150.06-1.88Q148.06-4.13 148.06-7.19L148.06-7.19L148.06-7.19Q148.06-10.25 149.52-12.53L149.52-12.53L149.52-12.53Q150.97-14.81 153.34-16.31L153.34-16.31L153.34-16.31Q158.03-19.22 165.13-19.34L165.13-19.34L165.13-19.69L165.13-19.69Q165.13-27.28 162.78-28.59L162.78-28.59L162.78-28.59Q161.94-29.06 160.61-29.06L160.61-29.06L160.61-29.06Q159.28-29.06 157.97-28.19L157.97-28.19L157.97-28.19Q156.66-27.31 155.59-25.94L155.59-25.94L155.59-25.94Q153.47-23.16 152.56-19.38L152.56-19.38L152.56-19.38Q149.78-21.03 149.78-25.72L149.78-25.72L149.78-25.72Q149.78-27.63 150.28-30L150.28-30L150.28-30Q151.47-30 152.53-30.34L152.53-30.34L154.94-31.09L154.94-31.09Q158.47-32.19 161.84-32.19L161.84-32.19L161.84-32.19Q165.22-32.19 167.23-31.19L167.23-31.19L167.23-31.19Q169.25-30.19 170.38-28.22L170.38-28.22L170.38-28.22Q172.28-24.88 172.28-16.69ZM154.81-6.56L154.81-6.56Q154.81-4.63 155.70-3.56L155.70-3.56L155.70-3.56Q156.59-2.50 157.94-2.50L157.94-2.50L157.94-2.50Q159.28-2.50 160.53-3.20L160.53-3.20L160.53-3.20Q161.78-3.91 162.78-5.13L162.78-5.13L162.78-5.13Q165.13-7.91 165.13-11.66L165.13-11.66L165.13-16.28L165.13-16.28Q160.75-15.88 157.91-13.38L157.91-13.38L157.91-13.38Q154.81-10.69 154.81-6.56L154.81-6.56ZM176.72-31.56L188.25-31.56L188.25-31.56Q187.69-30.19 187.69-28.55L187.69-28.55L187.69-28.55Q187.69-26.91 187.94-25.64L187.94-25.64L187.94-25.64Q188.19-24.38 188.63-22.69L188.63-22.69L192-10.69L193.19-6.84L193.19-6.84Q195.03-12.38 195.63-14.31L195.63-14.31L196.75-18.13L196.75-18.13Q198.59-24.41 198.59-25.91L198.59-25.91L198.59-25.91Q198.59-27.41 198.45-28.11L198.45-28.11L198.45-28.11Q198.31-28.81 198.06-29.38L198.06-29.38L198.06-29.38Q197.75-30.22 196.84-31.56L196.84-31.56L208.22-31.56L208.22-31.56Q205.91-28.38 205.13-26.78L205.13-26.78L203.97-24.41L203.97-24.41Q203.69-23.84 203.19-22.78L203.19-22.78L203.19-22.78Q197.06-8.81 197.06-4.06L197.06-4.06L197.06-4.06Q197.06-1.91 197.88 0L197.88 0L186.63 0L186.63 0Q187.38-1.19 187.52-2.23L187.52-2.23L187.52-2.23Q187.66-3.28 187.66-4.39L187.66-4.39L187.66-4.39Q187.66-5.50 187.09-7.59L187.09-7.59L187.09-7.59Q186.53-9.69 185.63-12.34L185.63-12.34L185.63-12.34Q184.72-15 183.55-17.95L183.55-17.95L183.55-17.95Q182.38-20.91 181.16-23.59L181.16-23.59L181.16-23.59Q178.41-29.63 176.72-31.56L176.72-31.56ZM234.84-10.63L234.84-10.63L234.84-10.63Q235.97-9.88 235.97-8.02L235.97-8.02L235.97-8.02Q235.97-6.16 235.47-4.75L235.47-4.75L235.47-4.75Q234.97-3.34 233.72-2.13L233.72-2.13L233.72-2.13Q230.91 0.63 225.16 0.63L225.16 0.63L225.16 0.63Q218.47 0.63 214.97-4.31L214.97-4.31L214.97-4.31Q211.88-8.72 211.88-16.22L211.88-16.22L211.88-16.22Q211.88-23.78 216.06-28.09L216.06-28.09L216.06-28.09Q220.03-32.19 226.81-32.19L226.81-32.19L226.81-32.19Q231.53-32.19 234.19-29.44L234.19-29.44L234.19-29.44Q236.28-27.25 236.28-24.39L236.28-24.39L236.28-24.39Q236.28-21.53 235.17-19.23L235.17-19.23L235.17-19.23Q234.06-16.94 231.91-15.28L231.91-15.28L231.91-15.28Q227.47-11.84 219.50-11.66L219.50-11.66L219.50-11.66Q220.16-5.38 223.44-3.25L223.44-3.25L223.44-3.25Q224.63-2.50 226.59-2.50L226.59-2.50L226.59-2.50Q228.56-2.50 230.78-4.56L230.78-4.56L230.78-4.56Q233-6.63 234.84-10.63ZM219.31-15.59L219.31-14.63L219.31-14.63Q229.19-15.28 229.19-24.19L229.19-24.19L229.19-24.19Q229.19-27.53 227.19-28.69L227.19-28.69L227.19-28.69Q226.50-29.06 225.38-29.06L225.38-29.06L225.38-29.06Q224.25-29.06 223.11-28.38L223.11-28.38L223.11-28.38Q221.97-27.69 221.13-26.13L221.13-26.13L221.13-26.13Q219.31-22.72 219.31-15.59L219.31-15.59ZM261.31 0L260.88-2.47L260.88-2.47Q257.47 0.63 252.22 0.63L252.22 0.63L252.22 0.63Q247.41 0.63 244.63-2.16L244.63-2.16L244.63-2.16Q241.75-5.03 241.75-10.27L241.75-10.27L241.75-10.27Q241.75-15.50 243.28-19.42L243.28-19.42L243.28-19.42Q244.81-23.34 247.31-26L247.31-26L247.31-26Q252.25-31.25 259.44-31.53L259.44-31.53L259.44-31.53Q259.19-41.16 258.80-42.58L258.80-42.58L258.80-42.58Q258.41-44 258.02-44.83L258.02-44.83L258.02-44.83Q257.63-45.66 257.13-46.34L257.13-46.34L256.06-47.81L267.47-47.81L267.47-47.81Q266.59-44.66 266.45-41.69L266.45-41.69L266.45-41.69Q266.31-38.72 266.25-36.47L266.25-36.47L266.25-36.47Q266.19-34.22 266.16-31.75L266.16-31.75L266.16-31.75Q266.06-27.63 266.06-23.55L266.06-23.55L266.06-23.55Q266.06-19.47 266.08-17.38L266.08-17.38L266.08-17.38Q266.09-15.28 266.16-13.41L266.16-13.41L266.16-13.41Q266.31-6.38 266.69-5.05L266.69-5.05L266.69-5.05Q267.06-3.72 267.45-2.92L267.45-2.92L267.45-2.92Q267.84-2.13 268.34-1.44L268.34-1.44L269.41 0L261.31 0ZM259.48-11.47L259.48-11.47L259.48-11.47Q259.63-16.28 259.63-20.48L259.63-20.48L259.63-20.48Q259.63-24.69 259.53-28.50L259.53-28.50L259.53-28.50Q255-27.81 252.28-23.16L252.28-23.16L252.28-23.16Q249.56-18.53 249.56-11.50L249.56-11.50L249.56-11.50Q249.56-7.34 250.20-5.69L250.20-5.69L250.20-5.69Q250.84-4.03 251.73-3.27L251.73-3.27L251.73-3.27Q252.63-2.50 253.89-2.50L253.89-2.50L253.89-2.50Q255.16-2.50 256.11-3.02L256.11-3.02L256.11-3.02Q257.06-3.53 257.78-4.53L257.78-4.53L257.78-4.53Q259.34-6.66 259.48-11.47ZM304.88-44.06L304.88-44.06L304.88-44.06Q304.22-41.66 304.22-38.30L304.22-38.30L304.22-38.30Q304.22-34.94 304.36-34L304.36-34L304.36-34Q304.50-33.06 304.81-32.50L304.81-32.50L304.81-32.50Q305.41-31.56 307.13-31.56L307.13-31.56L315.50-31.56L315.50-31.56Q315.50-29.81 314.66-28.88L314.66-28.88L314.66-28.88Q313.13-27.19 310.91-27.19L310.91-27.19L310.91-27.19Q309.81-27.19 308.97-27.50L308.97-27.50L308.97-27.50Q307.44-28.13 306.59-28.13L306.59-28.13L306.59-28.13Q305.75-28.13 305.22-27.80L305.22-27.80L305.22-27.80Q304.69-27.47 304.38-26.84L304.38-26.84L304.38-26.84Q303.81-25.72 303.81-21.94L303.81-21.94L303.81-21.94Q303.81-18.16 304.05-14.19L304.05-14.19L304.05-14.19Q304.28-10.22 305.22-7.55L305.22-7.55L305.22-7.55Q306.16-4.88 308.06-3.53L308.06-3.53L308.06-3.53Q309.97-2.19 313.31-2.19L313.31-2.19L313.31-2.19Q313.31-1.22 312 0.13L312 0.13L312 0.13Q311.66 0.50 311.41 0.63L311.41 0.63L311.41 0.63Q305.88 0.63 303.13-0.69L303.13-0.69L303.13-0.69Q299.97-2.25 298.63-6.25L298.63-6.25L298.63-6.25Q297.28-10.31 297.28-18.28L297.28-18.28L297.28-18.28Q297.28-25.25 296.91-26.52L296.91-26.52L296.91-26.52Q296.53-27.78 296.22-28.19L296.22-28.19L296.22-28.19Q295.84-28.66 294.41-29.34L294.41-29.34L294.41-29.34Q296.34-30.81 298.25-34.81L298.25-34.81L299.81-38.09L299.81-38.09Q301.47-41.84 302.64-42.95L302.64-42.95L302.64-42.95Q303.81-44.06 304.88-44.06ZM346.38 0L337.16 0L337.16 0Q338.59-4.94 338.59-16.97L338.59-16.97L338.59-16.97Q338.59-22 338.06-23.67L338.06-23.67L338.06-23.67Q337.53-25.34 336.73-26.11L336.73-26.11L336.73-26.11Q335.94-26.88 334.61-26.88L334.61-26.88L334.61-26.88Q333.28-26.88 332.20-26.38L332.20-26.38L332.20-26.38Q331.13-25.88 330.28-25.06L330.28-25.06L330.28-25.06Q328.69-23.56 327.69-21.06L327.69-21.06L327.69-15.09L327.69-15.09Q327.69-6.31 328.03-4.22L328.03-4.22L328.03-4.22Q328.44-1.47 328.88 0L328.88 0L319.66 0L319.66 0Q320.41-2.63 320.66-6.97L320.66-6.97L320.66-6.97Q321.22-17.84 321.22-22.98L321.22-22.98L321.22-22.98Q321.22-28.13 321.19-30.02L321.19-30.02L321.19-30.02Q321.16-31.91 321.09-33.78L321.09-33.78L321.09-33.78Q320.94-40.59 320.48-42.33L320.48-42.33L320.48-42.33Q320.03-44.06 319.64-44.86L319.64-44.86L319.64-44.86Q319.25-45.66 318.78-46.31L318.78-46.31L317.72-47.78L329.13-47.78L329.13-47.78Q328.25-44.63 328.11-41.91L328.11-41.91L328.11-41.91Q327.97-39.19 327.91-37.48L327.91-37.48L327.91-37.48Q327.84-35.78 327.78-33.91L327.78-33.91L327.78-33.91Q327.69-29.53 327.69-26.19L327.69-26.19L327.69-26.19Q330.16-30.34 334.22-31.69L334.22-31.69L334.22-31.69Q335.66-32.19 337.44-32.19L337.44-32.19L337.44-32.19Q339.22-32.19 340.67-31.42L340.67-31.42L340.67-31.42Q342.13-30.66 343.09-29.25L343.09-29.25L343.09-29.25Q345.09-26.41 345.09-21.47L345.09-21.47L345.09-18.13L345.09-18.13Q345.09-8.56 345.36-6.14L345.36-6.14L345.36-6.14Q345.63-3.72 345.72-2.94L345.72-2.94L345.72-2.94Q345.94-1.56 346.38 0L346.38 0ZM376.19-10.63L376.19-10.63L376.19-10.63Q377.31-9.88 377.31-8.02L377.31-8.02L377.31-8.02Q377.31-6.16 376.81-4.75L376.81-4.75L376.81-4.75Q376.31-3.34 375.06-2.13L375.06-2.13L375.06-2.13Q372.25 0.63 366.50 0.63L366.50 0.63L366.50 0.63Q359.81 0.63 356.31-4.31L356.31-4.31L356.31-4.31Q353.22-8.72 353.22-16.22L353.22-16.22L353.22-16.22Q353.22-23.78 357.41-28.09L357.41-28.09L357.41-28.09Q361.38-32.19 368.16-32.19L368.16-32.19L368.16-32.19Q372.88-32.19 375.53-29.44L375.53-29.44L375.53-29.44Q377.63-27.25 377.63-24.39L377.63-24.39L377.63-24.39Q377.63-21.53 376.52-19.23L376.52-19.23L376.52-19.23Q375.41-16.94 373.25-15.28L373.25-15.28L373.25-15.28Q368.81-11.84 360.84-11.66L360.84-11.66L360.84-11.66Q361.50-5.38 364.78-3.25L364.78-3.25L364.78-3.25Q365.97-2.50 367.94-2.50L367.94-2.50L367.94-2.50Q369.91-2.50 372.13-4.56L372.13-4.56L372.13-4.56Q374.34-6.63 376.19-10.63ZM360.66-15.59L360.66-14.63L360.66-14.63Q370.53-15.28 370.53-24.19L370.53-24.19L370.53-24.19Q370.53-27.53 368.53-28.69L368.53-28.69L368.53-28.69Q367.84-29.06 366.72-29.06L366.72-29.06L366.72-29.06Q365.59-29.06 364.45-28.38L364.45-28.38L364.45-28.38Q363.31-27.69 362.47-26.13L362.47-26.13L362.47-26.13Q360.66-22.72 360.66-15.59L360.66-15.59ZM424.91-33.41L424.91-33.41L424.91-33.41Q425.75-31.53 425.75-29.63L425.75-29.63L425.75-29.63Q425.75-27.72 425.58-26.47L425.58-26.47L425.58-26.47Q425.41-25.22 425.06-24.06L425.06-24.06L425.06-24.06Q424.28-21.44 422.84-20.03L422.84-20.03L422.84-20.03Q421.88-24.88 420.73-26.31L420.73-26.31L420.73-26.31Q419.59-27.75 418.45-28.25L418.45-28.25L418.45-28.25Q417.31-28.75 416.03-28.75L416.03-28.75L416.03-28.75Q414.75-28.75 413.94-28.50L413.94-28.50L413.94-28.50Q413.13-28.25 412.53-27.78L412.53-27.78L412.53-27.78Q411.19-26.75 411.19-25.44L411.19-25.44L411.19-25.44Q411.19-24.13 411.84-23.17L411.84-23.17L411.84-23.17Q412.50-22.22 413.58-21.39L413.58-21.39L413.58-21.39Q414.66-20.56 416.03-19.78L416.03-19.78L418.84-18.19L418.84-18.19Q422.47-16.16 423.81-14.81L423.81-14.81L423.81-14.81Q426.47-12.16 426.47-9.22L426.47-9.22L426.47-9.22Q426.47-5.38 423.84-2.75L423.84-2.75L423.84-2.75Q420.53 0.63 413.91 0.63L413.91 0.63L413.91 0.63Q407.88 0.63 404.84-2.19L404.84-2.19L404.84-2.19Q403.97-3 403.59-3.81L403.59-3.81L403.59-3.81Q403.84-6.16 405.69-8.22L405.69-8.22L405.69-8.22Q407.47-10.22 409.16-10.53L409.16-10.53L409.16-10.53Q409.03-10.13 409.03-9.31L409.03-9.31L409.03-9.31Q409.03-8.50 409.50-7.30L409.50-7.30L409.50-7.30Q409.97-6.09 410.84-5.06L410.84-5.06L410.84-5.06Q412.81-2.69 415.28-2.69L415.28-2.69L415.28-2.69Q417.75-2.69 418.91-3.81L418.91-3.81L418.91-3.81Q420.06-4.94 420.06-6.38L420.06-6.38L420.06-6.38Q420.06-7.81 419.41-8.78L419.41-8.78L419.41-8.78Q418.75-9.75 417.67-10.59L417.67-10.59L417.67-10.59Q416.59-11.44 415.22-12.22L415.22-12.22L412.41-13.81L412.41-13.81Q408.81-15.94 407.47-17.44L407.47-17.44L407.47-17.44Q404.78-20.44 404.78-23.97L404.78-23.97L404.78-23.97Q404.78-27.69 407.91-30L407.91-30L407.91-30Q410.88-32.19 415.31-32.19L415.31-32.19L420.81-31.81L420.81-31.81Q422.81-31.81 423.59-32.30L423.59-32.30L423.59-32.30Q424.38-32.78 424.91-33.41ZM447.28-29.06L447.28-29.06Q444.47-29.06 443.23-26.25L443.23-26.25L443.23-26.25Q442-23.44 442-16.78L442-16.78L442-16.78Q442-2.50 447.28-2.50L447.28-2.50L447.28-2.50Q450.09-2.50 451.33-6.31L451.33-6.31L451.33-6.31Q452.56-10.13 452.56-16.78L452.56-16.78L452.56-16.78Q452.56-23.44 451.33-26.25L451.33-26.25L451.33-26.25Q450.09-29.06 447.28-29.06L447.28-29.06ZM434.13-17.97L434.13-17.97Q434.13-32.19 447.28-32.19L447.28-32.19L447.28-32.19Q460.44-32.19 460.44-17.97L460.44-17.97L460.44-17.97Q460.44-9.34 456.81-4.31L456.81-4.31L456.81-4.31Q453.28 0.63 447.28 0.63L447.28 0.63L447.28 0.63Q441.28 0.63 437.75-4.31L437.75-4.31L437.75-4.31Q434.13-9.34 434.13-17.97L434.13-17.97ZM493.56-30.13L493.56-28.63L493.09-14.66L493.09-14.66Q493.09-6.13 494.59-2.94L494.59-2.94L494.59-2.94Q495.13-1.78 496.47 0L496.47 0L487.78 0L487.78 0Q487.06-2.13 486.84-5.38L486.84-5.38L486.84-5.38Q483.22 0.63 477.50 0.63L477.50 0.63L477.50 0.63Q473.56 0.63 471.47-2.31L471.47-2.31L471.47-2.31Q469.41-5.16 469.41-10.13L469.41-10.13L469.41-14.34L469.41-14.34Q469.41-15.75 469.41-17.22L469.41-17.22L469.34-20.06L469.34-20.06Q469.31-22.78 469.17-24.30L469.17-24.30L469.17-24.30Q469.03-25.81 468.86-26.83L468.86-26.83L468.86-26.83Q468.69-27.84 468.44-28.64L468.44-28.64L468.44-28.64Q468.19-29.44 467.88-30.13L467.88-30.13L467.19-31.56L476.22-31.56L476.22-31.56Q476.25-31.06 476.25-30.63L476.25-30.63L476.25-29.72L476.25-29.72Q476.25-29.72 475.72-14.03L475.72-14.03L475.72-14.03Q475.72-9.44 476.31-7.78L476.31-7.78L476.31-7.78Q476.91-6.13 477.73-5.41L477.73-5.41L477.73-5.41Q478.56-4.69 479.94-4.69L479.94-4.69L479.94-4.69Q483.66-4.69 485.97-8.75L485.97-8.75L485.97-8.75Q486.59-9.91 487-11.09L487-11.09L487-11.09Q487.06-12.84 487.06-15.06L487.06-15.06L487.06-15.06Q487.06-26.47 485.38-30.13L485.38-30.13L484.69-31.56L493.59-31.56L493.59-31.56Q493.56-30.78 493.56-30.13L493.56-30.13ZM511.47-22.50L511.44-14.31L511.44-14.31Q511.44-4.19 512.66 0L512.66 0L503.44 0L503.44 0Q504.31-3.03 504.53-7.16L504.53-7.16L504.53-7.16Q505-17.13 505-22.63L505-22.63L505-22.63Q505-28.13 504.97-30.02L504.97-30.02L504.97-30.02Q504.94-31.91 504.91-33.81L504.91-33.81L504.91-33.81Q504.72-40.59 504.27-42.36L504.27-42.36L504.27-42.36Q503.81-44.13 503.42-44.92L503.42-44.92L503.42-44.92Q503.03-45.72 502.53-46.38L502.53-46.38L501.50-47.81L512.91-47.81L512.91-47.81Q512.03-44.66 511.89-41.77L511.89-41.77L511.89-41.77Q511.75-38.88 511.67-36.66L511.67-36.66L511.67-36.66Q511.59-34.44 511.53-32.03L511.53-32.03L511.53-32.03Q511.47-28.03 511.47-22.50L511.47-22.50ZM539.97-33.41L539.97-33.41L539.97-33.41Q540.81-31.53 540.81-29.63L540.81-29.63L540.81-29.63Q540.81-27.72 540.64-26.47L540.64-26.47L540.64-26.47Q540.47-25.22 540.13-24.06L540.13-24.06L540.13-24.06Q539.34-21.44 537.91-20.03L537.91-20.03L537.91-20.03Q536.94-24.88 535.80-26.31L535.80-26.31L535.80-26.31Q534.66-27.75 533.52-28.25L533.52-28.25L533.52-28.25Q532.38-28.75 531.09-28.75L531.09-28.75L531.09-28.75Q529.81-28.75 529-28.50L529-28.50L529-28.50Q528.19-28.25 527.59-27.78L527.59-27.78L527.59-27.78Q526.25-26.75 526.25-25.44L526.25-25.44L526.25-25.44Q526.25-24.13 526.91-23.17L526.91-23.17L526.91-23.17Q527.56-22.22 528.64-21.39L528.64-21.39L528.64-21.39Q529.72-20.56 531.09-19.78L531.09-19.78L533.91-18.19L533.91-18.19Q537.53-16.16 538.88-14.81L538.88-14.81L538.88-14.81Q541.53-12.16 541.53-9.22L541.53-9.22L541.53-9.22Q541.53-5.38 538.91-2.75L538.91-2.75L538.91-2.75Q535.59 0.63 528.97 0.63L528.97 0.63L528.97 0.63Q522.94 0.63 519.91-2.19L519.91-2.19L519.91-2.19Q519.03-3 518.66-3.81L518.66-3.81L518.66-3.81Q518.91-6.16 520.75-8.22L520.75-8.22L520.75-8.22Q522.53-10.22 524.22-10.53L524.22-10.53L524.22-10.53Q524.09-10.13 524.09-9.31L524.09-9.31L524.09-9.31Q524.09-8.50 524.56-7.30L524.56-7.30L524.56-7.30Q525.03-6.09 525.91-5.06L525.91-5.06L525.91-5.06Q527.88-2.69 530.34-2.69L530.34-2.69L530.34-2.69Q532.81-2.69 533.97-3.81L533.97-3.81L533.97-3.81Q535.13-4.94 535.13-6.38L535.13-6.38L535.13-6.38Q535.13-7.81 534.47-8.78L534.47-8.78L534.47-8.78Q533.81-9.75 532.73-10.59L532.73-10.59L532.73-10.59Q531.66-11.44 530.28-12.22L530.28-12.22L527.47-13.81L527.47-13.81Q523.88-15.94 522.53-17.44L522.53-17.44L522.53-17.44Q519.84-20.44 519.84-23.97L519.84-23.97L519.84-23.97Q519.84-27.69 522.97-30L522.97-30L522.97-30Q525.94-32.19 530.38-32.19L530.38-32.19L535.88-31.81L535.88-31.81Q537.88-31.81 538.66-32.30L538.66-32.30L538.66-32.30Q539.44-32.78 539.97-33.41ZM586.88-9.41L586.88-10.34L586.91-17.28L586.91-17.28Q586.91-23.81 586.56-25.81L586.56-25.81L586.56-25.81Q586.22-27.81 586.02-28.61L586.02-28.61L586.02-28.61Q585.81-29.41 585.53-30.09L585.53-30.09L584.94-31.56L594.16-31.56L594-30.13L594-30.13Q593.81-28.63 593.75-25.75L593.75-25.75L593.63-21L593.63-21Q593.47-15.53 593.47-10.78L593.47-10.78L593.47-10.78Q593.47-6.03 592.89-2.66L592.89-2.66L592.89-2.66Q592.31 0.72 591.34 3.28L591.34 3.28L591.34 3.28Q590.38 5.84 589.13 7.70L589.13 7.70L589.13 7.70Q587.88 9.56 586.50 10.81L586.50 10.81L586.50 10.81Q584.13 13.06 581.19 14.06L581.19 14.06L581.19 14.06Q580.56 13.81 579.98 13.14L579.98 13.14L579.98 13.14Q579.41 12.47 579.28 11.88L579.28 11.88L579.28 11.88Q582.03 10.47 583.69 7.56L583.69 7.56L583.69 7.56Q586.03 3.44 586.66-4.34L586.66-4.34L586.66-4.34Q583.03 0.63 577.75 0.63L577.75 0.63L577.75 0.63Q574 0.63 571.94-2.31L571.94-2.31L571.94-2.31Q569.97-5.16 569.97-10.13L569.97-10.13L569.97-14.34L569.97-14.34Q569.97-15.75 569.94-17.22L569.94-17.22L569.94-20.06L569.94-20.06Q569.88-22.78 569.73-24.30L569.73-24.30L569.73-24.30Q569.59-25.81 569.42-26.83L569.42-26.83L569.42-26.83Q569.25-27.84 569-28.64L569-28.64L569-28.64Q568.75-29.44 568.44-30.13L568.44-30.13L567.75-31.56L577.28-31.56L577.28-31.56Q576.47-27.09 576.47-14.66L576.47-14.66L576.47-14.66Q576.47-9.59 577-7.91L577-7.91L577-7.91Q577.53-6.22 578.33-5.45L578.33-5.45L578.33-5.45Q579.13-4.69 580.38-4.69L580.38-4.69L580.38-4.69Q581.63-4.69 582.58-5.08L582.58-5.08L582.58-5.08Q583.53-5.47 584.31-6.13L584.31-6.13L584.31-6.13Q585.84-7.31 586.88-9.41L586.88-9.41ZM587.88-12.06L588.06-12.81L587.88-12.06ZM615.38-29.06L615.38-29.06Q612.56-29.06 611.33-26.25L611.33-26.25L611.33-26.25Q610.09-23.44 610.09-16.78L610.09-16.78L610.09-16.78Q610.09-2.50 615.38-2.50L615.38-2.50L615.38-2.50Q618.19-2.50 619.42-6.31L619.42-6.31L619.42-6.31Q620.66-10.13 620.66-16.78L620.66-16.78L620.66-16.78Q620.66-23.44 619.42-26.25L619.42-26.25L619.42-26.25Q618.19-29.06 615.38-29.06L615.38-29.06ZM602.22-17.97L602.22-17.97Q602.22-32.19 615.38-32.19L615.38-32.19L615.38-32.19Q628.53-32.19 628.53-17.97L628.53-17.97L628.53-17.97Q628.53-9.34 624.91-4.31L624.91-4.31L624.91-4.31Q621.38 0.63 615.38 0.63L615.38 0.63L615.38 0.63Q609.38 0.63 605.84-4.31L605.84-4.31L605.84-4.31Q602.22-9.34 602.22-17.97L602.22-17.97ZM661.66-30.13L661.66-28.63L661.19-14.66L661.19-14.66Q661.19-6.13 662.69-2.94L662.69-2.94L662.69-2.94Q663.22-1.78 664.56 0L664.56 0L655.88 0L655.88 0Q655.16-2.13 654.94-5.38L654.94-5.38L654.94-5.38Q651.31 0.63 645.59 0.63L645.59 0.63L645.59 0.63Q641.66 0.63 639.56-2.31L639.56-2.31L639.56-2.31Q637.50-5.16 637.50-10.13L637.50-10.13L637.50-14.34L637.50-14.34Q637.50-15.75 637.50-17.22L637.50-17.22L637.44-20.06L637.44-20.06Q637.41-22.78 637.27-24.30L637.27-24.30L637.27-24.30Q637.13-25.81 636.95-26.83L636.95-26.83L636.95-26.83Q636.78-27.84 636.53-28.64L636.53-28.64L636.53-28.64Q636.28-29.44 635.97-30.13L635.97-30.13L635.28-31.56L644.31-31.56L644.31-31.56Q644.34-31.06 644.34-30.63L644.34-30.63L644.34-29.72L644.34-29.72Q644.34-29.72 643.81-14.03L643.81-14.03L643.81-14.03Q643.81-9.44 644.41-7.78L644.41-7.78L644.41-7.78Q645-6.13 645.83-5.41L645.83-5.41L645.83-5.41Q646.66-4.69 648.03-4.69L648.03-4.69L648.03-4.69Q651.75-4.69 654.06-8.75L654.06-8.75L654.06-8.75Q654.69-9.91 655.09-11.09L655.09-11.09L655.09-11.09Q655.16-12.84 655.16-15.06L655.16-15.06L655.16-15.06Q655.16-26.47 653.47-30.13L653.47-30.13L652.78-31.56L661.69-31.56L661.69-31.56Q661.66-30.78 661.66-30.13L661.66-30.13ZM707.25-31.56L717.53-31.56L717.53-31.56Q716.22-29.41 716.22-25.09L716.22-25.09L716.22-25.09Q716.22-24.06 716.84-21.84L716.84-21.84L716.84-21.84Q718.34-16.81 719-14.81L719-14.81L721.34-8L721.34-8Q722.81-12.34 723.47-14.50L723.47-14.50L723.47-14.50Q726.56-24.81 726.56-26.09L726.56-26.09L726.56-26.09Q726.56-27.38 726.44-28.05L726.44-28.05L726.44-28.05Q726.31-28.72 726.09-29.31L726.09-29.31L726.09-29.31Q725.72-30.16 724.63-31.56L724.63-31.56L735.09-31.56L735.09-31.56Q733.16-29.47 732.41-27.61L732.41-27.61L732.41-27.61Q731.66-25.75 731.28-24.78L731.28-24.78L727.41-13.91L727.41-13.91Q725.97-9.53 725.34-7.41L725.34-7.41L725.34-7.41Q724.97-5.72 724.97-3.81L724.97-3.81L724.97-3.81Q724.97-1.91 725.78 0.03L725.78 0.03L714.22 0L714.22 0Q714.97-1.19 715.11-2.23L715.11-2.23L715.11-2.23Q715.25-3.28 715.25-4.28L715.25-4.28L715.25-4.28Q715.25-5.28 714.94-6.75L714.94-6.75L714.94-6.75Q714.63-8.22 714.09-10.13L714.09-10.13L714.09-10.13Q713.03-14.09 711.41-18.59L711.41-18.59L711.41-18.59Q708.38-10.84 707.75-8.33L707.75-8.33L707.75-8.33Q707.13-5.81 707.13-3.89L707.13-3.89L707.13-3.89Q707.13-1.97 707.97 0.03L707.97 0.03L696.41 0L696.41 0Q697.16-1.19 697.30-2.23L697.30-2.23L697.30-2.23Q697.44-3.28 697.44-4.39L697.44-4.39L697.44-4.39Q697.44-5.50 696.98-7.59L696.98-7.59L696.98-7.59Q696.53-9.69 695.78-12.34L695.78-12.34L695.78-12.34Q695.03-15 694.06-17.95L694.06-17.95L694.06-17.95Q693.09-20.91 692.03-23.59L692.03-23.59L692.03-23.59Q689.63-29.69 687.97-31.56L687.97-31.56L699.50-31.56L699.50-31.56Q698.94-30.19 698.94-28.53L698.94-28.53L698.94-28.53Q698.94-26.88 699.17-25.64L699.17-25.64L699.17-25.64Q699.41-24.41 699.80-22.78L699.80-22.78L699.80-22.78Q700.19-21.16 700.72-19.28L700.72-19.28L703.84-8.31L703.84-8.31Q708.31-19.63 708.81-21.80L708.81-21.80L708.81-21.80Q709.31-23.97 709.31-24.59L709.31-24.59L709.31-24.59Q709.31-28.63 707.25-31.56L707.25-31.56ZM760.16-10.63L760.16-10.63L760.16-10.63Q761.28-9.88 761.28-8.02L761.28-8.02L761.28-8.02Q761.28-6.16 760.78-4.75L760.78-4.75L760.78-4.75Q760.28-3.34 759.03-2.13L759.03-2.13L759.03-2.13Q756.22 0.63 750.47 0.63L750.47 0.63L750.47 0.63Q743.78 0.63 740.28-4.31L740.28-4.31L740.28-4.31Q737.19-8.72 737.19-16.22L737.19-16.22L737.19-16.22Q737.19-23.78 741.38-28.09L741.38-28.09L741.38-28.09Q745.34-32.19 752.13-32.19L752.13-32.19L752.13-32.19Q756.84-32.19 759.50-29.44L759.50-29.44L759.50-29.44Q761.59-27.25 761.59-24.39L761.59-24.39L761.59-24.39Q761.59-21.53 760.48-19.23L760.48-19.23L760.48-19.23Q759.38-16.94 757.22-15.28L757.22-15.28L757.22-15.28Q752.78-11.84 744.81-11.66L744.81-11.66L744.81-11.66Q745.47-5.38 748.75-3.25L748.75-3.25L748.75-3.25Q749.94-2.50 751.91-2.50L751.91-2.50L751.91-2.50Q753.88-2.50 756.09-4.56L756.09-4.56L756.09-4.56Q758.31-6.63 760.16-10.63ZM744.63-15.59L744.63-14.63L744.63-14.63Q754.50-15.28 754.50-24.19L754.50-24.19L754.50-24.19Q754.50-27.53 752.50-28.69L752.50-28.69L752.50-28.69Q751.81-29.06 750.69-29.06L750.69-29.06L750.69-29.06Q749.56-29.06 748.42-28.38L748.42-28.38L748.42-28.38Q747.28-27.69 746.44-26.13L746.44-26.13L746.44-26.13Q744.63-22.72 744.63-15.59L744.63-15.59ZM778.13 0L768.91 0L768.91 0Q770.34-4.94 770.34-16.97L770.34-16.97L770.34-16.97Q770.34-25.53 768.97-28.66L768.97-28.66L768.97-28.66Q768.41-29.94 766.97-31.56L766.97-31.56L778.06-31.56L778.06-31.56Q777.50-29.59 777.16-26.16L777.16-26.16L777.16-26.16Q780.09-29.84 785.34-31.38L785.34-31.38L785.34-31.38Q787.59-32.03 788.63-33.44L788.63-33.44L788.63-33.44Q789.66-30.97 789.66-29.19L789.66-29.19L789.66-29.19Q789.66-27.41 789.47-25.89L789.47-25.89L789.47-25.89Q789.28-24.38 788.91-22.94L788.91-22.94L788.91-22.94Q788.09-19.84 786.75-18.13L786.75-18.13L786.75-18.13Q785.59-24.22 783.16-25.25L783.16-25.25L783.16-25.25Q780.34-26.47 777.66-21.94L777.66-21.94L777.66-21.94Q777.09-21 776.72-19.94L776.72-19.94L776.72-19.94Q776.69-19.22 776.69-18.47L776.69-18.47L776.69-18.47Q776.69-17.72 776.69-16.97L776.69-16.97L776.69-16.97Q776.69-4.94 778.13 0L778.13 0ZM815.72-10.63L815.72-10.63L815.72-10.63Q816.84-9.88 816.84-8.02L816.84-8.02L816.84-8.02Q816.84-6.16 816.34-4.75L816.34-4.75L816.34-4.75Q815.84-3.34 814.59-2.13L814.59-2.13L814.59-2.13Q811.78 0.63 806.03 0.63L806.03 0.63L806.03 0.63Q799.34 0.63 795.84-4.31L795.84-4.31L795.84-4.31Q792.75-8.72 792.75-16.22L792.75-16.22L792.75-16.22Q792.75-23.78 796.94-28.09L796.94-28.09L796.94-28.09Q800.91-32.19 807.69-32.19L807.69-32.19L807.69-32.19Q812.41-32.19 815.06-29.44L815.06-29.44L815.06-29.44Q817.16-27.25 817.16-24.39L817.16-24.39L817.16-24.39Q817.16-21.53 816.05-19.23L816.05-19.23L816.05-19.23Q814.94-16.94 812.78-15.28L812.78-15.28L812.78-15.28Q808.34-11.84 800.38-11.66L800.38-11.66L800.38-11.66Q801.03-5.38 804.31-3.25L804.31-3.25L804.31-3.25Q805.50-2.50 807.47-2.50L807.47-2.50L807.47-2.50Q809.44-2.50 811.66-4.56L811.66-4.56L811.66-4.56Q813.88-6.63 815.72-10.63ZM800.19-15.59L800.19-14.63L800.19-14.63Q810.06-15.28 810.06-24.19L810.06-24.19L810.06-24.19Q810.06-27.53 808.06-28.69L808.06-28.69L808.06-28.69Q807.38-29.06 806.25-29.06L806.25-29.06L806.25-29.06Q805.13-29.06 803.98-28.38L803.98-28.38L803.98-28.38Q802.84-27.69 802-26.13L802-26.13L802-26.13Q800.19-22.72 800.19-15.59L800.19-15.59ZM853.50-22.50L853.47-14.31L853.47-14.31Q853.47-4.19 854.69 0L854.69 0L845.47 0L845.47 0Q846.34-3.03 846.56-7.16L846.56-7.16L846.56-7.16Q847.03-17.13 847.03-22.63L847.03-22.63L847.03-22.63Q847.03-28.13 847-30.02L847-30.02L847-30.02Q846.97-31.91 846.94-33.81L846.94-33.81L846.94-33.81Q846.75-40.59 846.30-42.36L846.30-42.36L846.30-42.36Q845.84-44.13 845.45-44.92L845.45-44.92L845.45-44.92Q845.06-45.72 844.56-46.38L844.56-46.38L843.53-47.81L854.94-47.81L854.94-47.81Q854.06-44.66 853.92-41.77L853.92-41.77L853.92-41.77Q853.78-38.88 853.70-36.66L853.70-36.66L853.70-36.66Q853.63-34.44 853.56-32.03L853.56-32.03L853.56-32.03Q853.50-28.03 853.50-22.50L853.50-22.50ZM876.19-29.06L876.19-29.06Q873.38-29.06 872.14-26.25L872.14-26.25L872.14-26.25Q870.91-23.44 870.91-16.78L870.91-16.78L870.91-16.78Q870.91-2.50 876.19-2.50L876.19-2.50L876.19-2.50Q879-2.50 880.23-6.31L880.23-6.31L880.23-6.31Q881.47-10.13 881.47-16.78L881.47-16.78L881.47-16.78Q881.47-23.44 880.23-26.25L880.23-26.25L880.23-26.25Q879-29.06 876.19-29.06L876.19-29.06ZM863.03-17.97L863.03-17.97Q863.03-32.19 876.19-32.19L876.19-32.19L876.19-32.19Q889.34-32.19 889.34-17.97L889.34-17.97L889.34-17.97Q889.34-9.34 885.72-4.31L885.72-4.31L885.72-4.31Q882.19 0.63 876.19 0.63L876.19 0.63L876.19 0.63Q870.19 0.63 866.66-4.31L866.66-4.31L866.66-4.31Q863.03-9.34 863.03-17.97L863.03-17.97ZM910.69-29.06L910.69-29.06Q907.88-29.06 906.64-26.25L906.64-26.25L906.64-26.25Q905.41-23.44 905.41-16.78L905.41-16.78L905.41-16.78Q905.41-2.50 910.69-2.50L910.69-2.50L910.69-2.50Q913.50-2.50 914.73-6.31L914.73-6.31L914.73-6.31Q915.97-10.13 915.97-16.78L915.97-16.78L915.97-16.78Q915.97-23.44 914.73-26.25L914.73-26.25L914.73-26.25Q913.50-29.06 910.69-29.06L910.69-29.06ZM897.53-17.97L897.53-17.97Q897.53-32.19 910.69-32.19L910.69-32.19L910.69-32.19Q923.84-32.19 923.84-17.97L923.84-17.97L923.84-17.97Q923.84-9.34 920.22-4.31L920.22-4.31L920.22-4.31Q916.69 0.63 910.69 0.63L910.69 0.63L910.69 0.63Q904.69 0.63 901.16-4.31L901.16-4.31L901.16-4.31Q897.53-9.34 897.53-17.97L897.53-17.97ZM939.53-15.56L939.53-13.25L939.53-13.25Q939.53-4.19 940.75 0L940.75 0L931.53 0L931.53 0Q932.41-3.03 932.63-7.16L932.63-7.16L932.63-7.16Q933.09-17.13 933.09-22.63L933.09-22.63L933.09-22.63Q933.09-28.13 933.06-30.02L933.06-30.02L933.06-30.02Q933.03-31.91 933-33.81L933-33.81L933-33.81Q932.81-40.53 932.36-42.36L932.36-42.36L932.36-42.36Q931.91-44.19 931.50-45L931.50-45L931.50-45Q930.91-46.31 929.59-47.81L929.59-47.81L941-47.81L941-47.81Q940.13-44.66 939.97-41.84L939.97-41.84L939.75-37.31L939.75-37.31Q939.53-32.16 939.53-29.47L939.53-29.47L939.53-29.47Q939.53-26.78 939.58-25.84L939.58-25.84L939.58-25.84Q939.63-24.91 939.81-24.31L939.81-24.31L939.81-24.31Q940.19-23.06 941.70-23.13L941.70-23.13L941.70-23.13Q943.22-23.19 944.44-23.77L944.44-23.77L944.44-23.77Q945.66-24.34 946.44-25.25L946.44-25.25L946.44-25.25Q948-27 948-28.97L948-28.97L948-28.97Q948-30.94 947.53-31.56L947.53-31.56L956.56-31.56L956.56-31.56Q956.19-30.81 955.89-30.05L955.89-30.05L955.89-30.05Q955.59-29.28 955.25-28.50L955.25-28.50L955.25-28.50Q953.03-23.56 948.25-21.34L948.25-21.34L948.25-21.34Q948.56-14.88 952.50-8.38L952.50-8.38L952.50-8.38Q956.22-2.34 960.69 0L960.69 0L950.22 0L950.22 0Q947.09-1.50 945.16-10.06L945.16-10.06L945.16-10.06Q944.50-12.97 944.28-15.66L944.28-15.66L944.28-15.66Q944.06-18.34 943.59-19.17L943.59-19.17L943.59-19.17Q943.13-20 941.91-20L941.91-20L941.91-20Q939.53-20 939.53-15.56L939.53-15.56ZM971.73-39.97L971.73-39.97L971.73-39.97Q971.09-38.94 970.19-38.23L970.19-38.23L970.19-38.23Q969.28-37.53 968.13-37.53L968.13-37.53L968.13-37.53Q966.97-37.53 966.06-38.23L966.06-38.23L966.06-38.23Q965.16-38.94 964.53-39.97L964.53-39.97L964.53-39.97Q963.25-42.09 963.25-44.47L963.25-44.47L963.25-44.47Q963.25-47.34 965.88-48.31L965.88-48.31L965.88-48.31Q966.81-48.66 968.16-48.66L968.16-48.66L968.16-48.66Q971.88-48.66 972.78-46.03L972.78-46.03L972.78-46.03Q973.06-45.28 973.06-44.36L973.06-44.36L973.06-44.36Q973.06-43.44 972.72-42.22L972.72-42.22L972.72-42.22Q972.38-41 971.73-39.97ZM972.47 0L963.25 0L963.25 0Q964.69-4.94 964.69-16.97L964.69-16.97L964.69-16.97Q964.69-25.44 963.19-28.63L963.19-28.63L963.19-28.63Q962.81-29.44 962.34-30.13L962.34-30.13L961.31-31.56L972.41-31.56L972.41-31.56Q971.03-26.41 971.03-15.67L971.03-15.67L971.03-15.67Q971.03-4.94 972.47 0L972.47 0ZM989.72 0L980.75 0L980.75 0Q982.19-4.94 982.19-16.97L982.19-16.97L982.19-16.97Q982.19-25.53 980.69-28.66L980.69-28.66L980.69-28.66Q980.31-29.44 979.84-30.13L979.84-30.13L978.81-31.56L989.66-31.56L989.66-31.56Q989.19-30 989.03-28.63L989.03-28.63L988.78-26.38L988.78-26.38Q992.56-32.19 998.41-32.19L998.41-32.19L998.41-32.19Q1002.19-32.19 1004.31-29.25L1004.31-29.25L1004.31-29.25Q1006.38-26.38 1006.38-21.47L1006.38-21.47L1006.38-18.13L1006.38-18.13Q1006.38-9.53 1006.53-7.63L1006.53-7.63L1006.53-7.63Q1006.69-5.72 1006.78-4.72L1006.78-4.72L1006.78-4.72Q1006.88-3.72 1007-2.94L1007-2.94L1007-2.94Q1007.22-1.47 1007.66 0L1007.66 0L998.50 0L998.50 0Q999.94-4.94 999.94-16.97L999.94-16.97L999.94-16.97Q999.94-21.78 999.33-23.56L999.33-23.56L999.33-23.56Q998.72-25.34 997.88-26.11L997.88-26.11L997.88-26.11Q997.03-26.88 995.66-26.88L995.66-26.88L995.66-26.88Q993.13-26.88 991.06-24.88L991.06-24.88L991.06-24.88Q989.28-23.16 988.34-20.50L988.34-20.50L988.34-20.50Q988.28-19.66 988.28-18.75L988.28-18.75L988.28-16.97L988.28-16.97Q988.28-4.94 989.72 0L989.72 0ZM1031.56-0.75L1031.56-0.75L1031.56-0.75Q1028.53 0.63 1025.59 0.63L1025.59 0.63L1025.59 0.63Q1022.66 0.63 1020.72-0.13L1020.72-0.13L1020.72-0.13Q1018.78-0.88 1017.41-2.31L1017.41-2.31L1017.41-2.31Q1014.53-5.31 1014.53-10.59L1014.53-10.59L1014.53-10.59Q1014.53-20.78 1020.38-26.47L1020.38-26.47L1020.38-26.47Q1025.59-31.56 1032.94-31.56L1032.94-31.56L1040.06-31.56L1040.06-31.56Q1039.19-28.53 1039.06-25.75L1039.06-25.75L1039.06-25.75Q1038.94-22.97 1038.89-21.20L1038.89-21.20L1038.89-21.20Q1038.84-19.44 1038.81-17.63L1038.81-17.63L1038.81-17.63Q1038.75-14 1038.75-10.22L1038.75-10.22L1038.75-10.22Q1038.75-6.44 1038.16-2.89L1038.16-2.89L1038.16-2.89Q1037.56 0.66 1036.58 3.31L1036.58 3.31L1036.58 3.31Q1035.59 5.97 1034.33 7.84L1034.33 7.84L1034.33 7.84Q1033.06 9.72 1031.69 11L1031.69 11L1031.69 11Q1029.44 13.09 1026.47 14.06L1026.47 14.06L1026.47 14.06Q1025.84 13.81 1025.27 13.16L1025.27 13.16L1025.27 13.16Q1024.69 12.50 1024.56 11.88L1024.56 11.88L1024.56 11.88Q1028.13 10.44 1030.22 4.72L1030.22 4.72L1030.22 4.72Q1031.03 2.50 1031.56-0.75ZM1032.25-10.44L1032.25-10.44L1032.34-19.81L1032.34-19.81Q1032.34-25.47 1031.94-28.38L1031.94-28.38L1031.94-28.38Q1027.50-27.50 1024.94-23.13L1024.94-23.13L1024.94-23.13Q1022.34-18.66 1022.34-11.84L1022.34-11.84L1022.34-11.84Q1022.34-7.63 1022.98-5.88L1022.98-5.88L1022.98-5.88Q1023.63-4.13 1024.52-3.31L1024.52-3.31L1024.52-3.31Q1025.41-2.50 1026.67-2.50L1026.67-2.50L1026.67-2.50Q1027.94-2.50 1028.91-3L1028.91-3L1028.91-3Q1029.88-3.50 1030.63-4.50L1030.63-4.50L1030.63-4.50Q1032.25-6.66 1032.25-10.44ZM1079.50 0L1068.09 0L1068.09 0Q1069.56-5.03 1069.56-20.31L1069.56-20.31L1069.56-20.31Q1069.56-23 1069.50-23.80L1069.50-23.80L1069.50-23.80Q1069.44-24.59 1068.94-24.69L1068.94-24.69L1068.94-24.69Q1066.88-25.16 1066.47-27.06L1066.47-27.06L1066.47-27.06Q1066.38-27.56 1066.22-28.13L1066.22-28.13L1068.22-28.13L1068.22-28.13Q1069.09-28.13 1069.30-28.52L1069.30-28.52L1069.30-28.52Q1069.50-28.91 1069.50-30.72L1069.50-30.72L1069.50-30.72Q1069.50-34.25 1069.23-37.66L1069.23-37.66L1069.23-37.66Q1068.97-41.06 1069.50-42.81L1069.50-42.81L1069.50-42.81Q1070.03-44.56 1071.16-45.81L1071.16-45.81L1071.16-45.81Q1073.53-48.44 1077.88-48.44L1077.88-48.44L1077.88-48.44Q1079.50-48.44 1080.84-48.13L1080.84-48.13L1080.84-48.13Q1082.19-47.81 1083.44-47.81L1083.44-47.81L1083.44-47.81Q1084.69-47.81 1085.63-48.16L1085.63-48.16L1085.63-48.16Q1086.56-48.50 1087.28-49.69L1087.28-49.69L1087.28-49.69Q1087.69-49.22 1088.03-48.02L1088.03-48.02L1088.03-48.02Q1088.38-46.81 1088.38-45.39L1088.38-45.39L1088.38-45.39Q1088.38-43.97 1088.17-42.39L1088.17-42.39L1088.17-42.39Q1087.97-40.81 1087.59-39.31L1087.59-39.31L1087.59-39.31Q1086.81-36.19 1085.41-34.34L1085.41-34.34L1085.41-34.34Q1084.66-40.72 1084.02-42.28L1084.02-42.28L1084.02-42.28Q1083.38-43.84 1082.61-44.42L1082.61-44.42L1082.61-44.42Q1081.84-45 1080.34-45L1080.34-45L1080.34-45Q1078.84-45 1077.67-43.42L1077.67-43.42L1077.67-43.42Q1076.50-41.84 1076.50-39.09L1076.50-39.09L1076.50-38.09L1076.50-38.09Q1076.50-31.84 1076.84-30.55L1076.84-30.55L1076.84-30.55Q1077.19-29.25 1077.78-28.84L1077.78-28.84L1077.78-28.84Q1078.38-28.44 1079.47-28.44L1079.47-28.44L1085.22-28.44L1085.22-28.44Q1084.44-25.63 1083.28-24.81L1083.28-24.81L1083.28-24.81Q1082.72-24.38 1082.02-24.38L1082.02-24.38L1082.02-24.38Q1081.31-24.38 1080.91-24.47L1080.91-24.47L1080.91-24.47Q1080.50-24.56 1080.13-24.69L1080.13-24.69L1080.13-24.69Q1079.19-25 1078.42-25L1078.42-25L1078.42-25Q1077.66-25 1077.25-24.80L1077.25-24.80L1077.25-24.80Q1076.84-24.59 1076.59-24.22L1076.59-24.22L1076.59-24.22Q1076.22-23.59 1076.22-22.22L1076.22-22.22L1076.22-16.88L1076.22-16.88Q1076.22-7.16 1076.91-4.72L1076.91-4.72L1076.91-4.72Q1077.41-2.91 1078.19-1.84L1078.19-1.84L1079.50 0ZM1104.16-29.06L1104.16-29.06Q1101.34-29.06 1100.11-26.25L1100.11-26.25L1100.11-26.25Q1098.88-23.44 1098.88-16.78L1098.88-16.78L1098.88-16.78Q1098.88-2.50 1104.16-2.50L1104.16-2.50L1104.16-2.50Q1106.97-2.50 1108.20-6.31L1108.20-6.31L1108.20-6.31Q1109.44-10.13 1109.44-16.78L1109.44-16.78L1109.44-16.78Q1109.44-23.44 1108.20-26.25L1108.20-26.25L1108.20-26.25Q1106.97-29.06 1104.16-29.06L1104.16-29.06ZM1091-17.97L1091-17.97Q1091-32.19 1104.16-32.19L1104.16-32.19L1104.16-32.19Q1117.31-32.19 1117.31-17.97L1117.31-17.97L1117.31-17.97Q1117.31-9.34 1113.69-4.31L1113.69-4.31L1113.69-4.31Q1110.16 0.63 1104.16 0.63L1104.16 0.63L1104.16 0.63Q1098.16 0.63 1094.63-4.31L1094.63-4.31L1094.63-4.31Q1091-9.34 1091-17.97L1091-17.97ZM1134.81 0L1125.59 0L1125.59 0Q1127.03-4.94 1127.03-16.97L1127.03-16.97L1127.03-16.97Q1127.03-25.53 1125.66-28.66L1125.66-28.66L1125.66-28.66Q1125.09-29.94 1123.66-31.56L1123.66-31.56L1134.75-31.56L1134.75-31.56Q1134.19-29.59 1133.84-26.16L1133.84-26.16L1133.84-26.16Q1136.78-29.84 1142.03-31.38L1142.03-31.38L1142.03-31.38Q1144.28-32.03 1145.31-33.44L1145.31-33.44L1145.31-33.44Q1146.34-30.97 1146.34-29.19L1146.34-29.19L1146.34-29.19Q1146.34-27.41 1146.16-25.89L1146.16-25.89L1146.16-25.89Q1145.97-24.38 1145.59-22.94L1145.59-22.94L1145.59-22.94Q1144.78-19.84 1143.44-18.13L1143.44-18.13L1143.44-18.13Q1142.28-24.22 1139.84-25.25L1139.84-25.25L1139.84-25.25Q1137.03-26.47 1134.34-21.94L1134.34-21.94L1134.34-21.94Q1133.78-21 1133.41-19.94L1133.41-19.94L1133.41-19.94Q1133.38-19.22 1133.38-18.47L1133.38-18.47L1133.38-18.47Q1133.38-17.72 1133.38-16.97L1133.38-16.97L1133.38-16.97Q1133.38-4.94 1134.81 0L1134.81 0ZM1152.81-5.03L1152.81-5.03L1152.81-5.03Q1152.81-7.22 1154.28-8.81L1154.28-8.81L1154.28-8.81Q1155.75-10.38 1157.84-10.38L1157.84-10.38L1157.84-10.38Q1159.94-10.38 1161.41-8.81L1161.41-8.81L1161.41-8.81Q1162.88-7.22 1162.88-5.03L1162.88-5.03L1162.88-5.03Q1162.88-2.78 1161.41-1.25L1161.41-1.25L1161.41-1.25Q1159.91 0.31 1157.84 0.31L1157.84 0.31L1157.84 0.31Q1155.78 0.31 1154.28-1.25L1154.28-1.25L1154.28-1.25Q1152.81-2.78 1152.81-5.03ZM1174.16-5.03L1174.16-5.03L1174.16-5.03Q1174.16-7.22 1175.63-8.81L1175.63-8.81L1175.63-8.81Q1177.09-10.38 1179.19-10.38L1179.19-10.38L1179.19-10.38Q1181.28-10.38 1182.75-8.81L1182.75-8.81L1182.75-8.81Q1184.22-7.22 1184.22-5.03L1184.22-5.03L1184.22-5.03Q1184.22-2.78 1182.75-1.25L1182.75-1.25L1182.75-1.25Q1181.25 0.31 1179.19 0.31L1179.19 0.31L1179.19 0.31Q1177.13 0.31 1175.63-1.25L1175.63-1.25L1175.63-1.25Q1174.16-2.78 1174.16-5.03ZM1195.50-5.03L1195.50-5.03L1195.50-5.03Q1195.50-7.22 1196.97-8.81L1196.97-8.81L1196.97-8.81Q1198.44-10.38 1200.53-10.38L1200.53-10.38L1200.53-10.38Q1202.63-10.38 1204.09-8.81L1204.09-8.81L1204.09-8.81Q1205.56-7.22 1205.56-5.03L1205.56-5.03L1205.56-5.03Q1205.56-2.78 1204.09-1.25L1204.09-1.25L1204.09-1.25Q1202.59 0.31 1200.53 0.31L1200.53 0.31L1200.53 0.31Q1198.47 0.31 1196.97-1.25L1196.97-1.25L1196.97-1.25Q1195.50-2.78 1195.50-5.03Z" fill="#f5468e" stroke="#ff803f" stroke-width="1.5"></path></g></g><style>text {
  font-size: 64px;
  font-family: Arial Black;
  dominant-baseline: central;
  text-anchor: middle;
}</style></svg>