<?xml version="1.0" encoding="UTF-8" standalone="no"?><!DOCTYPE svg PUBLIC "-//W3C//DTD SVG 1.1//EN" "http://www.w3.org/Graphics/SVG/1.1/DTD/svg11.dtd"><svg width="100%" height="100%" viewBox="0 0 144 144" version="1.1" xmlns="http://www.w3.org/2000/svg" xmlns:xlink="http://www.w3.org/1999/xlink" xml:space="preserve" xmlns:serif="http://www.serif.com/" style="fill-rule:evenodd;clip-rule:evenodd;stroke-linejoin:round;stroke-miterlimit:1.41421;"><g><path d="M34.08,50.88c1.771,24.037 1.55,47.492 0,70.56c0,0 33.318,10.573 68.16,0c-1.259,-23.965 -1.005,-47.337 0.24,-70.32c0,0 -31.589,6.402 -68.4,-0.24Z" style="fill:#ebc300;"/><path d="M110.16,50.823c0,0 -31.039,8.818 -81.84,0l0,-6.295c0,0 25.51,-3.907 78.96,-0.24l-0.156,7.256" style="fill:#ebc300;"/><path d="M34.32,51.12c0,0 28.717,6.993 68.16,0.72c0,0 -66.294,8.668 -67.68,12l-0.48,-12.72Z" style="fill:#e07500;"/><path d="M78.72,45.6c-1.329,-1.17 -12.171,-6.78 -19.2,-0.48c1.403,-0.65 9.242,-3.265 19.2,0.48Z" style="fill:#e07500;"/><path d="M106.08,46.32c0,0 -48.51,9.877 -77.52,4.08l-0.24,-6c0,0 12.236,7.695 77.76,1.92Z" style="fill:#e07500;"/><path d="M43.718,66.384c0,0 2.063,-2.262 4.323,0c2.26,2.263 0,38.253 0,38.253c0,0 -2.007,3.483 -4.323,0c-2.315,-3.484 0.469,-36.973 0,-38.253Z" style="fill:#e07500;"/><path d="M91.167,66.638c0,0 -1.854,-2.263 -3.886,0c-2.032,2.262 0,38.252 0,38.252c0,0 1.805,3.484 3.886,0c2.082,-3.484 -0.421,-36.973 0,-38.252Z" style="fill:#e07500;"/><path d="M70.638,108.138c0,0 -2.063,2.529 -4.323,0c-2.26,-2.53 0,-42.765 0,-42.765c0,0 2.008,-3.894 4.323,0c2.315,3.895 -0.468,41.334 0,42.765Z" style="fill:#e07500;"/></g></svg>